<svg xmlns="http://www.w3.org/2000/svg" data-name="Layer 1" viewBox="0 0 200 199.9"><path fill="#feca00" d="M100 0A100 100 0 110 98.3 99.9 99.9 0 01100 0zM37.5 106.4A18.3 18.3 0 1055.7 88a18.3 18.3 0 00-18.2 18.3zm125 0a18.3 18.3 0 10-18.2 18.2 18.2 18.2 0 0018.2-18.2zm-62.4 26.4a194 194 0 00-25.4 1.3c-2 .3-3.2 1.5-3.2 3.4s1.2 3 3.3 3.2l5.4.6a246.8 246.8 0 0044.7-.5c2.3-.3 3.5-1.4 3.5-3.3s-1.1-3.1-3.3-3.4a192.4 192.4 0 00-25-1.2z"/><path fill="#171615" d="M37.5 106.4A18.2 18.2 0 0155.7 88a18.3 18.3 0 11-18.2 18.3zm125 0A18.3 18.3 0 11144.3 88a18.3 18.3 0 0118.2 18.3z"/><path fill="#191715" d="M100 132.9a193 193 0 0125 1.3c2.3.2 3.5 1.4 3.4 3.3s-1.2 3-3.5 3.3a246.8 246.8 0 01-44.7.6l-5.4-.6c-2-.3-3.2-1.5-3.3-3.2s1.1-3.2 3.2-3.4a194 194 0 0125.4-1.3z"/></svg>