<svg width="34" height="34" viewBox="0 0 34 34" fill="none" xmlns="http://www.w3.org/2000/svg">
<path fill-rule="evenodd" clip-rule="evenodd" d="M2.77325 31.2266C5.21659 33.6666 9.14325 33.6666 16.9999 33.6666C24.8566 33.6666 28.7849 33.6666 31.2249 31.225C33.6666 28.7866 33.6666 24.8566 33.6666 17C33.6666 9.14331 33.6666 5.21498 31.2249 2.77331C28.7866 0.333313 24.8566 0.333313 16.9999 0.333313C9.14325 0.333313 5.21492 0.333313 2.77325 2.77331C0.333252 5.21665 0.333252 9.14331 0.333252 17C0.333252 24.8566 0.333252 28.7866 2.77325 31.2266ZM28.2499 23.6666C28.2499 23.9982 28.1182 24.3161 27.8838 24.5505C27.6494 24.785 27.3314 24.9166 26.9999 24.9166H6.99992C6.6684 24.9166 6.35046 24.785 6.11603 24.5505C5.88161 24.3161 5.74992 23.9982 5.74992 23.6666C5.74992 23.3351 5.88161 23.0172 6.11603 22.7828C6.35046 22.5483 6.6684 22.4166 6.99992 22.4166H26.9999C27.3314 22.4166 27.6494 22.5483 27.8838 22.7828C28.1182 23.0172 28.2499 23.3351 28.2499 23.6666ZM26.9999 18.25C27.3314 18.25 27.6494 18.1183 27.8838 17.8839C28.1182 17.6494 28.2499 17.3315 28.2499 17C28.2499 16.6685 28.1182 16.3505 27.8838 16.1161C27.6494 15.8817 27.3314 15.75 26.9999 15.75H6.99992C6.6684 15.75 6.35046 15.8817 6.11603 16.1161C5.88161 16.3505 5.74992 16.6685 5.74992 17C5.74992 17.3315 5.88161 17.6494 6.11603 17.8839C6.35046 18.1183 6.6684 18.25 6.99992 18.25H26.9999ZM28.2499 10.3333C28.2499 10.6648 28.1182 10.9828 27.8838 11.2172C27.6494 11.4516 27.3314 11.5833 26.9999 11.5833H6.99992C6.6684 11.5833 6.35046 11.4516 6.11603 11.2172C5.88161 10.9828 5.74992 10.6648 5.74992 10.3333C5.74992 10.0018 5.88161 9.68385 6.11603 9.44943C6.35046 9.21501 6.6684 9.08331 6.99992 9.08331H26.9999C27.3314 9.08331 27.6494 9.21501 27.8838 9.44943C28.1182 9.68385 28.2499 10.0018 28.2499 10.3333Z" fill="#4AB32D"/>
</svg>
