<svg width="16" height="16" viewBox="0 0 16 16" fill="none" xmlns="http://www.w3.org/2000/svg">
<path d="M1.33325 8.00004C1.33325 6.23193 2.03563 4.53624 3.28587 3.286C4.53612 2.03575 6.23181 1.33337 7.99992 1.33337C9.76803 1.33337 11.4637 2.03575 12.714 3.286C13.9642 4.53624 14.6666 6.23193 14.6666 8.00004V12.2417C14.6666 12.9484 14.6666 13.3 14.5616 13.5825C14.4781 13.8064 14.3474 14.0097 14.1785 14.1786C14.0096 14.3476 13.8063 14.4782 13.5824 14.5617C13.2999 14.6667 12.9474 14.6667 12.2416 14.6667H7.99992C6.23181 14.6667 4.53612 13.9643 3.28587 12.7141C2.03563 11.4638 1.33325 9.76815 1.33325 8.00004Z" stroke="#677685"/>
<path d="M5.5 7.16675H10.5M8 10.5001H10.5" stroke="#677685" stroke-linecap="round" stroke-linejoin="round"/>
</svg>
