<svg width="16" height="16" viewBox="0 0 16 16" fill="none" xmlns="http://www.w3.org/2000/svg">
<path d="M13.8333 14.6666H2.16667C1.72464 14.6666 1.30072 14.491 0.988155 14.1784C0.675595 13.8659 0.5 13.4419 0.5 12.9999V5.49992C0.5 5.05789 0.675595 4.63397 0.988155 4.32141C1.30072 4.00885 1.72464 3.83325 2.16667 3.83325H13.8333C14.2754 3.83325 14.6993 4.00885 15.0118 4.32141C15.3244 4.63397 15.5 5.05789 15.5 5.49992V12.9999C15.5 13.4419 15.3244 13.8659 15.0118 14.1784C14.6993 14.491 14.2754 14.6666 13.8333 14.6666Z" stroke="#677685"/>
<path d="M11.7499 9.66659C11.6394 9.66659 11.5334 9.62269 11.4553 9.54455C11.3772 9.46641 11.3333 9.36043 11.3333 9.24992C11.3333 9.13941 11.3772 9.03343 11.4553 8.95529C11.5334 8.87715 11.6394 8.83325 11.7499 8.83325C11.8604 8.83325 11.9664 8.87715 12.0445 8.95529C12.1227 9.03343 12.1666 9.13941 12.1666 9.24992C12.1666 9.36043 12.1227 9.46641 12.0445 9.54455C11.9664 9.62269 11.8604 9.66659 11.7499 9.66659Z" fill="#677685" stroke="#677685" stroke-linecap="round" stroke-linejoin="round"/>
<path d="M13 3.8333V2.66913C12.9999 2.41372 12.9412 2.16174 12.8282 1.93265C12.7153 1.70356 12.5512 1.50349 12.3487 1.34789C12.1461 1.1923 11.9105 1.08533 11.66 1.03527C11.4096 0.985197 11.151 0.993363 10.9042 1.05913L1.7375 3.5033C1.38254 3.59789 1.06878 3.8071 0.844992 4.0984C0.621201 4.38971 0.499919 4.74679 0.5 5.11413V5.49997" stroke="#677685"/>
</svg>
