<svg width="14" height="18" viewBox="0 0 14 18" fill="none" xmlns="http://www.w3.org/2000/svg">
<path d="M3.56224 13.2157C3.73675 13.2157 3.85928 13.1658 3.92982 13.066C4.00223 12.9645 4.04121 12.8105 4.04678 12.6041V12.5254C4.04678 12.2986 4.01151 12.1252 3.94096 12.0051C3.87227 11.8832 3.74232 11.8223 3.5511 11.8223C3.42115 11.8223 3.31347 11.8799 3.22807 11.9949C3.14267 12.11 3.09997 12.2885 3.09997 12.5305C3.09997 12.769 3.14267 12.9433 3.22807 13.0533C3.31533 13.1616 3.42671 13.2157 3.56224 13.2157Z" fill="#2588E4"/>
<path d="M6.77583 12.5051C6.77583 12.6692 6.79161 12.808 6.82317 12.9213C6.85473 13.033 6.90485 13.1184 6.97355 13.1777C7.04409 13.2352 7.13599 13.264 7.24923 13.264C7.36248 13.264 7.45252 13.2352 7.51935 13.1777C7.58619 13.1184 7.63446 13.033 7.66416 12.9213C7.69572 12.808 7.7115 12.6692 7.7115 12.5051C7.7115 12.3409 7.69572 12.2039 7.66416 12.0939C7.63446 11.9839 7.58526 11.901 7.51657 11.8452C7.44974 11.7893 7.35877 11.7614 7.24367 11.7614C7.07844 11.7614 6.95869 11.824 6.88443 11.9492C6.81203 12.0745 6.77583 12.2597 6.77583 12.5051Z" fill="#2588E4"/>
<path fill-rule="evenodd" clip-rule="evenodd" d="M1.99967 0.666992H8.66634L13.6663 5.66699V15.667C13.6663 16.109 13.4907 16.5329 13.1782 16.8455C12.8656 17.1581 12.4417 17.3337 11.9997 17.3337H1.99967C1.55765 17.3337 1.13372 17.1581 0.821163 16.8455C0.508602 16.5329 0.333008 16.109 0.333008 15.667V2.33366C0.333008 1.89163 0.508602 1.46771 0.821163 1.15515C1.13372 0.842587 1.55765 0.666992 1.99967 0.666992ZM7.83301 6.50033H11.9997L7.83301 2.33366V6.50033ZM3.11668 14C2.79179 14 2.52446 13.8739 2.31468 13.6218C2.10489 13.3697 2 13.0008 2 12.5152C2 12.0245 2.10768 11.6531 2.32303 11.401C2.53838 11.1489 2.81686 11.0228 3.15845 11.0228C3.29955 11.0228 3.42115 11.0415 3.52325 11.0787C3.62536 11.1159 3.71354 11.1667 3.7878 11.231C3.86392 11.2936 3.92982 11.3646 3.98552 11.4442H4.0078C3.9948 11.3714 3.98273 11.2716 3.9716 11.1447C3.96046 11.0161 3.95489 10.8909 3.95489 10.769V10H5.05207V13.9492H4.23058L3.99666 13.5863H3.95489C3.90476 13.6624 3.84164 13.7318 3.76553 13.7944C3.69127 13.857 3.6003 13.9069 3.49262 13.9442C3.3868 13.9814 3.26149 14 3.11668 14ZM8.81983 12.5051C8.81983 12.7453 8.78363 12.9585 8.71122 13.1447C8.63882 13.3308 8.53393 13.4873 8.39655 13.6142C8.25917 13.7411 8.09301 13.8376 7.89808 13.9036C7.70315 13.9679 7.48315 14 7.2381 14C7.00975 14 6.79996 13.9679 6.60874 13.9036C6.41938 13.8376 6.25415 13.7411 6.11306 13.6142C5.97197 13.4873 5.86243 13.3308 5.78446 13.1447C5.70834 12.9585 5.67029 12.7453 5.67029 12.5051C5.67029 12.187 5.73341 11.9179 5.85965 11.698C5.98775 11.478 6.16968 11.3105 6.40546 11.1954C6.64309 11.0804 6.9262 11.0228 7.2548 11.0228C7.55741 11.0228 7.8266 11.0804 8.06238 11.1954C8.29815 11.3105 8.48287 11.478 8.61654 11.698C8.75207 11.9179 8.81983 12.187 8.81983 12.5051ZM10.0479 13.8452C10.2837 13.9484 10.5612 14 10.8805 14C11.0977 14 11.288 13.9772 11.4514 13.9315C11.6148 13.8858 11.7614 13.824 11.8914 13.7462V12.9569C11.7503 13.0364 11.6009 13.099 11.4431 13.1447C11.2871 13.1887 11.1302 13.2107 10.9724 13.2107C10.8629 13.2107 10.7654 13.1878 10.68 13.1421C10.5965 13.0964 10.5306 13.0228 10.4823 12.9213C10.4359 12.8198 10.4127 12.6861 10.4127 12.5203C10.4127 12.3579 10.4359 12.2242 10.4823 12.1193C10.5287 12.0127 10.5937 11.9332 10.6772 11.8807C10.7608 11.8283 10.8573 11.802 10.9669 11.802C11.0875 11.802 11.2036 11.8181 11.315 11.8503C11.4282 11.8807 11.5498 11.9222 11.6798 11.9746L12 11.2411C11.8515 11.1734 11.69 11.1201 11.5155 11.0812C11.3428 11.0423 11.1599 11.0228 10.9669 11.0228C10.6494 11.0228 10.3654 11.0753 10.1147 11.1802C9.86411 11.2851 9.66639 11.4484 9.52158 11.6701C9.37863 11.8917 9.30716 12.1768 9.30716 12.5254C9.30716 12.8655 9.37121 13.1447 9.4993 13.3629C9.62926 13.5795 9.81212 13.7403 10.0479 13.8452Z" fill="#2588E4"/>
</svg>
