<svg width="14" height="18" viewBox="0 0 14 18" fill="none" xmlns="http://www.w3.org/2000/svg">
<path fill-rule="evenodd" clip-rule="evenodd" d="M1.99967 0.666992H8.66634L13.6663 5.66699V15.667C13.6663 16.109 13.4907 16.5329 13.1782 16.8455C12.8656 17.1581 12.4417 17.3337 11.9997 17.3337H1.99967C1.55765 17.3337 1.13372 17.1581 0.821163 16.8455C0.508602 16.5329 0.333008 16.109 0.333008 15.667V2.33366C0.333008 1.89163 0.508602 1.46771 0.821163 1.15515C1.13372 0.842587 1.55765 0.666992 1.99967 0.666992ZM7.83301 6.50033H11.9997L7.83301 2.33366V6.50033ZM5.34168 13.9365H6.10571V9H5.34168V13.9365ZM2.0476 10.3896L2.9494 12.125L2 13.9365H2.86673L3.45792 12.7214L4.04659 13.9365H4.91583L3.96142 12.125L4.87325 10.3896H4.00651L3.45792 11.519L2.91433 10.3896H2.0476ZM8.86373 12.8832C8.86373 13.1244 8.81864 13.3285 8.72846 13.4956C8.63995 13.6605 8.50718 13.7864 8.33016 13.8731C8.15314 13.9577 7.9327 14 7.66884 14C7.47345 14 7.30561 13.9841 7.16533 13.9524C7.02672 13.9207 6.88644 13.8678 6.74449 13.7938V12.9943C6.89646 13.081 7.05929 13.1529 7.23297 13.21C7.40832 13.265 7.56196 13.2925 7.69389 13.2925C7.84252 13.2925 7.94856 13.265 8.01202 13.21C8.07715 13.1529 8.10972 13.0789 8.10972 12.9879C8.10972 12.9287 8.09636 12.8758 8.06964 12.8293C8.04459 12.7807 7.98948 12.7267 7.90431 12.6675C7.81914 12.6062 7.68554 12.5269 7.50351 12.4296C7.32816 12.3365 7.1837 12.2424 7.07014 12.1472C6.95825 12.052 6.87475 11.9399 6.81964 11.8109C6.7662 11.6798 6.73948 11.5137 6.73948 11.3128C6.73948 10.985 6.83968 10.7386 7.04008 10.5736C7.24215 10.4065 7.51186 10.323 7.8492 10.323C8.02288 10.323 8.18821 10.3452 8.34519 10.3896C8.50384 10.434 8.66667 10.5049 8.83367 10.6022L8.60321 11.3001C8.4646 11.224 8.3335 11.1616 8.20992 11.1129C8.08801 11.0643 7.96359 11.04 7.83667 11.04C7.72478 11.04 7.64045 11.059 7.58367 11.0971C7.52689 11.1352 7.4985 11.1933 7.4985 11.2716C7.4985 11.3287 7.51269 11.3794 7.54108 11.4239C7.57114 11.4683 7.62792 11.518 7.71142 11.573C7.79659 11.6258 7.92101 11.6946 8.08467 11.7792C8.24332 11.8617 8.3811 11.9484 8.498 12.0393C8.6149 12.1282 8.70508 12.2392 8.76854 12.3725C8.832 12.5036 8.86373 12.6739 8.86373 12.8832ZM9.13176 10.3896L10.0336 12.125L9.08417 13.9365H9.9509L10.5421 12.7214L11.1308 13.9365H12L11.0456 12.125L11.9574 10.3896H11.0907L10.5421 11.519L9.9985 10.3896H9.13176Z" fill="#5A9850"/>
</svg>
