<svg width="14" height="18" viewBox="0 0 14 18" fill="none" xmlns="http://www.w3.org/2000/svg">
<path d="M8.66634 0.666992H1.99967C1.55765 0.666992 1.13372 0.842587 0.821163 1.15515C0.508602 1.46771 0.333008 1.89163 0.333008 2.33366V15.667C0.333008 16.109 0.508602 16.5329 0.821163 16.8455C1.13372 17.1581 1.55765 17.3337 1.99967 17.3337H11.9997C12.4417 17.3337 12.8656 17.1581 13.1782 16.8455C13.4907 16.5329 13.6663 16.109 13.6663 15.667V5.66699L8.66634 0.666992ZM4.69884 12.7053C4.69884 13.6653 4.23967 14.0003 3.50051 14.0003C3.32551 14.0003 3.09551 13.9703 2.94634 13.9195L3.03051 13.3053C3.13634 13.3403 3.27134 13.3653 3.42134 13.3653C3.74134 13.3653 3.94051 13.2203 3.94051 12.6953V10.5762H4.69967L4.69884 12.7053ZM7.44384 12.4012C7.18301 12.6453 6.79967 12.7562 6.34967 12.7562C6.24967 12.7562 6.15967 12.7503 6.08967 12.7403V13.9445H5.33467V10.6212C5.67552 10.5698 6.02002 10.5467 6.36467 10.552C6.83384 10.552 7.16884 10.6412 7.39301 10.8212C7.60884 10.9912 7.75384 11.2712 7.75384 11.6012C7.75384 11.9312 7.64301 12.2112 7.44384 12.4012ZM11.053 13.7903C10.8197 13.8703 10.3738 13.9803 9.92884 13.9803C9.31467 13.9803 8.86967 13.8253 8.55967 13.5253C8.25051 13.2353 8.08051 12.7962 8.08467 12.3012C8.09051 11.1812 8.90384 10.542 10.0088 10.542C10.443 10.542 10.7788 10.6278 10.943 10.707L10.7838 11.3162C10.5988 11.2362 10.3697 11.1712 9.99967 11.1712C9.36551 11.1712 8.88467 11.5312 8.88467 12.2612C8.88467 12.9553 9.32051 13.3653 9.94384 13.3653C10.1197 13.3653 10.2588 13.3453 10.3197 13.3145V12.6095H9.79967V12.0153H11.053V13.7903ZM8.66634 6.50033H7.83301V2.33366L11.9997 6.50033H8.66634Z" fill="#E425AF"/>
</svg>
