<svg width="16" height="16" viewBox="0 0 16 16" fill="none" xmlns="http://www.w3.org/2000/svg">
<path d="M6.93366 2.66699H9.06699C9.34989 2.66699 9.6212 2.78529 9.82124 2.99585C10.0213 3.20642 10.1337 3.49201 10.1337 3.7898V4.91261H12.267C12.5499 4.91261 12.8212 5.0309 13.0212 5.24147C13.2213 5.45204 13.3337 5.73763 13.3337 6.03541V12.2109C13.3337 12.5086 13.2213 12.7942 13.0212 13.0048C12.8212 13.2154 12.5499 13.3337 12.267 13.3337H3.73366C3.45076 13.3337 3.17945 13.2154 2.97941 13.0048C2.77937 12.7942 2.66699 12.5086 2.66699 12.2109V6.03541C2.66699 5.41226 3.14166 4.91261 3.73366 4.91261H5.86699V3.7898C5.86699 3.16664 6.34166 2.66699 6.93366 2.66699ZM9.06699 4.91261V3.7898H6.93366V4.91261H9.06699Z" fill="#AEB1CE"/>
</svg>
