<svg width="20" height="20" viewBox="0 0 20 20" fill="none" xmlns="http://www.w3.org/2000/svg">
<g clip-path="url(#clip0_174_1920)">
<path d="M18.95 13.6057L16.7722 9.92789L18.9278 6.40011C18.979 6.31604 19.0069 6.21989 19.0087 6.12148C19.0105 6.02308 18.9862 5.92596 18.9381 5.84006C18.8901 5.75416 18.8201 5.68256 18.7353 5.63259C18.6505 5.58262 18.554 5.55607 18.4556 5.55566H1.11111C0.816426 5.55566 0.533811 5.67273 0.325437 5.8811C0.117063 6.08947 0 6.37209 0 6.66678L0 13.3334C0 13.6281 0.117063 13.9107 0.325437 14.1191C0.533811 14.3275 0.816426 14.4446 1.11111 14.4446H18.4722C18.5703 14.4445 18.6666 14.4186 18.7514 14.3693C18.8361 14.32 18.9063 14.2491 18.9549 14.1639C19.0034 14.0787 19.0285 13.9822 19.0277 13.8841C19.0268 13.7861 19 13.69 18.95 13.6057ZM5.83889 11.7668H5.21667L3.40556 9.35566V11.7723H2.77778V8.33344H3.40556L5.22222 10.7501V8.33344H5.84444L5.83889 11.7668ZM9.35556 8.889H7.39444V9.71678H9.17222V10.2723H7.39444V11.1668H9.35556V11.7223H6.76667V8.33344H9.35L9.35556 8.889ZM13.9611 11.7557H13.3333L12.4722 9.20566L11.6111 11.7668H10.9889L9.87778 8.33344H10.5556L11.2889 10.7946L12.1333 8.33344H12.8111L13.6222 10.7946L14.3611 8.33344H15.0444L13.9611 11.7557Z" fill="#4AB32D"/>
</g>
<defs>
<clipPath id="clip0_174_1920">
<rect width="20" height="20" fill="white"/>
</clipPath>
</defs>
</svg>
