<svg width="1152" height="700" viewBox="0 0 1152 700" fill="none" xmlns="http://www.w3.org/2000/svg">
<g clip-path="url(#clip0_167_1132)">
<g opacity="0.4">
<g filter="url(#filter0_f_167_1132)">
<path d="M548.331 250.722C491.904 354.922 357.862 401.565 248.939 354.901L218.258 341.757C109.335 295.093 66.7786 172.794 123.205 68.5934C179.632 -35.607 313.674 -82.2496 422.597 -35.5858L453.278 -22.4418C562.201 24.222 604.757 146.522 548.331 250.722Z" fill="url(#paint0_radial_167_1132)"/>
</g>
<g style="mix-blend-mode:overlay" filter="url(#filter1_f_167_1132)">
<path d="M240.245 810.501C72.1463 821.695 -75.5809 694.679 -89.7125 526.801C-103.844 358.924 20.971 213.757 189.07 202.562L262.405 197.678C430.504 186.484 578.232 313.5 592.363 481.378C606.495 649.256 481.68 794.422 313.581 805.617L240.245 810.501Z" fill="url(#paint1_radial_167_1132)"/>
</g>
<g filter="url(#filter2_f_167_1132)">
<path d="M428.619 -164.363C677.567 -281.2 993.122 -184.181 1133.43 52.3351C1273.74 288.851 1185.67 575.3 936.72 692.136L877.294 720.026C628.346 836.863 312.791 739.844 172.483 503.328C32.1744 266.812 120.245 -19.6363 369.193 -136.473L428.619 -164.363Z" fill="url(#paint2_radial_167_1132)"/>
</g>
<g style="mix-blend-mode:hue" filter="url(#filter3_f_167_1132)">
<path d="M383.149 682.396C203.245 576.475 158.444 354.84 283.083 187.359C407.723 19.8789 654.605 -30.0252 834.509 75.8953L863.48 92.9522C1043.38 198.873 1088.18 420.508 963.545 587.988C838.906 755.469 592.024 805.373 412.12 699.452L383.149 682.396Z" fill="url(#paint3_radial_167_1132)"/>
</g>
<g style="mix-blend-mode:lighten" filter="url(#filter4_f_167_1132)">
<rect width="909.027" height="872.528" rx="436.264" transform="matrix(0.848629 0.528989 -0.618892 0.785476 220.122 -259.418)" fill="url(#paint4_radial_167_1132)"/>
</g>
<g style="mix-blend-mode:lighten" filter="url(#filter5_f_167_1132)">
<rect width="757.326" height="673.144" rx="336.572" transform="matrix(0.999202 -0.03994 0.0504607 0.998726 72.3418 -37.4722)" fill="url(#paint5_radial_167_1132)"/>
</g>
<g style="mix-blend-mode:overlay" filter="url(#filter6_f_167_1132)">
<path d="M759.772 -167.69C895.25 -227.764 1063.82 -171.664 1136.28 -42.3867C1208.74 86.8909 1157.65 240.391 1022.17 300.465L987.535 315.825C852.057 375.899 683.49 319.799 611.03 190.522C538.57 61.244 589.656 -92.2561 725.134 -152.331L759.772 -167.69Z" fill="url(#paint6_radial_167_1132)"/>
</g>
<g style="mix-blend-mode:lighten" filter="url(#filter7_f_167_1132)">
<path d="M812.713 -135.421C930.667 -75.3816 968.233 63.5217 896.619 174.829C825.005 286.136 671.33 327.696 553.376 267.657L528.291 254.889C410.338 194.85 372.772 55.9469 444.386 -55.36C516 -166.667 669.675 -208.228 787.629 -148.189L812.713 -135.421Z" fill="url(#paint7_radial_167_1132)"/>
</g>
</g>
<g opacity="0.05">
<mask id="mask0_167_1132" style="mask-type:luminance" maskUnits="userSpaceOnUse" x="0" y="0" width="1152" height="700">
<path d="M1152 0H0V700H1152V0Z" fill="white"/>
</mask>
<g mask="url(#mask0_167_1132)">
<path d="M-489.369 -229.32C-600.422 -167.86 -676.147 -64.1203 -684.441 82.7396C-687.974 144.48 -669.542 201.6 -636.211 251.16C-549.12 380.8 -396.902 422.8 -284.16 518C-234.547 559.86 -193.689 615.44 -141.619 651C-89.5484 686.56 -28.262 703.5 30.4132 712.74C87.706 721.7 146.688 723.38 204.595 728.7C290.611 736.68 377.549 754.74 461.722 782.88C525.312 804.16 597.658 830.76 647.885 885.92" stroke="#272F37" stroke-miterlimit="10"/>
<path d="M642.049 887.32C580.149 820.96 489.525 791.84 412.417 769.16C342.683 748.72 270.952 734.72 199.835 726.6C142.542 720.02 83.8668 716.66 27.1884 706.58C-29.1828 696.5 -87.09 679.84 -136.549 646.38C-185.394 613.48 -225.944 559.3 -272.178 519.12C-376.319 428.54 -522.7 389.9 -605.183 268.52C-636.517 222.32 -656.024 167.3 -651.416 109.48C-648.191 69.8598 -638.821 32.1998 -625.304 -3.92021C-612.709 -37.5202 -596.581 -70.5602 -579.532 -101.64C-570.469 -118.3 -560.639 -134.96 -549.887 -150.36C-539.288 -165.62 -527 -180.18 -514.405 -192.5C-500.581 -205.94 -485.682 -216.16 -469.093 -226.24" stroke="#272F37" stroke-miterlimit="10"/>
<path d="M637.133 888.58C574.618 822.92 485.376 792.4 408.116 769.16C338.688 748.3 266.957 734.02 195.994 724.78C139.162 717.36 81.1012 712.04 24.73 700.84C-28.262 690.34 -82.4828 674.66 -130.867 642.32C-178.944 610.26 -215.5 558.88 -259.584 520.94C-358.195 436.1 -495.513 400.26 -573.388 286.16C-602.726 242.62 -622.848 189.98 -617.472 136.08C-613.478 96.3198 -600.883 60.0598 -586.291 23.6598C-572.313 -10.9202 -556.646 -45.3602 -542.822 -80.2202C-535.449 -98.5602 -528.23 -117.32 -520.396 -135.38C-512.563 -153.16 -502.732 -170.1 -491.98 -184.1C-479.539 -200.48 -466.022 -211.4 -448.819 -222.74" stroke="#272F37" stroke-miterlimit="10"/>
<path d="M639.591 888.86C576.155 824.18 488.603 792.54 411.035 769.02C341.761 748.02 270.183 733.88 199.22 723.66C142.695 715.54 85.7098 708.26 29.4922 696.5C-20.8886 686 -74.0342 671.16 -117.964 640.22C-162.047 609.14 -198.604 561.26 -240.076 525C-331.161 445.34 -461.874 412.72 -534.988 306.6C-562.789 266.42 -583.218 216.58 -577.381 165.9C-572.62 125.72 -557.106 90.16 -541.593 53.76C-526.386 18.34 -510.719 -17.92 -500.889 -56.28C-495.666 -76.44 -491.212 -97.72 -485.836 -117.46C-480.46 -137.06 -473.855 -156.24 -464.793 -172.48C-454.041 -191.8 -441.753 -203.14 -423.935 -216.02" stroke="#272F37" stroke-miterlimit="10"/>
<path d="M644.66 888.72C580.302 825.02 494.286 792.68 416.411 769.02C347.291 748.02 275.867 734.02 205.057 723.1C148.993 714.42 92.1612 705.88 36.8652 693C-11.2116 681.66 -59.1347 667.38 -102.604 639.1C-145.304 611.38 -178.482 564.48 -218.264 530.18C-305.509 454.86 -424.856 425.18 -494.284 327.74C-520.549 290.92 -540.978 242.9 -534.68 195.72C-529.304 154.98 -510.565 119.84 -494.437 83.2996C-478.156 46.4796 -463.41 7.55963 -456.805 -32.9004C-453.426 -54.1804 -451.89 -77.8404 -449.279 -99.5404C-446.668 -121.1 -442.981 -142.24 -435.608 -160.44C-426.853 -182.42 -415.64 -194.18 -397.055 -208.88" stroke="#272F37" stroke-miterlimit="10"/>
<path d="M650.651 888.44C585.371 825.86 500.737 792.68 422.555 768.88C353.588 747.88 282.318 734.16 211.508 722.54C155.751 713.3 99.6873 703.36 44.6985 689.5C0.000927133 678.3 -47.4615 665.98 -86.7831 637.98C-126.105 609.98 -158.821 567.84 -195.839 535.22C-275.404 465.08 -388.607 438.06 -453.119 348.04C-477.695 313.74 -497.817 268.66 -491.365 224.7C-485.221 183.4 -463.564 148.4 -446.821 111.58C-429.465 73.4997 -416.255 32.7597 -412.722 -10.6403C-410.879 -33.6003 -412.722 -58.8002 -412.722 -82.1802C-412.722 -105.42 -411.493 -126.84 -406.578 -148.54C-401.663 -170.66 -388.453 -190.82 -370.636 -201.74" stroke="#272F37" stroke-miterlimit="10"/>
<path d="M657.255 888.019C591.207 826.559 507.802 792.539 429.466 768.599C360.653 747.599 289.383 734.159 218.727 721.839C163.431 712.179 107.981 700.839 53.2996 685.999C10.4452 674.379 -32.102 661.919 -70.3484 636.719C-107.98 611.939 -137.472 570.499 -172.953 539.979C-247.91 475.159 -351.129 449.959 -411.033 367.079C-433.92 335.299 -453.273 292.74 -446.822 252.14C-440.064 210.14 -415.488 175 -398.131 137.76C-379.852 98.4196 -367.872 55.4396 -367.718 9.65957C-367.564 -14.8404 -372.172 -41.0204 -375.552 -66.3604C-378.624 -90.0204 -380.467 -114.38 -376.934 -137.62C-373.401 -161.84 -361.881 -183.68 -343.603 -195.44" stroke="#272F37" stroke-miterlimit="10"/>
<path d="M664.166 887.459C597.197 827.119 515.174 792.399 436.531 768.319C367.718 747.319 296.448 734.159 226.253 721.139C171.418 711.059 116.429 698.179 62.2079 682.499C23.0399 671.159 -19.0464 660.239 -53.6064 635.319C-88.0128 610.539 -117.197 573.159 -149.606 544.459C-216.73 485.099 -314.419 461.019 -368.794 384.859C-389.222 356.159 -408.883 315.419 -401.818 277.899C-393.677 234.639 -367.872 200.059 -349.133 161.839C-329.318 121.239 -318.413 74.4793 -322.56 28.1393C-324.864 2.3793 -331.93 -25.0607 -338.074 -51.6607C-343.91 -76.4407 -348.518 -102.061 -347.136 -127.401C-345.754 -153.021 -335.462 -176.961 -316.416 -189.701" stroke="#272F37" stroke-miterlimit="10"/>
<path d="M671.232 886.9C603.495 827.68 522.701 792.12 443.751 768.04C375.091 747.04 303.821 734.16 233.779 720.58C179.251 709.94 125.031 695.8 71.117 679.14C34.5602 667.8 -3.68621 657.16 -36.8638 634.06C-69.8878 610.96 -95.6926 575.68 -126.413 548.8C-188.774 494.34 -277.094 471.1 -326.4 401.38C-345.293 374.78 -363.417 336.56 -356.505 302.26C-347.597 258.02 -318.413 222.88 -299.981 183.96C-279.859 141.54 -269.721 93.6597 -277.555 44.6597C-281.856 17.4997 -292.301 -11.0603 -300.902 -38.3603C-309.043 -64.1203 -316.877 -90.5803 -317.491 -118.16C-318.259 -147.84 -307.814 -167.16 -289.536 -184.8" stroke="#272F37" stroke-miterlimit="10"/>
<path d="M678.298 886.34C609.793 828.38 530.228 791.84 451.124 767.76C382.618 746.9 311.194 734.16 241.46 719.88C187.393 708.82 133.479 693.42 80.1801 675.64C46.5417 664.3 10.5993 654.36 -19.9671 632.38C-50.6871 610.4 -74.4951 577.78 -102.911 552.58C-159.282 502.6 -239.922 480.06 -283.698 416.5C-301.516 390.6 -316.722 356.72 -310.732 324.94C-302.284 280.56 -269.26 243.88 -250.521 203.98C-229.631 159.88 -221.951 111.44 -232.396 59.3599C-238.233 30.2399 -252.364 1.11989 -263.577 -26.4601C-274.636 -53.7601 -285.695 -82.4601 -287.845 -109.76C-290.149 -139.02 -282.93 -159.88 -262.809 -180.6" stroke="#272F37" stroke-miterlimit="10"/>
<path d="M685.517 885.64C616.397 828.8 537.754 791.56 458.496 767.34C390.144 746.48 318.72 734.02 249.139 719.18C195.379 707.7 141.773 691.18 89.0882 672.14C58.2146 660.94 24.8834 651.28 -3.2254 630.7C-31.4878 609.98 -53.299 579.88 -79.5646 556.22C-129.792 510.86 -202.752 488.88 -241.152 430.5C-257.126 406 -270.489 375.34 -264.806 346.08C-255.744 300.16 -221.337 263.76 -201.062 222.18C-178.944 176.96 -173.875 123.62 -187.545 72.3797C-195.686 41.9997 -212.275 12.4597 -226.56 -15.6803C-240.23 -42.5603 -254.976 -73.0803 -258.509 -101.92C-262.349 -133.28 -256.819 -154.42 -236.39 -176.82" stroke="#272F37" stroke-miterlimit="10"/>
<path d="M692.891 884.94C623.003 829.36 545.434 791.14 466.023 766.92C397.825 746.06 326.247 733.88 256.974 718.34C203.521 706.44 150.375 688.8 98.3049 668.36C69.2745 657.02 39.4761 646.52 13.6713 628.46C-11.8263 610.68 -32.1015 581.28 -55.9095 559.02C-99.9927 517.72 -165.734 495.46 -198.297 442.68C-212.274 420.14 -224.255 392.14 -218.418 365.26C-207.973 317.8 -172.185 280.84 -151.295 237.86C-128.562 190.82 -125.644 135.1 -142.54 83.0201C-152.831 51.5201 -172.799 21.8401 -189.388 -6.71993C-205.516 -34.4399 -221.03 -63.2799 -228.863 -95.6199C-235.929 -124.46 -229.938 -157.08 -209.663 -174.44" stroke="#272F37" stroke-miterlimit="10"/>
<path d="M700.109 884.24C629.607 829.78 552.96 790.72 473.396 766.5C405.197 745.64 333.773 733.74 264.653 717.64C211.508 705.32 158.669 686.7 107.213 664.86C81.1013 653.8 53.9141 644 30.2597 626.5C6.91254 609.14 -11.6731 582.96 -32.7163 561.96C-71.2699 523.46 -127.948 501.34 -155.903 454.02C-168.038 433.58 -178.022 407.4 -172.185 383.18C-160.665 334.46 -123.187 296.52 -101.836 251.86C-78.4891 202.86 -77.7211 144.62 -98.1499 92.2597C-110.745 59.9197 -133.478 30.2397 -152.678 1.39969C-171.417 -26.6003 -189.542 -56.0003 -199.833 -89.6003C-208.742 -118.86 -204.441 -153.58 -183.705 -172.34" stroke="#272F37" stroke-miterlimit="10"/>
<path d="M707.483 883.539C636.366 830.339 560.641 790.439 481.076 766.079C413.032 745.359 341.454 733.599 272.641 716.799C219.803 703.919 167.272 684.599 116.43 661.219C92.9292 650.439 68.3532 640.639 47.0028 624.259C25.9596 608.019 9.2172 583.379 -9.2148 564.479C-41.3172 531.719 -88.0116 507.079 -113.048 463.959C-124.108 445.059 -130.559 419.579 -125.336 399.419C-112.588 349.439 -74.1876 310.239 -52.0692 263.899C-28.1076 213.639 -29.9508 151.62 -53.6052 99.8195C-68.658 66.4995 -93.6948 37.0996 -115.967 8.25956C-137.01 -19.1804 -160.972 -50.6805 -170.648 -84.5605C-179.25 -114.8 -180.94 -148.82 -157.592 -170.94" stroke="#272F37" stroke-miterlimit="10"/>
<path d="M714.855 882.7C643.278 830.76 568.167 789.88 488.603 765.52C420.711 744.8 349.134 733.18 280.475 715.96C227.943 702.66 175.566 682.64 125.339 657.44C104.449 646.94 81.409 637.28 63.5914 621.74C45.7738 606.2 30.2602 584.64 13.9786 566.44C-12.5942 537.04 -54.6806 509.74 -70.655 472.5C-78.1814 455.14 -84.479 433.44 -78.7958 413.84C-63.743 361.62 -25.1894 322.14 -2.91738 273.7C21.3514 221.06 16.897 157.08 -9.67577 105.28C-27.1862 71.3995 -54.8342 42.2795 -79.5638 13.4395C-103.065 -14.0005 -130.098 -45.5005 -141.772 -80.6405C-151.909 -111.161 -155.596 -147.001 -131.788 -170.521" stroke="#272F37" stroke-miterlimit="10"/>
<path d="M722.228 881.86C650.036 831.04 575.693 789.32 496.129 764.96C428.237 744.24 356.66 732.9 288.308 714.98C235.93 701.26 183.706 680.96 134.401 653.66C115.969 643.44 96.4613 633.5 80.1797 618.94C64.0517 604.66 50.9957 585.06 37.3253 567.98C15.9749 541.38 -15.0523 513.52 -28.2619 479.5C-34.0987 464.52 -36.7099 441.42 -32.1019 426.44C-15.2059 372.96 23.9621 331.8 46.3877 281.4C70.9637 226.38 64.2053 160.86 33.9461 108.92C13.9781 74.4797 -16.7419 46.0598 -43.6219 17.3597C-69.4267 -10.2203 -97.2283 -40.6003 -113.203 -77.5603C-125.644 -106.26 -130.559 -150.08 -106.444 -170.8" stroke="#272F37" stroke-miterlimit="10"/>
<path d="M729.601 880.879C656.948 831.319 583.22 788.619 503.655 764.399C435.918 743.679 364.34 732.619 295.988 714.139C243.764 699.999 191.386 680.119 143.156 649.879C127.182 639.799 109.671 629.859 96.308 616.139C83.0984 602.419 71.2712 585.899 60.212 569.379C42.8552 543.619 21.6584 517.439 13.6712 485.519C9.83116 469.979 9.67756 452.059 14.4392 437.779C32.564 383.599 72.5 340.059 95.0792 287.419C119.809 230.019 110.286 162.819 76.9544 111.019C54.6824 76.1594 21.1976 48.4394 -7.9864 20.1594C-36.2488 -7.14062 -66.6616 -37.2406 -84.94 -75.1806C-98.764 -103.881 -105.983 -149.661 -81.4072 -171.641" stroke="#272F37" stroke-miterlimit="10"/>
<path d="M737.127 880.039C664.013 831.739 590.9 788.059 511.335 763.839C443.751 743.119 372.173 732.199 303.975 713.299C252.058 698.879 199.373 678.579 152.218 646.099C138.855 636.859 124.416 625.799 112.896 613.199C101.684 601.159 91.3924 585.479 83.5588 570.359C70.3492 545.159 57.9076 519.959 56.0644 490.279C55.1428 475.859 56.6788 460.459 61.4404 447.579C81.8692 392.419 121.498 346.499 144.077 291.619C168.807 231.7 156.365 162.959 120.116 111.579C95.3859 76.5795 59.7508 49.5595 27.802 21.9795C-3.37881 -4.90053 -35.4812 -34.5805 -56.5244 -73.5005C-72.038 -102.341 -81.4076 -149.661 -56.2172 -173.041" stroke="#272F37" stroke-miterlimit="10"/>
<path d="M744.5 879.06C670.925 832.02 598.733 788.06 518.861 763.14C403.047 727.02 260.813 726.74 161.127 642.04C108.903 597.66 78.1828 525.98 108.135 455.56C131.943 399.14 170.65 350.98 192.461 293.72C216.269 231.14 202.445 161.84 162.356 110.32C135.168 75.3199 96.6148 49.2799 62.6692 22.3999C29.338 -4.06014 -7.67962 -33.6001 -28.8764 -72.6601C-44.2364 -101.08 -58.8284 -149.1 -31.9484 -175.14" stroke="#272F37" stroke-miterlimit="10"/>
<path d="M764.775 875.14C693.965 826 623.309 783.44 544.82 759.5C456.961 732.62 364.801 723.38 277.556 690.76C247.143 679.42 215.041 664.3 188.929 642.6C136.551 598.78 104.756 529.48 130.407 456.82C131.175 454.72 131.943 452.34 132.711 450.24C154.215 396.34 189.543 348.04 208.129 292.46C210.125 286.3 211.815 279.58 213.197 273.14C226.253 213.78 206.746 153.72 171.265 110.04C143.463 75.8798 105.063 50.6798 71.1175 24.3598C53.6071 10.6398 35.7894 -3.64021 19.9686 -19.1802C4.76225 -34.1602 -9.67614 -50.6802 -20.4281 -69.1602C-35.9417 -96.0402 -50.8409 -144.76 -24.4217 -171.22" stroke="#272F37" stroke-miterlimit="10"/>
<path d="M784.897 870.94C717.005 819.42 647.578 778.54 570.625 755.44C483.38 729.26 391.681 721 305.05 689.36C274.791 678.3 242.842 663.74 216.73 642.46C164.199 599.76 130.253 531.16 152.833 457.66C153.447 455.42 154.215 453.18 154.983 451.08C174.183 396.62 207.821 347.06 224.257 291.06C226.1 284.9 227.329 278.18 228.557 271.6C239.156 211.54 216.884 152.46 180.634 109.76C152.372 76.4395 113.818 52.0795 79.8726 26.3195C62.2086 13.0195 44.391 -0.980487 28.5702 -16.2405C13.3638 -30.9405 -1.07458 -47.3205 -11.9802 -65.5205C-27.6474 -91.9805 -42.8538 -140.281 -17.049 -167.021" stroke="#272F37" stroke-miterlimit="10"/>
<path d="M805.019 866.6C740.353 812.56 671.694 773.22 596.43 751.1C509.953 725.62 419.022 719.18 332.545 687.82C302.286 676.9 270.644 662.9 244.532 642.18C191.847 600.46 155.598 532.84 175.412 458.36C176.026 456.12 176.487 453.88 177.255 451.64C194.305 396.62 226.1 346.08 240.231 289.52C241.767 283.36 242.842 276.5 243.61 269.92C251.751 209.3 226.714 150.92 189.85 109.48C160.974 77.1397 122.574 53.4797 88.4745 28.2797C70.8105 15.2597 52.9929 1.53969 37.1721 -13.4403C21.9657 -27.8603 7.52729 -43.9603 -3.37831 -62.0203C-19.1991 -88.2003 -34.7127 -135.94 -9.36875 -162.82" stroke="#272F37" stroke-miterlimit="10"/>
<path d="M825.139 861.98C764.007 805.14 695.655 767.48 622.234 746.34C536.218 721.56 446.055 715.96 359.885 685.72C329.779 675.08 298.291 661.5 272.179 641.34C219.648 600.6 180.941 534.1 197.683 458.64C198.144 456.4 198.605 454.02 199.219 451.92C213.965 396.34 244.224 344.68 255.898 287.98C257.127 281.68 257.895 274.82 258.509 268.24C264.039 207.06 236.544 149.66 198.759 109.34C169.421 77.9799 131.021 55.0199 96.9219 30.3799C79.2579 17.6399 61.4403 4.19987 45.6195 -10.5001C30.4131 -24.6401 15.9747 -40.4601 4.91549 -58.3801C-10.9053 -84.2801 -26.8797 -131.6 -1.99651 -158.62" stroke="#272F37" stroke-miterlimit="10"/>
<path d="M845.261 857.08C788.122 797.44 719.463 761.32 647.885 741.02C562.637 716.8 471.706 713.02 387.226 682.92C356.967 672.14 326.247 658.84 299.828 639.8C247.604 602 206.285 534.52 220.109 458.5C220.57 456.26 220.877 453.88 221.338 451.78C233.933 395.78 262.349 343.14 271.719 286.02C272.794 279.72 273.255 272.86 273.562 266.28C276.634 204.68 246.528 148.26 207.975 109.06C178.176 78.5396 139.93 56.4196 105.677 32.3396C88.0132 20.0196 70.1956 6.85958 54.3748 -7.56042C39.1684 -21.4204 24.73 -37.1004 13.6708 -54.7404C-2.30362 -80.3604 -18.5852 -127.12 5.68361 -154.42" stroke="#272F37" stroke-miterlimit="10"/>
<path d="M865.229 851.9C812.391 789.46 742.964 754.74 673.229 735.28C588.442 711.62 498.279 708.82 414.106 679.7C384.001 669.2 353.434 656.32 327.015 637.7C274.484 600.74 231.322 534.38 242.074 457.8C242.381 455.56 242.689 453.18 243.149 450.94C253.594 394.66 280.167 340.9 287.233 283.64C288.001 277.34 288.154 270.34 288.308 263.76C288.922 201.74 256.205 146.44 217.037 108.22C186.625 78.6796 148.532 57.3996 114.279 33.7396C96.615 21.5596 78.7974 8.8196 62.9766 -5.3204C47.7702 -19.0404 33.3318 -34.3004 22.2726 -51.8004C6.14458 -77.1404 -10.4442 -123.34 13.3638 -150.92" stroke="#272F37" stroke-miterlimit="10"/>
<path d="M885.197 846.439C837.121 781.059 766.311 747.599 698.574 729.119C614.401 706.159 524.852 704.199 441.14 676.059C411.341 665.979 380.775 653.799 354.356 635.319C301.21 598.079 256.513 533.959 264.193 456.959C264.346 454.719 264.654 452.339 264.961 450.099C273.255 393.539 297.985 338.659 302.9 281.259C303.514 274.959 303.361 267.959 303.053 261.379C301.057 199.079 266.343 144.899 225.946 107.659C194.919 79.0995 157.133 58.5195 122.727 35.4195C105.063 23.6595 87.2455 11.1995 71.4247 -2.80052C56.2183 -16.2405 41.7799 -31.3605 30.567 -48.5805C14.439 -73.6405 -2.61054 -119.28 20.7367 -147" stroke="#272F37" stroke-miterlimit="10"/>
<path d="M905.165 840.84C862.157 772.66 789.658 740.18 723.917 722.68C640.359 700.28 551.271 699.159 468.019 671.999C438.375 662.339 408.115 650.44 381.543 632.38C328.09 595.98 281.549 533.12 286.311 455.84C286.464 453.599 286.618 451.219 286.771 448.979C292.915 392.139 315.802 336.419 318.413 278.879C318.72 272.439 318.259 265.579 317.799 258.859C313.191 196.419 276.173 143.219 235.008 107.099C203.674 79.5194 165.735 59.6394 131.328 37.2394C113.664 25.7594 95.8466 13.5794 80.0258 -0.140569C64.8194 -13.3006 51.4562 -28.0006 39.1682 -45.2206C21.5042 -70.1406 6.605 -116.341 28.4162 -143.081" stroke="#272F37" stroke-miterlimit="10"/>
<path d="M924.98 834.82C887.348 763.98 812.545 732.34 749.108 715.54C666.01 693.7 577.69 693.56 494.746 667.24C465.255 657.86 435.15 646.38 408.577 628.74C354.817 593.18 306.586 531.44 308.276 454.02C308.276 451.78 308.276 449.26 308.43 447.02C312.423 390.04 333.466 333.34 333.927 275.8C333.927 269.36 333.313 262.5 332.545 255.78C325.479 193.2 286.158 141.26 244.071 105.98C212.276 79.3799 174.49 60.1999 139.93 38.3599C122.266 27.1599 104.449 15.2599 88.6281 1.95991C73.4217 -10.9201 60.0585 -25.4801 47.7705 -42.4201C30.1065 -66.9201 14.7465 -112.7 36.0969 -139.58" stroke="#272F37" stroke-miterlimit="10"/>
<path d="M944.64 828.66C912.691 755.3 835.431 724.08 773.991 708.12C691.507 686.7 603.648 687.4 521.165 662.06C491.827 652.96 461.875 641.76 435.303 624.68C381.235 589.82 331.162 529.48 329.933 452.06C329.933 449.82 329.779 447.3 329.933 445.06C331.776 387.94 350.976 330.26 349.133 272.86C348.979 266.42 348.058 259.56 346.983 252.84C337.459 190.26 295.987 139.58 252.979 105.28C220.723 79.6597 183.091 61.3197 148.378 39.8997C130.714 28.9797 112.896 17.4997 97.0754 4.33969C81.869 -8.26031 68.5058 -22.5403 56.2178 -39.3403C38.4002 -63.5603 22.8865 -108.78 43.6225 -135.8" stroke="#272F37" stroke-miterlimit="10"/>
<path d="M963.841 822.5C937.575 746.9 857.857 715.68 798.413 700.56C716.391 679.7 628.685 680.26 547.124 656.6C518.093 648.2 488.141 636.86 461.569 620.34C407.194 586.32 355.431 527.1 351.284 449.82C351.13 447.44 350.977 445.06 350.977 442.82C350.669 385.7 368.026 327.04 364.033 269.78C363.572 263.34 362.343 256.48 361.114 249.76C348.98 187.18 305.204 136.78 261.581 104.44C229.172 80.3596 191.386 62.0196 156.673 41.2996C139.162 30.7996 121.191 19.4596 105.37 6.57957C90.1637 -5.74043 76.8005 -19.8804 64.5125 -36.5404C46.6949 -60.4804 30.7206 -105.14 50.9958 -132.44" stroke="#272F37" stroke-miterlimit="10"/>
<path d="M982.733 816.06C962.458 738.36 880.128 707 822.375 692.44C740.967 672 653.722 673.4 572.621 650.58C543.744 642.46 513.946 631.54 487.373 615.3C432.538 581.98 379.239 524.16 372.173 447.02C372.02 444.64 371.712 442.26 371.559 440.02C369.101 382.9 384.615 323.4 378.624 266.28C378.01 259.84 376.474 252.98 374.938 246.26C360.346 183.82 314.573 134.68 269.876 103.18C237.159 80.0798 199.373 62.4398 164.66 42.2798C147.149 32.0598 129.178 20.9998 113.357 8.39979C98.7653 -3.22021 84.1733 -17.3602 72.4997 -34.0202C54.9893 -58.6602 38.2468 -101.78 58.2148 -129.22" stroke="#272F37" stroke-miterlimit="10"/>
<path d="M1001.32 809.619C986.88 730.099 902.4 698.179 846.029 684.179C765.082 664.159 678.298 666.399 597.811 644.279C569.088 636.439 539.443 625.659 512.87 609.979C457.574 577.359 402.739 520.799 392.909 444.079C392.602 441.699 392.295 439.319 392.141 437.079C387.687 379.959 401.357 319.759 393.062 262.779C392.141 256.339 390.451 249.479 388.608 242.899C371.559 180.739 323.789 132.859 278.17 102.199C245.146 80.0793 207.36 62.9993 172.646 43.5393C155.136 33.7393 137.318 22.8193 121.498 10.4993C106.906 -0.840723 92.3137 -14.8407 80.6401 -31.2207C63.1297 -55.5807 46.0801 -98.1407 65.4337 -125.721" stroke="#272F37" stroke-miterlimit="10"/>
<path d="M1019.6 803.04C1011 721.84 924.519 689.22 869.223 675.64C788.89 656.04 703.181 659.82 622.541 637.56C593.818 629.72 564.48 619.5 538.061 604.24C482.458 572.32 426.087 517.159 413.338 440.719C412.877 438.339 412.57 435.959 412.263 433.719C405.812 376.739 417.485 315.7 407.194 259C405.965 252.56 404.122 245.699 401.972 239.119C382.618 177.239 332.852 130.619 286.311 100.939C252.98 79.6595 215.194 63.4195 180.48 44.5195C162.97 34.9995 145.152 24.4995 129.332 12.3195C114.74 1.11951 100.148 -12.6005 88.4739 -28.7005C70.9635 -52.6405 53.4532 -94.7805 72.4996 -122.5" stroke="#272F37" stroke-miterlimit="10"/>
<path d="M1037.57 796.18C1034.65 713.44 946.791 679.84 892.263 666.68C812.391 647.36 727.297 651.84 647.118 630.42C618.548 622.72 589.518 612.92 562.945 598.08C506.881 566.86 448.974 513.1 433.614 437.22C433.153 434.98 432.539 432.46 432.231 430.22C423.783 373.38 433.46 311.64 421.172 255.22C419.79 248.78 417.639 242.06 415.182 235.48C393.217 174.86 342.99 128.1 294.145 99.8197C259.739 79.7997 222.721 63.9797 188.007 45.6397C170.497 36.3997 152.679 26.1797 136.859 14.2797C122.267 3.35971 106.907 -10.0803 96.001 -26.1803C78.1834 -52.5003 61.7482 -87.2203 79.2586 -119.28" stroke="#272F37" stroke-miterlimit="10"/>
<path d="M1055.39 789.32C1058 705.18 969.216 670.32 914.842 657.44C835.431 638.54 750.797 643.72 671.079 623C642.663 615.58 613.786 606.06 587.213 591.64C530.535 560.98 471.399 508.76 453.274 433.44C452.659 431.2 452.045 428.68 451.738 426.44C441.293 369.74 448.973 307.3 434.688 251.3C432.999 244.86 430.541 238.14 427.93 231.56C403.661 171.22 351.591 125.86 301.671 98.56C266.957 79.52 229.939 64.4 195.226 46.62C177.715 37.66 160.051 27.7199 144.231 16.0999C129.792 5.45993 114.279 -7.84006 103.373 -23.6601C85.4018 -49.7001 68.813 -84.0001 85.709 -116.06" stroke="#272F37" stroke-miterlimit="10"/>
<path d="M1072.9 782.18C1080.73 696.78 991.795 660.66 937.267 647.78C858.317 629.16 774.298 635.04 694.886 615.02C666.624 607.88 637.901 598.5 611.328 584.64C554.189 554.68 493.517 503.86 472.781 429.24C472.166 427 471.398 424.62 470.938 422.24C458.496 365.82 464.333 302.68 447.898 247.1C446.054 240.66 443.29 233.94 440.525 227.5C413.338 166.32 359.731 124.6 309.197 97.1596C275.098 78.6796 237.312 64.5396 202.598 47.3196C185.242 38.6396 167.424 28.9796 151.603 17.4996C137.165 6.9996 121.805 -5.88038 110.746 -21.7004C92.7744 -47.3204 75.8784 -81.2004 92.3136 -113.4" stroke="#272F37" stroke-miterlimit="10"/>
<path d="M1090.41 775.04C1103.31 688.52 1014.53 650.86 959.54 637.98C881.05 619.64 797.338 626.22 718.695 606.76C630.375 584.92 518.862 527.24 490.292 417.76C473.857 355.04 480.154 282.66 453.274 223.3C426.394 163.8 368.334 122.22 316.878 95.7601C265.575 69.4401 206.286 52.64 159.13 19.18C126.721 -3.91995 72.9608 -60.06 99.0728 -110.46" stroke="#272F37" stroke-miterlimit="10"/>
<path d="M1094.71 773.36C1110.07 702.8 1043.71 660.8 997.478 643.72C987.648 640.08 976.742 637.28 965.529 634.76C896.256 619.5 825.293 619.92 756.173 607.6C746.035 605.78 735.897 603.68 726.374 601.16C648.806 580.58 561.561 536.06 520.243 447.16C514.56 434.84 509.798 422.1 507.033 409.64C496.128 360.08 499.046 305.06 488.294 255.36C485.376 241.92 480.307 227.92 474.009 214.62C465.254 196.14 453.273 180.18 440.678 165.62C411.494 131.74 373.094 107.38 335.616 89.1801C294.297 69.1601 248.832 54.8801 207.206 34.1601C196.761 28.9801 186.317 22.8201 176.486 16.2401C158.515 4.20007 141.773 -11.8999 128.409 -30.0999C111.974 -52.6399 101.837 -86.5199 115.046 -112.42" stroke="#272F37" stroke-miterlimit="10"/>
<path d="M1099.01 771.82C1117.13 700.98 1049.7 657.86 1003.32 640.64C993.485 637 982.579 634.06 971.367 631.54C902.554 616 832.051 615.72 763.392 602.42C753.408 600.46 743.424 598.22 734.054 595.56C658.176 574 572.775 528.22 535.296 438.9C530.074 426.58 525.926 413.7 523.622 401.24C514.406 351.26 518.554 296.24 508.416 246.4C505.651 232.82 500.736 218.82 494.438 205.52C485.837 186.9 473.702 170.94 461.107 156.66C431.616 122.92 392.294 99.6796 354.355 82.4596C312.576 63.5596 267.111 50.2596 225.024 30.5196C214.426 25.4796 203.981 19.7396 193.997 13.4396C175.719 1.81961 158.669 -13.8604 144.998 -31.9204C128.102 -54.3204 117.811 -88.3404 131.174 -114.38" stroke="#272F37" stroke-miterlimit="10"/>
<path d="M1103.46 770.139C1124.2 699.159 1055.85 654.919 1009.46 637.559C999.629 633.919 988.57 630.979 977.357 628.319C909.005 612.639 839.271 612.219 770.765 597.099C760.935 594.859 751.104 592.619 741.888 589.819C667.699 567.139 584.141 519.959 550.349 430.359C545.587 417.899 541.901 405.019 540.058 392.419C532.531 341.879 537.907 287.139 528.231 236.879C525.619 223.299 520.704 209.159 514.56 195.859C505.959 177.239 493.824 161.279 481.075 146.999C451.584 113.959 411.187 90.7195 372.787 75.0395C330.086 57.5395 284.928 44.9395 242.535 26.3195C231.783 21.5595 221.184 15.9595 211.2 9.93947C192.615 -1.26053 175.258 -16.6605 161.28 -34.4405C143.923 -56.5605 133.478 -90.8605 146.995 -117.041" stroke="#272F37" stroke-miterlimit="10"/>
<path d="M1107.92 768.6C1131.42 697.34 1062.14 652.12 1015.6 634.48C1005.77 630.7 994.714 627.76 983.502 625.1C915.457 609.14 846.183 608.02 778.138 591.92C768.462 589.54 758.785 587.16 749.722 584.22C676.916 560.56 595.508 511.84 565.249 421.82C561.102 409.36 557.876 396.34 556.34 383.74C550.503 332.78 557.108 277.9 548.046 227.36C545.588 213.78 540.826 199.5 534.682 186.06C526.081 167.3 513.793 151.34 501.044 137.2C471.246 104.44 429.927 82.3197 391.066 67.4797C348.058 50.9597 302.746 39.6197 260.046 21.8397C249.294 17.3597 238.542 12.0397 228.404 6.1597C209.665 -4.6203 190.465 -19.1803 177.562 -37.2403C161.127 -60.2003 147.764 -90.8603 162.663 -119.84" stroke="#272F37" stroke-miterlimit="10"/>
<path d="M1112.22 766.92C1138.33 695.66 1068.29 649.18 1021.44 631.4C1011.61 627.62 1000.55 624.68 989.338 622.02C921.754 605.78 852.788 603.96 785.204 586.74C775.681 584.22 766.157 581.7 757.095 578.62C685.671 553.84 606.26 503.44 579.687 413.14C576.001 400.54 573.236 387.38 572.314 374.78C568.013 323.26 575.847 268.52 567.399 217.42C565.095 203.7 560.333 189.42 554.343 175.98C545.895 157.08 533.453 141.26 520.551 127.26C490.292 94.6397 448.359 73.6397 409.037 59.7797C365.722 44.3797 320.257 34.0197 277.249 17.3597C266.497 13.1597 255.591 7.97972 245.3 2.37972C226.253 -7.98028 206.746 -22.1203 193.69 -40.0403C176.948 -62.7203 163.277 -93.6603 178.33 -122.78" stroke="#272F37" stroke-miterlimit="10"/>
<path d="M1116.67 765.38C1145.4 693.98 1074.74 646.38 1027.58 628.32C1017.6 624.54 1006.54 621.32 995.482 618.8C928.666 602.98 859.239 598.92 792.576 581.42C783.207 578.9 773.683 576.1 764.928 572.88C694.733 546.84 617.472 494.9 594.432 404.18C591.207 391.44 589.056 378.28 588.442 365.54C585.831 313.46 594.893 258.72 586.752 207.06C584.602 193.34 579.84 178.78 573.85 165.34C565.402 146.3 552.96 130.48 539.904 116.62C509.338 84.2799 466.483 64.3999 427.008 51.5199C383.386 37.2399 337.767 27.8599 294.605 12.1799C283.699 8.25987 272.794 3.35986 262.349 -1.96014C243.149 -11.9001 223.335 -25.4801 209.818 -43.2601C192.768 -65.6601 178.637 -96.7401 193.997 -126.14" stroke="#272F37" stroke-miterlimit="10"/>
<path d="M1120.97 763.699C1142.32 687.959 1089.02 646.379 1033.42 625.099C1023.44 621.319 1012.38 618.099 1001.32 615.439C934.964 599.339 865.69 594.579 799.642 575.959C790.426 573.299 781.057 570.359 772.455 566.999C703.182 539.699 628.225 485.939 608.871 395.079C606.106 382.199 604.417 368.899 604.11 356.019C603.188 303.379 613.172 248.639 605.646 196.419C603.649 182.559 599.041 167.999 593.05 154.419C584.602 135.379 572.161 119.419 558.951 105.699C528.078 73.6394 484.455 54.8794 444.519 42.9794C400.59 29.8194 354.817 21.5594 311.348 6.85939C300.442 3.21939 289.383 -1.40061 278.785 -6.58061C259.431 -16.1006 239.156 -29.2606 225.486 -46.7606C208.129 -69.0206 193.69 -100.241 209.05 -129.641" stroke="#272F37" stroke-miterlimit="10"/>
<path d="M1125.27 762.02C1148.77 686 1095.48 643.58 1039.26 621.88C1029.27 618.1 1018.21 614.88 1007.16 612.08C941.107 595.7 872.295 590.24 806.707 570.5C797.491 567.7 788.429 564.62 779.981 561.12C711.629 532.56 639.13 476.7 623.155 385.7C620.851 372.68 619.623 359.38 619.776 346.36C620.544 293.16 631.603 238.42 624.384 185.36C622.541 171.36 617.933 156.66 611.943 143.22C603.648 124.04 590.899 108.22 577.536 94.6397C546.355 62.8597 501.965 45.3597 461.722 34.2997C417.639 22.2597 371.712 14.9797 327.936 1.39972C316.877 -1.96028 305.818 -6.44028 295.219 -11.2003C275.559 -20.3003 254.976 -33.0403 241.152 -50.2603C223.488 -72.2403 208.743 -103.6 224.256 -133.28" stroke="#272F37" stroke-miterlimit="10"/>
<path d="M1129.57 760.34C1155.23 684.04 1102.08 640.779 1045.25 618.659C1035.26 614.739 1024.21 611.52 1013.15 608.72C947.405 592.06 878.899 585.9 813.927 565.04C804.864 562.1 795.802 558.879 787.507 555.099C719.923 525.139 649.882 467.32 637.287 376.18C635.443 363.02 634.675 349.58 635.29 336.42C637.594 282.66 649.728 227.78 642.97 174.02C641.127 160.02 636.672 145.18 630.835 131.6C622.541 112.28 609.792 96.4595 596.275 83.0195C564.787 51.5195 519.629 35.1395 479.079 25.1995C434.688 14.2795 388.762 8.11953 344.832 -4.48047C333.773 -7.70047 322.56 -11.7605 311.808 -16.3805C291.994 -24.9205 271.104 -37.2405 256.973 -54.4605C239.002 -76.1605 223.795 -107.8 239.463 -137.48" stroke="#272F37" stroke-miterlimit="10"/>
<path d="M1133.88 758.66C1169.66 685.58 1102.69 635.46 1051.08 615.3C1041.1 611.38 1030.04 608.16 1018.98 605.22C953.549 588.28 885.351 581.42 820.839 559.44C811.93 556.36 803.021 552.86 794.88 549.08C727.911 517.58 660.48 457.66 651.111 366.38C649.728 353.08 649.421 339.36 650.343 326.2C654.183 271.74 667.392 216.72 660.941 162.26C659.252 148.12 654.797 133.14 648.96 119.42C640.666 99.9596 627.763 84.1396 614.247 70.8396C582.298 39.6196 536.525 24.4996 495.821 15.3996C451.277 5.59956 405.197 0.559581 361.114 -10.9204C350.055 -13.8604 338.688 -17.6404 327.936 -21.9804C307.968 -30.1004 286.772 -42.0004 272.333 -58.8004C254.055 -80.2204 238.541 -112 254.362 -141.96" stroke="#272F37" stroke-miterlimit="10"/>
<path d="M1138.18 756.98C1168.74 680.26 1115.29 635.04 1056.92 612.08C1046.94 608.16 1035.88 604.8 1024.82 601.86C960 584.78 891.956 578.06 827.751 553.98C818.996 550.62 810.24 547.12 802.253 543.2C736.973 510.58 670.464 447.02 664.935 356.72C664.167 343.42 664.167 329.42 665.549 315.98C670.925 261.1 685.364 205.8 679.066 150.36C677.53 136.08 673.076 120.96 667.239 107.24C658.944 87.6399 646.042 71.8199 632.218 58.6599C599.962 27.7199 553.575 13.7199 512.564 5.87991C467.866 -2.80009 421.786 -6.72009 377.396 -17.2201C366.183 -19.8801 354.816 -23.3801 344.064 -27.5801C323.943 -35.2801 302.439 -46.6201 287.693 -63.2801C269.108 -84.4201 253.287 -116.34 269.108 -146.58" stroke="#272F37" stroke-miterlimit="10"/>
<path d="M1142.48 755.3C1175.04 678.3 1122.05 632.24 1062.76 608.86C1052.77 604.94 1041.72 601.58 1030.5 598.5C965.99 581.14 898.099 573.72 834.509 548.38C825.754 544.88 817.152 541.24 809.318 537.18C744.345 502.88 680.909 437.08 678.297 346.78C677.99 333.34 678.451 319.2 680.141 305.62C687.053 250.18 702.413 194.46 696.422 138.32C694.886 123.9 690.586 108.64 684.749 94.9198C676.454 75.3198 663.398 59.4998 649.574 46.3398C617.011 15.6798 569.856 2.9398 528.691 -3.9202C483.84 -11.4802 437.76 -14.4202 393.216 -23.8002C382.003 -26.1802 370.483 -29.4002 359.578 -33.3202C339.149 -40.6002 317.491 -51.3802 302.438 -67.9002C283.545 -88.7602 267.264 -120.82 283.238 -151.2" stroke="#272F37" stroke-miterlimit="10"/>
<path d="M1146.78 753.62C1181.34 676.48 1128.81 629.44 1068.6 605.5C1058.46 601.58 1047.4 598.08 1036.34 595.14C972.135 577.5 904.551 569.38 841.575 542.92C832.973 539.28 824.525 535.5 816.845 531.16C752.18 495.18 691.815 427 692.122 336.7C692.122 322.98 693.197 308.7 695.194 294.98C703.488 238.98 719.77 182.84 714.24 125.72C712.858 111.16 708.404 95.8999 702.72 82.0399C694.426 62.2999 681.216 46.4799 667.239 33.5999C634.368 3.35989 586.599 -8.12009 545.28 -14.0001C500.276 -20.4401 454.196 -22.2601 409.498 -30.5201C398.285 -32.6201 386.765 -35.7001 375.706 -39.3401C355.124 -46.0601 333.159 -56.5601 317.952 -72.6601C298.752 -93.2401 282.164 -125.44 298.292 -156.1" stroke="#272F37" stroke-miterlimit="10"/>
<path d="M1151.08 751.799C1187.48 674.379 1135.57 626.499 1074.43 602.139C1064.3 598.079 1053.24 594.719 1042.18 591.639C978.279 573.719 910.849 565.039 848.333 537.179C839.885 533.399 831.437 529.479 823.911 524.999C759.399 487.059 702.26 416.639 705.178 326.479C705.639 312.619 707.021 298.199 709.479 284.199C719.156 227.639 736.359 171.079 731.137 112.979C729.754 98.2795 725.453 82.8795 719.617 68.8795C711.322 48.9995 698.113 33.1795 683.828 20.4395C650.65 -9.52055 602.266 -19.7405 560.794 -24.6405C515.789 -29.9605 469.556 -30.6605 424.705 -37.9405C413.492 -39.7605 401.818 -42.5605 390.759 -45.9205C370.023 -52.2205 349.441 -62.1605 332.391 -78.1205C312.423 -96.7405 294.913 -135.241 312.116 -161.561" stroke="#272F37" stroke-miterlimit="10"/>
<path d="M1155.23 750.259C1193.47 672.699 1142.32 623.839 1080.12 598.919C1069.98 594.859 1058.92 591.359 1047.86 588.279C984.269 570.079 916.839 560.699 855.091 531.719C846.797 527.799 838.503 523.599 830.976 519.119C766.618 479.219 712.704 406.419 718.234 316.399C719.155 302.259 720.845 287.699 723.61 273.419C734.669 216.299 752.794 159.179 747.879 100.239C746.65 85.3994 742.81 69.0194 736.512 55.8594C726.989 35.4194 716.391 21.4194 700.57 7.41942C667.085 -22.2606 618.087 -31.0806 576.461 -35.0006C531.303 -39.2006 485.223 -38.7806 440.218 -44.9406C428.851 -46.4806 417.331 -49.0006 406.119 -52.0806C385.383 -57.9606 364.493 -67.4806 347.136 -83.0206C326.861 -101.221 309.043 -140.001 326.247 -166.601" stroke="#272F37" stroke-miterlimit="10"/>
<path d="M1159.53 748.44C1199.62 670.6 1149.24 620.9 1085.95 595.42C1075.81 591.36 1064.76 587.86 1053.7 584.64C990.413 566.16 923.136 556.08 862.003 525.84C853.709 521.78 845.568 517.44 838.349 512.68C774.144 470.82 723.61 395.64 731.597 305.48C732.826 291.2 735.13 276.36 738.202 261.94C750.643 204.12 769.69 146.58 764.928 86.5195C763.699 71.5395 759.859 55.0195 753.715 41.7195C744.038 21.1395 733.44 7.13953 717.466 -6.72047C683.674 -35.9805 634.061 -43.6805 592.282 -46.3405C547.123 -49.2805 501.043 -47.8805 455.885 -52.9205C444.518 -54.1805 432.845 -56.4205 421.632 -59.2205C400.742 -64.5405 379.545 -73.6405 362.035 -88.9005C341.453 -106.82 323.328 -145.74 340.531 -172.48" stroke="#272F37" stroke-miterlimit="10"/>
<path d="M1163.83 746.62C1206.07 669.34 1155.69 617.68 1091.79 591.92C1081.65 587.86 1070.59 584.22 1059.53 581C996.557 562.38 929.28 551.46 868.762 519.96C860.621 515.76 852.634 511.28 845.415 506.38C777.677 460.04 736.666 385.28 744.346 294.84C745.575 280.42 748.647 265.3 752.026 250.6C765.696 192.22 785.664 133.98 781.21 72.9397C780.135 57.8197 776.295 41.1597 769.997 27.7197C760.32 6.99974 749.722 -6.86026 733.44 -20.7203C699.341 -49.7003 649.267 -56.0003 607.335 -57.6803C562.023 -59.5003 516.096 -56.9803 470.938 -61.0403C459.571 -62.0203 447.898 -63.9803 436.531 -66.6403C415.488 -71.5403 394.138 -80.0803 376.32 -95.0603C355.431 -112.7 336.845 -151.9 354.355 -178.78" stroke="#272F37" stroke-miterlimit="10"/>
<path d="M1168.13 744.94C1212.06 667.52 1162.6 614.74 1097.63 588.56C1026.05 559.72 944.333 553.42 875.52 514.36C799.181 470.96 742.196 385.28 757.095 284.06C768 210.84 804.557 137.48 797.338 59.0798C793.959 22.6798 776.602 -14.8402 749.261 -34.8602C711.936 -62.1602 664.32 -68.4602 622.388 -69.0202C577.076 -69.7202 531.303 -66.2202 485.991 -69.0202C454.503 -70.9802 417.792 -78.2602 390.759 -100.94C369.716 -118.58 350.669 -157.64 368.18 -184.66" stroke="#272F37" stroke-miterlimit="10"/>
<path d="M1180.88 746.9C1224.96 668.22 1181.18 611.52 1113.29 582.26C1097.01 575.26 1079.5 570.08 1062.6 565.18C1016.37 551.74 968.141 541.94 922.829 522.2C910.387 516.74 898.099 510.72 887.655 503.86C854.938 482.44 823.143 452.34 806.4 411.74C786.279 362.74 783.821 314.3 790.119 262.22C798.72 190.82 834.816 118.44 824.371 45.7798C818.995 8.67978 804.096 -20.3002 777.37 -43.2602C742.349 -73.5002 690.125 -79.5202 647.731 -80.2202C604.57 -80.9202 560.487 -76.7202 517.171 -78.8202C486.912 -80.2202 451.891 -86.6602 425.165 -107.38C404.89 -123.06 384.307 -158.9 398.592 -186.2" stroke="#272F37" stroke-miterlimit="10"/>
<path d="M1190.4 750.68C1234.79 670.88 1196.7 609.98 1126.04 577.5C1109.61 569.94 1091.64 564.48 1074.59 559.3C1027.43 545.44 977.357 536.2 931.431 514.5C918.989 508.62 907.008 502.04 897.024 494.62C865.844 471.24 837.428 438.2 825.293 396.06C810.394 344.12 812.391 292.46 819.917 240.52C829.594 174.86 857.396 102.34 848.794 33.0397C844.493 -1.54028 826.215 -31.2203 803.328 -51.3803C767.54 -82.7403 714.24 -90.4403 670.925 -91.2803C629.607 -92.1203 587.52 -87.5003 546.048 -89.0403C516.864 -90.1603 483.38 -96.6003 457.421 -114.52C436.532 -128.94 418.714 -160.44 427.162 -188.3" stroke="#272F37" stroke-miterlimit="10"/>
<path d="M1189.94 759.64C1233.87 681.94 1204.07 610.68 1129.58 577.5C1112.37 569.94 1094.86 563.36 1077.35 558.04C1028.97 543.2 977.358 533.54 930.97 510.44C918.682 504.28 906.855 496.72 897.486 488.6C867.687 462.7 842.958 426.58 835.585 382.9C826.369 328.3 833.127 274.4 841.729 221.06C852.174 155.82 873.831 90.8597 866.612 22.8197C863.233 -8.54032 845.262 -38.5003 822.99 -57.2603C784.59 -89.8803 732.212 -99.6803 687.668 -100.8C648.346 -101.78 607.335 -96.8803 568.321 -98.8403C539.598 -100.24 510.107 -105.28 483.073 -122.08C462.491 -134.82 444.366 -163.52 449.742 -190.82" stroke="#272F37" stroke-miterlimit="10"/>
<path d="M1189.48 768.599C1234.02 690.339 1209.75 613.899 1133.11 577.499C1115.75 569.239 1098.09 562.519 1079.96 556.639C1030.66 540.679 977.511 532.699 930.355 506.379C917.914 499.519 906.394 491.399 897.639 482.719C867.072 452.339 850.791 415.379 845.415 369.879C838.81 314.439 853.402 255.639 862.618 201.319C872.909 141.259 896.256 72.9394 883.968 12.4594C877.517 -19.3206 864.461 -42.5606 842.496 -63.4206C806.093 -98.0006 749.875 -108.921 704.256 -110.461C666.624 -111.721 628.224 -107.941 590.285 -108.921C562.791 -109.621 533.914 -115.361 508.57 -130.061C488.909 -141.541 470.016 -167.161 472.32 -193.621" stroke="#272F37" stroke-miterlimit="10"/>
<path d="M1189.33 777.419C1236.17 695.52 1212.67 617.96 1136.95 577.36C1119.9 568.26 1101.31 561.12 1083.03 555.1C1033.11 538.86 977.664 530.6 930.202 502.04C917.914 494.62 906.548 485.94 898.253 476.42C868.916 442.96 855.86 402.08 855.399 356.44C854.938 298.62 872.909 239.12 883.508 180.74C894.26 121.1 911.924 58.2396 901.479 1.39959C896.103 -27.4404 882.586 -50.2604 862.157 -70.4204C824.679 -107.24 767.54 -118.3 720.692 -120.82C685.21 -122.78 648.193 -119 612.097 -119.98C585.831 -120.68 558.337 -125.86 533.761 -139.16C514.714 -149.38 495.668 -172.06 494.746 -197.4" stroke="#272F37" stroke-miterlimit="10"/>
<path d="M1189.32 785.96C1236.94 703.22 1218.36 620.76 1140.94 576.94C1123.74 567.14 1104.84 559.72 1086.26 553.42C1035.57 536.48 977.971 528.64 930.202 497.7C917.914 489.72 906.855 480.34 899.175 470.26C871.066 433.72 862.771 390.74 865.69 343C869.376 281.68 892.723 220.78 904.243 159.88C914.842 103.88 928.051 47.0397 919.143 -9.94025C914.842 -37.5203 899.789 -59.6402 881.971 -77.7002C844.339 -115.78 785.664 -128.38 737.28 -131.46C702.874 -133.56 668.16 -129.92 633.907 -131.46C608.87 -132.58 580.762 -136.08 558.951 -148.96C541.133 -159.46 521.779 -175.42 517.479 -201.74" stroke="#272F37" stroke-miterlimit="10"/>
<path d="M1189.94 794.36C1236.63 714 1228.49 622.86 1145.55 576.38C1127.58 566.3 1108.99 558.04 1090.1 551.6C1038.64 533.96 978.893 526.4 930.816 493.22C918.528 484.82 907.776 474.6 900.557 463.96C873.063 423.78 869.069 377.3 876.135 329.28C885.504 265.72 912.077 202.86 924.672 138.46C934.656 87.6399 947.098 32.0599 936.653 -21.8401C931.891 -46.7601 918.682 -69.1601 901.786 -85.6801C861.389 -125.02 802.867 -139.58 753.715 -142.52C721.306 -144.48 687.36 -141.68 655.258 -143.64C630.835 -145.04 606.72 -149.24 583.68 -159.46C565.863 -167.3 546.97 -184.24 539.904 -206.64" stroke="#272F37" stroke-miterlimit="10"/>
<path d="M1190.55 802.759C1237.86 721.699 1234.79 625.519 1150.16 575.819C1131.88 565.039 1113.29 556.779 1093.79 549.639C1040.79 530.459 979.968 524.299 931.277 488.739C918.989 479.779 908.544 468.859 901.785 457.659C875.673 413.979 875.981 364.699 886.425 315.559C900.403 249.199 931.123 184.519 944.793 116.759C954.777 67.3395 965.222 13.2994 954.317 -33.7405C948.633 -58.1005 938.496 -75.0405 921.907 -93.6605C884.275 -135.801 820.531 -149.941 770.304 -153.441C739.584 -155.541 707.328 -153.721 676.915 -155.681C654.182 -157.221 630.835 -160.441 608.563 -170.101C590.592 -177.941 572.774 -191.661 562.637 -211.541" stroke="#272F37" stroke-miterlimit="10"/>
<path d="M1191.17 811.16C1239.24 729.26 1241.7 631.12 1154.76 575.26C1136.64 563.64 1117.13 554.4 1097.63 547.82C1043.25 529.48 980.429 521.92 931.891 484.26C919.757 474.74 909.312 463.119 903.168 451.219C878.285 404.039 883.2 351.82 896.563 301.56C914.995 232.68 949.402 165.76 964.301 94.3595C973.517 50.1195 983.347 -2.38046 971.674 -46.4805C965.53 -69.5805 956.774 -85.1205 941.722 -102.76C903.475 -147.7 837.735 -160.72 786.432 -165.34C757.402 -168 727.143 -167.16 697.805 -169.12C676.147 -170.52 653.875 -174.02 632.832 -182.28C615.168 -189.14 597.504 -200.9 585.062 -217.98" stroke="#272F37" stroke-miterlimit="10"/>
<path d="M1191.63 819.56C1240.78 736.68 1247.54 633.92 1159.22 574.56C1140.94 562.24 1121.13 552.72 1101.31 545.86C1046.17 526.96 980.89 519.68 932.353 479.78C920.218 469.84 911.002 457.66 904.398 444.92C878.746 394.94 891.495 334.88 906.548 287.56C929.434 215.88 967.374 146.72 983.348 71.6795C992.41 28.9795 997.326 -14.7005 988.878 -59.3605C984.884 -79.9405 973.518 -97.4405 961.537 -112.001C923.598 -158.201 855.706 -172.061 802.407 -177.241C774.452 -180.041 746.343 -180.181 718.388 -182.701C697.652 -184.521 675.994 -187.321 656.641 -194.741C639.591 -201.321 621.927 -209.861 607.182 -224.561" stroke="#272F37" stroke-miterlimit="10"/>
<path d="M1192.09 827.96C1241.86 744.24 1253.68 636.86 1163.67 574C1145.24 561.12 1125.27 551.32 1104.85 544.04C1049.24 524.16 980.89 518.42 932.66 475.3C920.526 464.52 911.463 452.06 905.473 438.62C881.051 385 898.561 322 916.071 273.56C942.798 199.78 984.884 128.38 1001.63 48.7198C1009.77 10.0798 1014.84 -31.9202 1005.47 -72.5202C1001.63 -89.4602 991.642 -109.06 980.89 -121.66C939.572 -169.68 871.988 -183.82 817.767 -189.56C791.348 -192.36 764.468 -193.76 738.356 -196.84C718.695 -199.08 698.574 -202.3 679.988 -207.9C662.938 -213.08 645.274 -220.5 629.146 -231.7" stroke="#272F37" stroke-miterlimit="10"/>
<path d="M1208.22 828.38C1238.78 776.72 1264.74 711.62 1242.62 645.4C1222.35 584.78 1170.43 552.72 1122.2 534.66C1066.91 514.08 991.181 510.58 946.33 465.08C890.573 408.66 910.848 321.02 937.267 253.54C967.526 176.26 1011.3 100.8 1029.43 18.4797C1040.49 -31.3603 1044.02 -94.2203 1009.15 -138.46C968.294 -190.26 896.563 -200.62 841.574 -207.06C779.981 -214.2 718.694 -218.68 659.098 -242.76" stroke="#272F37" stroke-miterlimit="10"/>
<path d="M656.641 -250.041C717.005 -224.981 779.367 -220.921 841.268 -214.201C898.253 -208.041 967.68 -198.941 1014.22 -151.761C1055.69 -109.761 1059.69 -40.6005 1049.09 13.0195C1032.96 94.4995 989.953 169.96 960.308 246.54C939.725 299.6 916.685 372.259 946.945 430.08C951.86 439.32 958.464 448.42 966.605 455.98C1012.99 499.66 1081.65 506.24 1135.26 525.98C1165.06 536.9 1197.47 552.3 1221.43 577.08C1248 604.66 1264.13 634.9 1267.82 674.38C1272.42 723.24 1250.46 770.56 1227.57 810.88" stroke="#272F37" stroke-miterlimit="10"/>
<path d="M658.791 -259.28C719.924 -233.52 782.746 -229.74 845.722 -224.14C904.551 -218.96 976.129 -212.8 1024.05 -168.98C1070.59 -126.28 1084.88 -61.7403 1074.43 3.07976C1061.22 84.6998 1018.52 160.16 989.953 235.62C969.985 288.4 946.945 359.94 975.514 417.48C980.122 426.72 986.42 435.54 994.1 443.1C1038.03 486.36 1104.08 494.06 1155.84 512.82C1185.49 523.6 1217.28 538.02 1242.16 560.98C1269.81 586.46 1288.24 614.6 1292.7 653.38C1298.23 700.84 1276.88 748.44 1255.07 788.62" stroke="#272F37" stroke-miterlimit="10"/>
<path d="M662.17 -268.94C723.917 -242.62 787.354 -238.7 851.251 -235.06C911.616 -231.56 980.583 -225.26 1034.8 -187.46C1090.41 -148.82 1110.22 -75.3204 1101.01 -8.82041C1089.79 72.0996 1048.63 147.84 1020.98 222.74C1001.63 275.24 978.893 345.8 1005.77 403.2C1010.07 412.3 1015.91 421.12 1023.28 428.54C1064.6 471.38 1128.19 480.2 1178.11 497.98C1207.6 508.48 1238.94 522.2 1264.59 543.06C1293.16 566.3 1313.89 592.34 1319.42 630.28C1326.03 676.2 1304.99 724.36 1284.56 764.26" stroke="#272F37" stroke-miterlimit="10"/>
<path d="M665.089 -278.6C725.761 -248.92 793.191 -248.08 856.321 -245.7C918.375 -243.32 987.188 -240.1 1044.94 -205.8C1107.61 -168.56 1135.72 -95.4801 1127.12 -21.1401C1117.75 59.2199 1078.12 134.96 1051.39 209.3C1032.65 261.66 1010.07 331.1 1035.26 388.5C1039.26 397.6 1044.79 406.14 1051.55 413.7C1090.41 456.26 1151.39 466.2 1199.62 483.28C1228.95 493.64 1259.83 506.38 1286.25 525.28C1315.58 546.28 1338.78 570.08 1345.08 607.32C1352.6 651.7 1332.17 700.28 1312.82 739.9" stroke="#272F37" stroke-miterlimit="10"/>
<path d="M667.699 -288.12C728.986 -257.6 797.338 -257.32 861.082 -256.2C924.672 -255.08 993.792 -254.1 1054.62 -224C1123.58 -189.84 1160.76 -114.94 1152.92 -33.8801C1145.24 45.7799 1107.3 121.66 1081.5 195.3C1063.22 247.52 1040.79 315.84 1064.29 373.24C1067.98 382.2 1073.2 390.88 1079.5 398.3C1115.9 440.72 1174.27 451.92 1220.97 468.16C1250.15 478.38 1280.56 490.28 1307.6 507.08C1337.7 525.84 1363.05 547.12 1370.27 583.8C1378.71 626.64 1358.75 675.64 1340.62 714.84" stroke="#272F37" stroke-miterlimit="10"/>
<path d="M670.156 -297.5C731.903 -266.42 801.177 -266.7 865.689 -266.7C930.969 -266.7 1000.24 -268.38 1063.83 -242.2C1138.94 -211.4 1186.25 -133.7 1178.42 -47.18C1171.35 31.08 1136.33 106.68 1110.99 180.74C1093.17 232.96 1070.9 300.16 1092.56 357.7C1095.94 366.66 1100.7 375.2 1106.69 382.76C1140.48 425.46 1196.54 437.78 1241.39 453.46C1270.42 463.54 1300.38 474.6 1328.02 489.44C1358.59 505.82 1386.39 524.72 1394.53 560.56C1403.75 601.86 1384.4 651.28 1367.35 690.06" stroke="#272F37" stroke-miterlimit="10"/>
<path d="M672.307 -306.88C734.668 -274.96 804.863 -275.8 869.836 -277.06C936.499 -278.32 1006.54 -282.52 1072.59 -260.4C1153.54 -233.24 1210.21 -154.98 1203.46 -61.1804C1197.93 16.3796 1164.59 91.6996 1140.02 165.2C1122.51 217.56 1100.54 283.64 1120.36 341.18C1123.43 350.14 1127.88 358.68 1133.41 366.24C1164.75 409.08 1218.05 422.8 1261.52 437.92C1290.55 448 1320.04 458.08 1347.99 470.82C1373.18 482.3 1412.35 499.1 1418.03 536.34C1424.95 581.84 1409.13 625.38 1393.31 664.3" stroke="#272F37" stroke-miterlimit="10"/>
<path d="M674.305 -316.26C737.281 -283.64 808.397 -284.9 873.831 -287.42C941.876 -290.08 1012.69 -296.94 1080.88 -278.6C1167.67 -255.22 1232.49 -178.5 1228.34 -75.7403C1225.27 1.67972 1192.24 77.2797 1168.74 149.1C1151.69 201.46 1129.73 266.56 1147.85 324.38C1150.62 333.34 1154.77 341.88 1159.83 349.44C1188.56 392.28 1239.71 407.96 1281.49 422.38C1310.21 432.32 1339.55 441.7 1367.81 452.34C1392.69 461.72 1434.93 475.3 1441.23 512.12C1448.91 556.36 1433.55 600.04 1418.8 638.4" stroke="#272F37" stroke-miterlimit="10"/>
<path d="M676.147 -325.5C742.195 -294.98 809.779 -293.72 877.671 -297.64C946.944 -301.7 1020.06 -312.34 1088.87 -296.66C1179.19 -276.08 1255.37 -203 1252.92 -90.7205C1251.23 -14.0005 1219.74 61.1795 1197.01 132.44C1180.26 185.08 1158.61 249.06 1174.73 307.16C1177.19 316.12 1181.03 324.66 1185.64 332.36C1211.9 375.62 1260.6 392.84 1300.84 406.84C1329.1 416.64 1358.44 425.04 1387.01 433.86C1411.74 441.42 1456.59 451.499 1463.81 487.899C1472.26 530.879 1457.36 574.559 1443.69 612.499" stroke="#272F37" stroke-miterlimit="10"/>
<path d="M677.837 -334.74C744.499 -303.52 812.698 -302.68 881.357 -307.86C952.167 -313.32 1025.74 -327.04 1096.4 -314.86C1191.78 -298.62 1277.64 -225.54 1277.18 -106.54C1276.88 -30.6603 1247.08 44.3797 1224.96 114.8C1208.37 167.72 1187.02 230.72 1201.31 288.96C1203.46 297.92 1206.84 306.6 1211.14 314.3C1234.94 357.98 1280.87 376.74 1319.88 390.74C1347.84 400.68 1377.02 407.82 1405.9 414.68C1430.32 420.56 1477.94 427 1485.93 462.7C1495.14 504.14 1480.55 547.96 1467.96 585.48" stroke="#272F37" stroke-miterlimit="10"/>
<path d="M679.527 -344.12C744.347 -309.26 817.921 -311.92 884.891 -318.22C957.083 -325.08 1031.27 -341.88 1103.77 -333.34C1204.22 -321.44 1299.61 -249.62 1301.45 -123.2C1302.53 -48.3001 1274.11 26.4599 1252.76 96.3199C1236.48 149.52 1215.13 211.54 1227.73 270.2C1229.72 279.3 1232.64 287.84 1236.48 295.82C1257.83 340.06 1300.99 360.5 1338.93 374.36C1366.58 384.44 1395.76 390.32 1424.64 395.36C1448.6 399.56 1498.98 402.22 1507.59 437.36C1517.57 477.4 1503.44 521.36 1491.76 558.32" stroke="#272F37" stroke-miterlimit="10"/>
<path d="M681.062 -353.36C819.61 -279.86 970.598 -358.4 1110.84 -351.68C1212.67 -346.78 1324.03 -274.68 1325.41 -140.28C1326.18 -69.3003 1304.06 -1.82037 1284.56 62.9996C1267.51 119.42 1242.47 189.14 1253.68 251.16C1270.43 344.82 1378.56 368.62 1443.07 376.04C1467.96 378.84 1519.1 377.86 1528.93 411.88C1539.84 449.54 1525.71 494.48 1515.11 531.02" stroke="#272F37" stroke-miterlimit="10"/>
</g>
</g>
<rect width="1152" height="700" fill="url(#paint8_linear_167_1132)"/>
</g>
<defs>
<filter id="filter0_f_167_1132" x="-1101.24" y="-1253.2" width="2874.01" height="2825.71" filterUnits="userSpaceOnUse" color-interpolation-filters="sRGB">
<feFlood flood-opacity="0" result="BackgroundImageFix"/>
<feBlend mode="normal" in="SourceGraphic" in2="BackgroundImageFix" result="shape"/>
<feGaussianBlur stdDeviation="599.751" result="effect1_foregroundBlur_167_1132"/>
</filter>
<filter id="filter1_f_167_1132" x="-650.919" y="-363.123" width="1804.49" height="1734.43" filterUnits="userSpaceOnUse" color-interpolation-filters="sRGB">
<feFlood flood-opacity="0" result="BackgroundImageFix"/>
<feBlend mode="normal" in="SourceGraphic" in2="BackgroundImageFix" result="shape"/>
<feGaussianBlur stdDeviation="280.057" result="effect1_foregroundBlur_167_1132"/>
</filter>
<filter id="filter2_f_167_1132" x="-74.2715" y="-393.872" width="1454.46" height="1343.41" filterUnits="userSpaceOnUse" color-interpolation-filters="sRGB">
<feFlood flood-opacity="0" result="BackgroundImageFix"/>
<feBlend mode="normal" in="SourceGraphic" in2="BackgroundImageFix" result="shape"/>
<feGaussianBlur stdDeviation="90" result="effect1_foregroundBlur_167_1132"/>
</filter>
<filter id="filter3_f_167_1132" x="-42.2012" y="-234.418" width="1331.03" height="1244.18" filterUnits="userSpaceOnUse" color-interpolation-filters="sRGB">
<feFlood flood-opacity="0" result="BackgroundImageFix"/>
<feBlend mode="normal" in="SourceGraphic" in2="BackgroundImageFix" result="shape"/>
<feGaussianBlur stdDeviation="127.355" result="effect1_foregroundBlur_167_1132"/>
</filter>
<filter id="filter4_f_167_1132" x="-429.816" y="-391.057" width="1531.3" height="1429.49" filterUnits="userSpaceOnUse" color-interpolation-filters="sRGB">
<feFlood flood-opacity="0" result="BackgroundImageFix"/>
<feBlend mode="normal" in="SourceGraphic" in2="BackgroundImageFix" result="shape"/>
<feGaussianBlur stdDeviation="145.955" result="effect1_foregroundBlur_167_1132"/>
</filter>
<filter id="filter5_f_167_1132" x="-253.021" y="-396.461" width="1441.41" height="1360.02" filterUnits="userSpaceOnUse" color-interpolation-filters="sRGB">
<feFlood flood-opacity="0" result="BackgroundImageFix"/>
<feBlend mode="normal" in="SourceGraphic" in2="BackgroundImageFix" result="shape"/>
<feGaussianBlur stdDeviation="170.955" result="effect1_foregroundBlur_167_1132"/>
</filter>
<filter id="filter6_f_167_1132" x="285.564" y="-484.321" width="1176.18" height="1116.78" filterUnits="userSpaceOnUse" color-interpolation-filters="sRGB">
<feFlood flood-opacity="0" result="BackgroundImageFix"/>
<feBlend mode="normal" in="SourceGraphic" in2="BackgroundImageFix" result="shape"/>
<feGaussianBlur stdDeviation="146.265" result="effect1_foregroundBlur_167_1132"/>
</filter>
<filter id="filter7_f_167_1132" x="81.0474" y="-502.703" width="1178.91" height="1124.87" filterUnits="userSpaceOnUse" color-interpolation-filters="sRGB">
<feFlood flood-opacity="0" result="BackgroundImageFix"/>
<feBlend mode="normal" in="SourceGraphic" in2="BackgroundImageFix" result="shape"/>
<feGaussianBlur stdDeviation="163.51" result="effect1_foregroundBlur_167_1132"/>
</filter>
<radialGradient id="paint0_radial_167_1132" cx="0" cy="0" r="1" gradientUnits="userSpaceOnUse" gradientTransform="translate(427.472 203.357) rotate(-62.2061) scale(933.186 1003.61)">
<stop stop-color="#5AE9FD"/>
<stop offset="1" stop-color="#5AE9FD" stop-opacity="0"/>
</radialGradient>
<radialGradient id="paint1_radial_167_1132" cx="0" cy="0" r="1" gradientUnits="userSpaceOnUse" gradientTransform="translate(309.283 621.378) rotate(-26.3151) scale(315.808 296.087)">
<stop stop-color="#1B07FF"/>
<stop offset="1" stop-color="#FF9898"/>
</radialGradient>
<radialGradient id="paint2_radial_167_1132" cx="0" cy="0" r="1" gradientUnits="userSpaceOnUse" gradientTransform="translate(758.842 131.748) rotate(147.637) scale(694.182 665.534)">
<stop stop-color="#4BD4FF"/>
<stop offset="1" stop-color="#D04BFF" stop-opacity="0"/>
</radialGradient>
<radialGradient id="paint3_radial_167_1132" cx="0" cy="0" r="1" gradientUnits="userSpaceOnUse" gradientTransform="translate(581.573 535.947) rotate(7.75838) scale(385.501 345.253)">
<stop stop-color="#C7BEFF"/>
<stop offset="1" stop-color="#9BFFAB"/>
</radialGradient>
<radialGradient id="paint4_radial_167_1132" cx="0" cy="0" r="1" gradientUnits="userSpaceOnUse" gradientTransform="translate(636.102 240.759) rotate(82.9016) scale(410.312 500.044)">
<stop offset="0.447917" stop-color="#FF4D4D"/>
<stop offset="1" stop-color="#FF0000" stop-opacity="0"/>
</radialGradient>
<radialGradient id="paint5_radial_167_1132" cx="0" cy="0" r="1" gradientUnits="userSpaceOnUse" gradientTransform="translate(529.948 185.742) rotate(73.653) scale(254.072 231.707)">
<stop stop-color="#64FFFF"/>
<stop offset="0.572917" stop-color="#00FFC2" stop-opacity="0.58"/>
<stop offset="1" stop-color="#00FFC2" stop-opacity="0"/>
</radialGradient>
<radialGradient id="paint6_radial_167_1132" cx="0" cy="0" r="1" gradientUnits="userSpaceOnUse" gradientTransform="translate(784.833 -2.37747) rotate(132.019) scale(259.648 265.15)">
<stop offset="0.197917" stop-color="#FFD337"/>
<stop offset="1" stop-color="#FFFAE1" stop-opacity="0.42"/>
</radialGradient>
<radialGradient id="paint7_radial_167_1132" cx="0" cy="0" r="1" gradientUnits="userSpaceOnUse" gradientTransform="translate(670.502 59.7342) rotate(-153.024) scale(253.723 238.431)">
<stop stop-color="#7E5EFF"/>
<stop offset="1" stop-color="#CD03FF" stop-opacity="0.6"/>
</radialGradient>
<linearGradient id="paint8_linear_167_1132" x1="576" y1="0" x2="576" y2="700" gradientUnits="userSpaceOnUse">
<stop stop-color="white"/>
<stop offset="0.0001" stop-color="white" stop-opacity="0"/>
<stop offset="1" stop-color="white"/>
</linearGradient>
<clipPath id="clip0_167_1132">
<rect width="1152" height="700" fill="white"/>
</clipPath>
</defs>
</svg>
