<svg width="14" height="14" viewBox="0 0 14 14" fill="none" xmlns="http://www.w3.org/2000/svg">
<path d="M13.9502 5.0805C13.8897 4.89387 13.7755 4.72917 13.6221 4.60692C13.4686 4.48467 13.2825 4.41028 13.0871 4.393L9.37521 4.073L7.92021 0.613C7.84446 0.431448 7.71668 0.276367 7.55297 0.167286C7.38926 0.058205 7.19693 0 7.00021 0C6.80349 0 6.61116 0.058205 6.44745 0.167286C6.28374 0.276367 6.15596 0.431448 6.08021 0.613L4.62958 4.073L0.913334 4.39488C0.717107 4.41136 0.530115 4.48542 0.375808 4.60776C0.221502 4.7301 0.106749 4.89527 0.0459417 5.08257C-0.014866 5.26986 -0.0190223 5.47094 0.0339942 5.66059C0.0870106 5.85024 0.19484 6.02002 0.343959 6.14863L3.16333 8.61237L2.31833 12.2711C2.27365 12.4626 2.2864 12.663 2.35499 12.8472C2.42358 13.0315 2.54496 13.1914 2.70396 13.3071C2.86296 13.4227 3.05252 13.489 3.24894 13.4975C3.44537 13.5059 3.63994 13.4564 3.80833 13.3549L6.99584 11.4174L10.1902 13.3549C10.3586 13.4564 10.5532 13.5059 10.7496 13.4975C10.946 13.489 11.1356 13.4227 11.2946 13.3071C11.4536 13.1914 11.575 13.0315 11.6436 12.8472C11.7121 12.663 11.7249 12.4626 11.6802 12.2711L10.8358 8.60862L13.6546 6.14863C13.8037 6.01957 13.9113 5.84931 13.9639 5.65926C14.0165 5.46921 14.0117 5.26785 13.9502 5.0805ZM12.999 5.393L10.1802 7.853C10.043 7.97233 9.94097 8.12681 9.88502 8.29982C9.82908 8.47283 9.82137 8.65781 9.86271 8.83487L10.7096 12.4999L7.51771 10.5624C7.36198 10.4675 7.18317 10.4174 7.00084 10.4174C6.8185 10.4174 6.63969 10.4675 6.48396 10.5624L3.29646 12.4999L4.13771 8.83737C4.17905 8.66031 4.17134 8.47533 4.1154 8.30232C4.05945 8.12931 3.9574 7.97483 3.82021 7.8555L1.00021 5.39675V5.39113L4.71521 5.06988C4.89659 5.05389 5.07016 4.98868 5.2172 4.88129C5.36423 4.77391 5.47916 4.62841 5.54959 4.4605L7.00021 1.00488L8.45021 4.4605C8.52063 4.62841 8.63556 4.77391 8.7826 4.88129C8.92964 4.98868 9.10321 5.05389 9.28458 5.06988L13.0002 5.39113V5.3955L12.999 5.393Z" fill="#AEB1CE"/>
</svg>
