<svg width="21" height="20" viewBox="0 0 21 20" fill="none" xmlns="http://www.w3.org/2000/svg">
<path d="M10.5 14.9578C10.6941 14.9578 10.8563 14.8922 10.9867 14.7611C11.1178 14.63 11.1833 14.4674 11.1833 14.2733C11.1833 14.08 11.1178 13.9178 10.9867 13.7867C10.8563 13.6556 10.6941 13.59 10.5 13.59C10.3059 13.59 10.1437 13.6556 10.0133 13.7867C9.88222 13.9178 9.81667 14.08 9.81667 14.2733C9.81667 14.4674 9.88222 14.63 10.0133 14.7611C10.1437 14.8922 10.3059 14.9578 10.5 14.9578ZM9.94444 11.2822H11.0556V4.61556H9.94444V11.2822ZM10.5033 20C9.12111 20 7.82111 19.7378 6.60333 19.2133C5.3863 18.6881 4.32741 17.9756 3.42667 17.0756C2.52593 16.1763 1.81296 15.1185 1.28778 13.9022C0.762593 12.6859 0.5 11.3863 0.5 10.0033C0.5 8.62111 0.762222 7.32111 1.28667 6.10333C1.81185 4.8863 2.52444 3.82741 3.42444 2.92667C4.3237 2.02593 5.38148 1.31296 6.59778 0.787778C7.81407 0.262593 9.1137 0 10.4967 0C11.8789 0 13.1789 0.262222 14.3967 0.786667C15.6137 1.31185 16.6726 2.02444 17.5733 2.92444C18.4741 3.8237 19.187 4.88148 19.7122 6.09778C20.2374 7.31407 20.5 8.6137 20.5 9.99667C20.5 11.3789 20.2378 12.6789 19.7133 13.8967C19.1881 15.1137 18.4756 16.1726 17.5756 17.0733C16.6763 17.9741 15.6185 18.687 14.4022 19.2122C13.1859 19.7374 11.8863 20 10.5033 20Z" fill="#969FA8"/>
</svg>
