<svg width="32" height="32" viewBox="0 0 32 32" fill="none" xmlns="http://www.w3.org/2000/svg">
<rect width="32" height="32" rx="16" fill="#4AB32D"/>
<path d="M19.8496 15.9965C19.8421 15.7328 19.7441 15.4918 19.5332 15.2959L13.6722 9.57045C13.5064 9.40471 13.2955 9.31431 13.0469 9.31431C12.5497 9.31431 12.1504 9.70605 12.1504 10.2033C12.1504 10.4443 12.2483 10.6779 12.4216 10.8511L17.7026 15.989L12.4216 21.1419C12.2559 21.3152 12.1504 21.5412 12.1504 21.7898C12.1504 22.287 12.5497 22.6787 13.0469 22.6787C13.2955 22.6787 13.5064 22.5883 13.6722 22.4226L19.5332 16.6896C19.7441 16.4862 19.8496 16.2602 19.8496 15.9965Z" fill="white"/>
</svg>
