<svg width="6" height="10" viewBox="0 0 6 10" fill="none" xmlns="http://www.w3.org/2000/svg">
<path d="M5.56641 4.99833C5.56138 4.82254 5.49609 4.66183 5.35547 4.53125L1.4481 0.714284C1.33761 0.603793 1.19699 0.543526 1.03125 0.543526C0.699776 0.543526 0.433593 0.804687 0.433593 1.13616C0.433593 1.29687 0.498884 1.45257 0.614397 1.56808L4.13504 4.9933L0.614397 8.42857C0.503906 8.54408 0.433594 8.69475 0.433594 8.86049C0.433594 9.19196 0.699777 9.45312 1.03125 9.45312C1.19699 9.45312 1.33761 9.39286 1.4481 9.28237L5.35547 5.46038C5.49609 5.32478 5.56641 5.17411 5.56641 4.99833Z" fill="#4AB32D"/>
</svg>
