<svg width="32" height="32" viewBox="0 0 32 32" fill="none" xmlns="http://www.w3.org/2000/svg">
<rect width="32" height="32" rx="16" fill="#4AB32D"/>
<path d="M12.1504 15.9965C12.1579 16.2601 12.2559 16.5012 12.4668 16.6971L18.3278 22.4225C18.4936 22.5883 18.7045 22.6787 18.9531 22.6787C19.4503 22.6787 19.8496 22.2869 19.8496 21.7897C19.8496 21.5486 19.7517 21.3151 19.5784 21.1418L14.2974 16.004L19.5784 10.8511C19.7441 10.6778 19.8496 10.4518 19.8496 10.2032C19.8496 9.70601 19.4503 9.31427 18.9531 9.31427C18.7045 9.31427 18.4936 9.40467 18.3278 9.57041L12.4668 15.3034C12.2559 15.5068 12.1504 15.7328 12.1504 15.9965Z" fill="white"/>
</svg>
