<svg width="6" height="10" viewBox="0 0 6 10" fill="none" xmlns="http://www.w3.org/2000/svg">
<path d="M0.433594 5.00363C0.438616 5.17941 0.503907 5.34012 0.644532 5.4707L4.5519 9.28767C4.66239 9.39816 4.80301 9.45843 4.96875 9.45843C5.30022 9.45843 5.56641 9.19727 5.56641 8.86579C5.56641 8.70508 5.50112 8.54939 5.3856 8.43387L1.86496 5.00865L5.3856 1.57338C5.49609 1.45787 5.56641 1.3072 5.56641 1.14146C5.56641 0.809989 5.30022 0.548828 4.96875 0.548828C4.80301 0.548828 4.66239 0.609096 4.5519 0.719587L0.644532 4.54157C0.503907 4.67718 0.433594 4.82785 0.433594 5.00363Z" fill="#4AB32D"/>
</svg>
