<svg width="12" height="12" viewBox="0 0 12 12" fill="none" xmlns="http://www.w3.org/2000/svg">
<path d="M11.2129 4.56038C11.1675 4.4204 11.0819 4.29688 10.9668 4.20519C10.8517 4.11351 10.7121 4.05771 10.5656 4.04475L7.78165 3.80475L6.6904 1.20975C6.63359 1.07359 6.53775 0.957276 6.41497 0.875465C6.29219 0.793654 6.14794 0.75 6.0004 0.75C5.85286 0.75 5.70862 0.793654 5.58583 0.875465C5.46305 0.957276 5.36722 1.07359 5.3104 1.20975L4.22243 3.80475L1.43524 4.04616C1.28807 4.05852 1.14783 4.11407 1.0321 4.20582C0.91637 4.29757 0.830306 4.42145 0.7847 4.56193C0.739095 4.7024 0.735977 4.85321 0.77574 4.99544C0.815502 5.13768 0.896374 5.26501 1.00821 5.36147L3.12274 7.20928L2.48899 9.95334C2.45548 10.0969 2.46505 10.2472 2.51649 10.3854C2.56793 10.5236 2.65896 10.6436 2.77821 10.7303C2.89746 10.8171 3.03963 10.8667 3.18695 10.8731C3.33427 10.8795 3.4802 10.8423 3.60649 10.7662L5.99712 9.31303L8.3929 10.7662C8.5192 10.8423 8.66513 10.8795 8.81244 10.8731C8.95976 10.8667 9.10194 10.8171 9.22118 10.7303C9.34043 10.6436 9.43147 10.5236 9.48291 10.3854C9.53435 10.2472 9.54391 10.0969 9.5104 9.95334L8.87712 7.20647L10.9912 5.36147C11.103 5.26468 11.1837 5.13699 11.2232 4.99445C11.2626 4.85191 11.259 4.70089 11.2129 4.56038ZM10.4995 4.79475L8.3854 6.63975C8.28251 6.72925 8.20597 6.84511 8.16401 6.97487C8.12205 7.10462 8.11627 7.24336 8.14728 7.37616L8.78243 10.1249L6.38853 8.67178C6.27173 8.60066 6.13762 8.56303 6.00087 8.56303C5.86412 8.56303 5.73001 8.60066 5.61321 8.67178L3.22259 10.1249L3.85353 7.37803C3.88453 7.24523 3.87875 7.1065 3.83679 6.97674C3.79483 6.84699 3.71829 6.73113 3.6154 6.64163L1.5004 4.79756C1.50023 4.79616 1.50023 4.79475 1.5004 4.79334L4.28665 4.55241C4.42268 4.54042 4.55286 4.49151 4.66314 4.41097C4.77342 4.33043 4.85962 4.22131 4.91243 4.09538L6.0004 1.50366L7.0879 4.09538C7.14072 4.22131 7.22691 4.33043 7.33719 4.41097C7.44747 4.49151 7.57765 4.54042 7.71368 4.55241L10.5004 4.79334V4.79663L10.4995 4.79475Z" fill="#F4BC2D"/>
<path d="M10.4995 4.79475L8.3854 6.63975C8.28251 6.72925 8.20597 6.84511 8.16401 6.97487C8.12205 7.10462 8.11627 7.24336 8.14728 7.37616L8.78243 10.1249L6.38853 8.67178C6.27173 8.60066 6.13762 8.56303 6.00087 8.56303C5.86412 8.56303 5.73001 8.60066 5.61321 8.67178L3.22259 10.1249L3.85353 7.37803C3.88453 7.24523 3.87875 7.1065 3.83679 6.97674C3.79483 6.84699 3.71829 6.73113 3.6154 6.64163L1.5004 4.79756C1.50023 4.79616 1.50023 4.79475 1.5004 4.79334L4.28665 4.55241C4.42268 4.54042 4.55286 4.49151 4.66314 4.41097C4.77342 4.33043 4.85962 4.22131 4.91243 4.09538L6.0004 1.50366L7.0879 4.09538C7.14072 4.22131 7.22691 4.33043 7.33719 4.41097C7.44747 4.49151 7.57765 4.54042 7.71368 4.55241L10.5004 4.79334V4.79663L10.4995 4.79475Z" fill="#F4BC2D"/>
</svg>
