<svg width="16" height="16" viewBox="0 0 16 16" fill="none" xmlns="http://www.w3.org/2000/svg">
<path d="M14.9502 6.0805C14.8897 5.89387 14.7755 5.72917 14.6221 5.60692C14.4686 5.48467 14.2825 5.41028 14.0871 5.393L10.3752 5.073L8.92021 1.613C8.84446 1.43145 8.71668 1.27637 8.55297 1.16729C8.38926 1.05821 8.19693 1 8.00021 1C7.80349 1 7.61116 1.05821 7.44745 1.16729C7.28374 1.27637 7.15596 1.43145 7.08021 1.613L5.62958 5.073L1.91333 5.39488C1.71711 5.41137 1.53011 5.48542 1.37581 5.60776C1.2215 5.7301 1.10675 5.89527 1.04594 6.08257C0.985134 6.26986 0.980978 6.47094 1.03399 6.66059C1.08701 6.85024 1.19484 7.02002 1.34396 7.14863L4.16333 9.61238L3.31833 13.2711C3.27365 13.4626 3.2864 13.663 3.35499 13.8472C3.42358 14.0315 3.54496 14.1914 3.70396 14.3071C3.86296 14.4227 4.05252 14.489 4.24894 14.4975C4.44537 14.506 4.63994 14.4564 4.80833 14.3549L7.99583 12.4174L11.1902 14.3549C11.3586 14.4564 11.5532 14.506 11.7496 14.4975C11.946 14.489 12.1356 14.4227 12.2946 14.3071C12.4536 14.1914 12.575 14.0315 12.6436 13.8472C12.7121 13.663 12.7249 13.4626 12.6802 13.2711L11.8358 9.60863L14.6546 7.14863C14.8037 7.01957 14.9113 6.84931 14.9639 6.65926C15.0165 6.46921 15.0117 6.26785 14.9502 6.0805ZM13.999 6.393L11.1802 8.853C11.043 8.97233 10.941 9.12681 10.885 9.29982C10.8291 9.47283 10.8214 9.65781 10.8627 9.83488L11.7096 13.4999L8.51771 11.5624C8.36198 11.4675 8.18317 11.4174 8.00083 11.4174C7.8185 11.4174 7.63969 11.4675 7.48396 11.5624L4.29646 13.4999L5.13771 9.83737C5.17905 9.66031 5.17134 9.47533 5.11539 9.30232C5.05945 9.12931 4.9574 8.97483 4.82021 8.8555L2.00021 6.39675C1.99998 6.39488 1.99998 6.39299 2.00021 6.39113L5.71521 6.06988C5.89659 6.05389 6.07015 5.98868 6.21719 5.8813C6.36423 5.77391 6.47916 5.62841 6.54958 5.4605L8.00021 2.00488L9.45021 5.4605C9.52063 5.62841 9.63556 5.77391 9.7826 5.8813C9.92964 5.98868 10.1032 6.05389 10.2846 6.06988L14.0002 6.39113V6.3955L13.999 6.393Z" fill="#F4BC2D"/>
<path d="M13.999 6.393L11.1802 8.853C11.043 8.97233 10.941 9.12681 10.885 9.29982C10.8291 9.47283 10.8214 9.65781 10.8627 9.83488L11.7096 13.4999L8.51771 11.5624C8.36198 11.4675 8.18317 11.4174 8.00083 11.4174C7.8185 11.4174 7.63969 11.4675 7.48396 11.5624L4.29646 13.4999L5.13771 9.83737C5.17905 9.66031 5.17134 9.47533 5.11539 9.30232C5.05945 9.12931 4.9574 8.97483 4.82021 8.8555L2.00021 6.39675C1.99998 6.39488 1.99998 6.39299 2.00021 6.39113L5.71521 6.06988C5.89659 6.05389 6.07015 5.98868 6.21719 5.8813C6.36423 5.77391 6.47916 5.62841 6.54958 5.4605L8.00021 2.00488L9.45021 5.4605C9.52063 5.62841 9.63556 5.77391 9.7826 5.8813C9.92964 5.98868 10.1032 6.05389 10.2846 6.06988L14.0002 6.39113V6.3955L13.999 6.393Z" fill="#F4BC2D"/>
</svg>
