<svg width="14" height="18" viewBox="0 0 14 18" fill="none" xmlns="http://www.w3.org/2000/svg">
<path d="M8.66634 0.666992H1.99967C1.55765 0.666992 1.13372 0.842587 0.821163 1.15515C0.508602 1.46771 0.333008 1.89163 0.333008 2.33366V15.667C0.333008 16.109 0.508602 16.5329 0.821163 16.8455C1.13372 17.1581 1.55765 17.3337 1.99967 17.3337H11.9997C12.4417 17.3337 12.8656 17.1581 13.1782 16.8455C13.4907 16.5329 13.6663 16.109 13.6663 15.667V5.66699L8.66634 0.666992ZM5.33134 11.307H4.41217V14.0353H3.64801V11.307H2.74384V10.667H5.33134V11.307ZM7.60217 14.0353L7.29801 13.4262C7.17301 13.1912 7.09301 13.0162 6.99884 12.8212H6.98801C6.91884 13.0153 6.83384 13.1903 6.72801 13.4262L6.44884 14.0353H5.57801L6.55384 12.3312L5.61301 10.667H6.48801L6.78301 11.282C6.88384 11.4862 6.95801 11.6512 7.03801 11.8412H7.04884C7.12884 11.6262 7.19384 11.4762 7.27884 11.282L7.56301 10.667H8.43217L7.48301 12.3112L8.48134 14.0353H7.60217ZM11.2555 11.307H10.3355V14.0353H9.57134V11.307H8.66717V10.667H11.2547L11.2555 11.307ZM8.66634 6.50033H7.83301V2.33366L11.9997 6.50033H8.66634Z" fill="#5D638E"/>
</svg>
