<svg width="18" height="12" viewBox="0 0 18 12" fill="none" xmlns="http://www.w3.org/2000/svg">
<path d="M2.02 8.06C1.34 7.37 1 7.02438 1 6C1 4.975 1.34 4.63063 2.02 3.94C3.3776 2.5625 5.6544 1 9 1C12.3456 1 14.6224 2.5625 15.98 3.94C16.66 4.63125 17 4.97562 17 6C17 7.025 16.66 7.36937 15.98 8.06C14.6224 9.4375 12.3456 11 9 11C5.6544 11 3.3776 9.4375 2.02 8.06Z" stroke="#4AB32D" stroke-width="1.25"/>
<path d="M11.5 6C11.5 6.66304 11.2366 7.29893 10.7678 7.76777C10.2989 8.23661 9.66304 8.5 9 8.5C8.33696 8.5 7.70107 8.23661 7.23223 7.76777C6.76339 7.29893 6.5 6.66304 6.5 6C6.5 5.33696 6.76339 4.70107 7.23223 4.23223C7.70107 3.76339 8.33696 3.5 9 3.5C9.66304 3.5 10.2989 3.76339 10.7678 4.23223C11.2366 4.70107 11.5 5.33696 11.5 6Z" stroke="#4AB32D" stroke-width="1.25"/>
</svg>
