<svg width="14" height="18" viewBox="0 0 14 18" fill="none" xmlns="http://www.w3.org/2000/svg">
<path d="M10.181 13.1954C10.0991 13.3206 9.95774 13.3832 9.757 13.3832C9.58838 13.3832 9.45749 13.313 9.36435 13.1726C9.27281 13.0321 9.22704 12.8232 9.22704 12.5457C9.22704 12.2682 9.27281 12.0558 9.36435 11.9086C9.45589 11.7614 9.58276 11.6878 9.74496 11.6878C9.96336 11.6878 10.1127 11.7614 10.193 11.9086C10.2733 12.0541 10.3135 12.2648 10.3135 12.5406V12.6244C10.3086 12.8782 10.2645 13.0685 10.181 13.1954Z" fill="#E44225"/>
<path fill-rule="evenodd" clip-rule="evenodd" d="M1.99967 0.666992H8.66634L13.6663 5.66699V15.667C13.6663 16.109 13.4907 16.5329 13.1782 16.8455C12.8656 17.1581 12.4417 17.3337 11.9997 17.3337H1.99967C1.55765 17.3337 1.13372 17.1581 0.821163 16.8455C0.508602 16.5329 0.333008 16.109 0.333008 15.667V2.33366C0.333008 1.89163 0.508602 1.46771 0.821163 1.15515C1.13372 0.842587 1.55765 0.666992 1.99967 0.666992ZM7.83301 6.50033H11.9997L7.83301 2.33366V6.50033ZM8.76453 13.6294C8.95403 13.8765 9.19894 14 9.49925 14C9.62933 14 9.74255 13.9814 9.8389 13.9442C9.93526 13.9069 10.018 13.857 10.087 13.7944C10.1577 13.7301 10.2163 13.6591 10.2629 13.5812H10.2942L10.4363 13.9492H11V10H10.2629V10.9086C10.2629 11.0203 10.2693 11.1294 10.2821 11.236C10.2966 11.3409 10.3086 11.4205 10.3183 11.4746H10.2942C10.2444 11.3968 10.1834 11.3266 10.1111 11.264C10.0405 11.2014 9.95614 11.1514 9.85818 11.1142C9.76021 11.077 9.64699 11.0584 9.51852 11.0584C9.21018 11.0584 8.96045 11.1836 8.76935 11.434C8.57824 11.6827 8.48269 12.0499 8.48269 12.5355C8.48269 13.0161 8.57663 13.3807 8.76453 13.6294ZM8.07317 13.1066C8.07317 13.2995 8.02981 13.4628 7.94309 13.5964C7.85797 13.7284 7.7303 13.8291 7.56007 13.8985C7.38984 13.9662 7.17786 14 6.92412 14C6.73622 14 6.57483 13.9873 6.43993 13.9619C6.30663 13.9365 6.17174 13.8942 6.03523 13.835V13.1954C6.18137 13.2648 6.33795 13.3223 6.50497 13.368C6.67359 13.412 6.82134 13.434 6.94821 13.434C7.09114 13.434 7.19311 13.412 7.25414 13.368C7.31677 13.3223 7.34809 13.2631 7.34809 13.1904C7.34809 13.143 7.33524 13.1007 7.30955 13.0635C7.28546 13.0245 7.23246 12.9814 7.15056 12.934C7.06865 12.8849 6.94018 12.8215 6.76513 12.7437C6.59651 12.6692 6.45759 12.5939 6.34839 12.5178C6.24079 12.4416 6.16049 12.3519 6.1075 12.2487C6.05611 12.1438 6.03041 12.011 6.03041 11.8503C6.03041 11.588 6.12677 11.3909 6.31948 11.2589C6.5138 11.1252 6.77316 11.0584 7.09756 11.0584C7.26458 11.0584 7.42357 11.0761 7.57453 11.1117C7.72709 11.1472 7.88367 11.2039 8.04426 11.2817L7.82264 11.8401C7.68935 11.7792 7.56328 11.7293 7.44444 11.6904C7.32721 11.6514 7.20757 11.632 7.08552 11.632C6.97792 11.632 6.89682 11.6472 6.84222 11.6777C6.78761 11.7081 6.76031 11.7547 6.76031 11.8173C6.76031 11.8629 6.77396 11.9036 6.80126 11.9391C6.83017 11.9746 6.88477 12.0144 6.96507 12.0584C7.04697 12.1007 7.16662 12.1557 7.324 12.2234C7.47656 12.2893 7.60905 12.3587 7.72147 12.4315C7.83389 12.5025 7.92061 12.5914 7.98163 12.698C8.04266 12.8029 8.07317 12.9391 8.07317 13.1066ZM4.0262 13.9492L3 11.1117H3.76844L4.28877 12.7284C4.31768 12.8232 4.34016 12.923 4.35622 13.0279C4.37388 13.1328 4.38593 13.2267 4.39235 13.3096H4.41162C4.41644 13.22 4.42768 13.1244 4.44535 13.0228C4.46462 12.9213 4.48951 12.8232 4.52002 12.7284L5.03794 11.1117H5.80638L4.78019 13.9492H4.0262Z" fill="#E44225"/>
</svg>
