<svg width="128" height="28" viewBox="0 0 128 28" fill="none" xmlns="http://www.w3.org/2000/svg">
<path d="M24 16.2041L44 9.34694L24 2L4 9.34694L12.5714 13.7551V22.5714C13.6825 23.7143 17.5238 26 24 26C30.4762 26 34.3175 23.7143 35.4286 22.5714V18.1633" stroke="#4AB32D" stroke-width="2" stroke-linecap="round"/>
<path d="M52.7812 23.6367V17.9258H57.0352V23.6367H56.3789V18.5117H53.4453V23.6367H52.7812Z" fill="#272F37"/>
<path d="M62.0431 21.4883C62.0431 21.8398 61.9976 22.1536 61.9064 22.4297C61.8153 22.7057 61.6838 22.9388 61.5119 23.1289C61.34 23.319 61.1317 23.4648 60.8869 23.5664C60.6447 23.6654 60.3699 23.7148 60.0627 23.7148C59.7762 23.7148 59.5132 23.6654 59.2736 23.5664C59.0366 23.4648 58.8309 23.319 58.6564 23.1289C58.4845 22.9388 58.3504 22.7057 58.2541 22.4297C58.1603 22.1536 58.1134 21.8398 58.1134 21.4883C58.1134 21.0195 58.1929 20.6211 58.3517 20.293C58.5106 19.9622 58.7371 19.7109 59.0314 19.5391C59.3283 19.3646 59.6811 19.2773 60.09 19.2773C60.4806 19.2773 60.8218 19.3646 61.1134 19.5391C61.4077 19.7135 61.6356 19.9661 61.797 20.2969C61.9611 20.625 62.0431 21.0221 62.0431 21.4883ZM58.7853 21.4883C58.7853 21.832 58.8309 22.1302 58.922 22.3828C59.0132 22.6354 59.1538 22.8307 59.3439 22.9688C59.534 23.1068 59.7788 23.1758 60.0783 23.1758C60.3752 23.1758 60.6186 23.1068 60.8088 22.9688C61.0015 22.8307 61.1434 22.6354 61.2345 22.3828C61.3257 22.1302 61.3713 21.832 61.3713 21.4883C61.3713 21.1471 61.3257 20.8529 61.2345 20.6055C61.1434 20.3555 61.0028 20.1628 60.8127 20.0273C60.6226 19.8919 60.3765 19.8242 60.0744 19.8242C59.6291 19.8242 59.3022 19.9714 59.0939 20.2656C58.8882 20.5599 58.7853 20.9674 58.7853 21.4883Z" fill="#272F37"/>
<path d="M67.5238 19.3555V23.6367H66.9378V20.8477C66.9378 20.7331 66.9404 20.6172 66.9456 20.5C66.9534 20.3802 66.9626 20.2604 66.973 20.1406H66.9495L65.5277 23.6367H64.9769L63.5902 20.1406H63.5667C63.5745 20.2604 63.5797 20.3802 63.5823 20.5C63.5876 20.6172 63.5902 20.7409 63.5902 20.8711V23.6367H63.0003V19.3555H63.8714L65.2542 22.8555L66.6566 19.3555H67.5238Z" fill="#272F37"/>
<path d="M72.4028 21.4883C72.4028 21.8398 72.3572 22.1536 72.2661 22.4297C72.1749 22.7057 72.0434 22.9388 71.8716 23.1289C71.6997 23.319 71.4914 23.4648 71.2466 23.5664C71.0044 23.6654 70.7296 23.7148 70.4223 23.7148C70.1359 23.7148 69.8729 23.6654 69.6333 23.5664C69.3963 23.4648 69.1906 23.319 69.0161 23.1289C68.8442 22.9388 68.7101 22.7057 68.6138 22.4297C68.52 22.1536 68.4731 21.8398 68.4731 21.4883C68.4731 21.0195 68.5526 20.6211 68.7114 20.293C68.8703 19.9622 69.0968 19.7109 69.3911 19.5391C69.688 19.3646 70.0408 19.2773 70.4497 19.2773C70.8403 19.2773 71.1815 19.3646 71.4731 19.5391C71.7674 19.7135 71.9953 19.9661 72.1567 20.2969C72.3208 20.625 72.4028 21.0221 72.4028 21.4883ZM69.145 21.4883C69.145 21.832 69.1906 22.1302 69.2817 22.3828C69.3729 22.6354 69.5135 22.8307 69.7036 22.9688C69.8937 23.1068 70.1385 23.1758 70.438 23.1758C70.7348 23.1758 70.9783 23.1068 71.1684 22.9688C71.3611 22.8307 71.5031 22.6354 71.5942 22.3828C71.6854 22.1302 71.7309 21.832 71.7309 21.4883C71.7309 21.1471 71.6854 20.8529 71.5942 20.6055C71.5031 20.3555 71.3624 20.1628 71.1723 20.0273C70.9822 19.8919 70.7361 19.8242 70.4341 19.8242C69.9888 19.8242 69.6619 19.9714 69.4536 20.2656C69.2479 20.5599 69.145 20.9674 69.145 21.4883Z" fill="#272F37"/>
<path d="M79.1022 19.3555V23.0938H79.7155V25.1094H79.0631V23.6367H73.3639V19.3555H74.0123V23.0859H75.9069V19.3555H76.5592V23.0859H78.4577V19.3555H79.1022Z" fill="#272F37"/>
<path d="M81.0359 21.1211H82.3484C82.713 21.1211 83.0164 21.1667 83.2586 21.2578C83.5008 21.349 83.6818 21.4844 83.8016 21.6641C83.924 21.8438 83.9852 22.0664 83.9852 22.332C83.9852 22.5977 83.9253 22.8281 83.8055 23.0234C83.6883 23.2188 83.506 23.3698 83.2586 23.4766C83.0138 23.5833 82.6974 23.6367 82.3094 23.6367H80.3836V19.3555H81.0359V21.1211ZM83.3328 22.3633C83.3328 22.1003 83.2391 21.918 83.0516 21.8164C82.8667 21.7122 82.6076 21.6602 82.2742 21.6602H81.0359V23.1094H82.2781C82.5906 23.1094 82.8445 23.0521 83.0398 22.9375C83.2352 22.8203 83.3328 22.6289 83.3328 22.3633Z" fill="#272F37"/>
<path d="M88.5753 23.7148C88.1899 23.7148 87.8501 23.6354 87.5558 23.4766C87.2615 23.3177 87.0323 23.0755 86.8683 22.75C86.7042 22.4245 86.6222 22.0143 86.6222 21.5195C86.6222 21.0013 86.7081 20.5781 86.88 20.25C87.0545 19.9193 87.2941 19.6745 87.5988 19.5156C87.9034 19.3568 88.2498 19.2773 88.6378 19.2773C88.8514 19.2773 89.0571 19.2995 89.255 19.3438C89.4555 19.3854 89.6196 19.4388 89.7472 19.5039L89.5519 20.0469C89.4217 19.9948 89.2706 19.9479 89.0988 19.9062C88.9295 19.8646 88.7706 19.8438 88.6222 19.8438C88.3253 19.8438 88.0779 19.9076 87.88 20.0352C87.6847 20.1628 87.5376 20.3503 87.4386 20.5977C87.3422 20.8451 87.2941 21.1497 87.2941 21.5117C87.2941 21.8581 87.3409 22.1536 87.4347 22.3984C87.531 22.6432 87.673 22.8307 87.8605 22.9609C88.0506 23.0885 88.2876 23.1523 88.5714 23.1523C88.798 23.1523 89.0024 23.1289 89.1847 23.082C89.367 23.0326 89.5323 22.9753 89.6808 22.9102V23.4883C89.5376 23.5612 89.3774 23.6172 89.2003 23.6562C89.0258 23.6953 88.8175 23.7148 88.5753 23.7148Z" fill="#272F37"/>
<path d="M93.4544 19.9062H92.0442V23.6367H91.4036V19.9062H90.013V19.3555H93.4544V19.9062Z" fill="#272F37"/>
<path d="M93.4663 19.3555H94.1616L95.1069 21.8398C95.1616 21.9857 95.2123 22.1263 95.2592 22.2617C95.3061 22.3945 95.3478 22.5221 95.3842 22.6445C95.4207 22.7669 95.4493 22.8854 95.4702 23H95.4975C95.534 22.8698 95.586 22.6992 95.6538 22.4883C95.7215 22.2747 95.7944 22.0573 95.8725 21.8359L96.767 19.3555H97.4663L95.603 24.2656C95.504 24.5286 95.3881 24.7578 95.2553 24.9531C95.1251 25.1484 94.9663 25.2982 94.7788 25.4023C94.5913 25.5091 94.3647 25.5625 94.0991 25.5625C93.9767 25.5625 93.8686 25.5547 93.7748 25.5391C93.6811 25.526 93.6004 25.5104 93.5327 25.4922V24.9727C93.59 24.9857 93.659 24.9974 93.7397 25.0078C93.823 25.0182 93.909 25.0234 93.9975 25.0234C94.159 25.0234 94.2983 24.9922 94.4155 24.9297C94.5353 24.8698 94.6381 24.7812 94.7241 24.6641C94.81 24.5469 94.8842 24.4076 94.9467 24.2461L95.1811 23.6445L93.4663 19.3555Z" fill="#272F37"/>
<path d="M101.127 19.3555V23.0859H101.74V25.1172H101.111V23.6367H98.0797V25.1172H97.4586V23.0859H97.7945C98.0393 22.7474 98.2425 22.3763 98.4039 21.9727C98.5654 21.569 98.6878 21.1458 98.7711 20.7031C98.8544 20.2578 98.8987 19.8086 98.9039 19.3555H101.127ZM100.498 19.8711H99.482C99.4586 20.2513 99.4026 20.638 99.3141 21.0312C99.2281 21.4245 99.1135 21.7995 98.9703 22.1562C98.8271 22.5104 98.6604 22.8203 98.4703 23.0859H100.498V19.8711Z" fill="#272F37"/>
<path d="M104.08 19.2773C104.444 19.2773 104.757 19.3581 105.017 19.5195C105.278 19.681 105.477 19.9076 105.615 20.1992C105.753 20.4883 105.822 20.8268 105.822 21.2148V21.6172H102.865C102.873 22.1198 102.998 22.5026 103.24 22.7656C103.482 23.0286 103.823 23.1602 104.263 23.1602C104.534 23.1602 104.774 23.1354 104.982 23.0859C105.191 23.0365 105.407 22.9635 105.631 22.8672V23.4375C105.414 23.5339 105.2 23.6042 104.986 23.6484C104.775 23.6927 104.525 23.7148 104.236 23.7148C103.825 23.7148 103.465 23.6315 103.158 23.4648C102.853 23.2956 102.616 23.0482 102.447 22.7227C102.278 22.3971 102.193 21.9987 102.193 21.5273C102.193 21.0664 102.27 20.668 102.424 20.332C102.58 19.9935 102.799 19.7331 103.08 19.5508C103.364 19.3685 103.697 19.2773 104.08 19.2773ZM104.072 19.8086C103.726 19.8086 103.45 19.9219 103.244 20.1484C103.038 20.375 102.916 20.6914 102.877 21.0977H105.142C105.14 20.8424 105.099 20.6185 105.021 20.4258C104.946 20.2305 104.83 20.0794 104.674 19.9727C104.517 19.8633 104.317 19.8086 104.072 19.8086Z" fill="#272F37"/>
<path d="M107.416 19.3555V21.1523H109.803V19.3555H110.451V23.6367H109.803V21.7031H107.416V23.6367H106.764V19.3555H107.416Z" fill="#272F37"/>
<path d="M114.584 19.9062H113.174V23.6367H112.533V19.9062H111.143V19.3555H114.584V19.9062Z" fill="#272F37"/>
<path d="M116.873 19.2852C117.384 19.2852 117.763 19.3997 118.01 19.6289C118.257 19.8581 118.381 20.224 118.381 20.7266V23.6367H117.908L117.783 23.0039H117.752C117.632 23.1602 117.507 23.2917 117.377 23.3984C117.247 23.5026 117.096 23.582 116.924 23.6367C116.755 23.6888 116.546 23.7148 116.299 23.7148C116.039 23.7148 115.807 23.6693 115.604 23.5781C115.403 23.487 115.244 23.349 115.127 23.1641C115.013 22.9792 114.955 22.7448 114.955 22.4609C114.955 22.0339 115.125 21.7057 115.463 21.4766C115.802 21.2474 116.317 21.1224 117.01 21.1016L117.748 21.0703V20.8086C117.748 20.4388 117.669 20.1797 117.51 20.0312C117.351 19.8828 117.127 19.8086 116.838 19.8086C116.614 19.8086 116.401 19.8411 116.197 19.9062C115.994 19.9714 115.802 20.0482 115.619 20.1367L115.42 19.6445C115.613 19.5456 115.834 19.4609 116.084 19.3906C116.334 19.3203 116.597 19.2852 116.873 19.2852ZM117.74 21.5273L117.088 21.5547C116.554 21.5755 116.178 21.6628 115.959 21.8164C115.74 21.9701 115.631 22.1875 115.631 22.4688C115.631 22.7135 115.705 22.8945 115.854 23.0117C116.002 23.1289 116.199 23.1875 116.444 23.1875C116.824 23.1875 117.135 23.082 117.377 22.8711C117.619 22.6602 117.74 22.3438 117.74 21.9219V21.5273Z" fill="#272F37"/>
<path d="M124.077 19.3555V23.6367H123.491V20.8477C123.491 20.7331 123.493 20.6172 123.498 20.5C123.506 20.3802 123.515 20.2604 123.526 20.1406H123.502L122.08 23.6367H121.53L120.143 20.1406H120.12C120.127 20.2604 120.133 20.3802 120.135 20.5C120.14 20.6172 120.143 20.7409 120.143 20.8711V23.6367H119.553V19.3555H120.424L121.807 22.8555L123.209 19.3555H124.077Z" fill="#272F37"/>
<path d="M59.1572 10.8613C59.1572 11.4538 59.0137 11.9688 58.7266 12.4062C58.4395 12.8438 58.0202 13.181 57.4688 13.418C56.9219 13.6549 56.2565 13.7734 55.4727 13.7734C55.1263 13.7734 54.7868 13.7507 54.4541 13.7051C54.126 13.6595 53.8092 13.5934 53.5039 13.5068C53.2031 13.4157 52.916 13.304 52.6426 13.1719V11.2031C53.1165 11.4128 53.6087 11.6019 54.1191 11.7705C54.6296 11.9391 55.1354 12.0234 55.6367 12.0234C55.9831 12.0234 56.2611 11.9779 56.4707 11.8867C56.6849 11.7956 56.8398 11.6702 56.9355 11.5107C57.0312 11.3512 57.0791 11.1689 57.0791 10.9639C57.0791 10.7132 56.9948 10.499 56.8262 10.3213C56.6576 10.1436 56.4251 9.97721 56.1289 9.82227C55.8372 9.66732 55.5068 9.50098 55.1377 9.32324C54.9053 9.21387 54.6523 9.08171 54.3789 8.92676C54.1055 8.76725 53.8457 8.57357 53.5996 8.3457C53.3535 8.11784 53.1507 7.84212 52.9912 7.51855C52.8363 7.19043 52.7588 6.7985 52.7588 6.34277C52.7588 5.74577 52.8955 5.23535 53.1689 4.81152C53.4424 4.3877 53.832 4.06413 54.3379 3.84082C54.8483 3.61296 55.4499 3.49902 56.1426 3.49902C56.6621 3.49902 57.1566 3.56055 57.626 3.68359C58.0999 3.80208 58.5944 3.97526 59.1094 4.20312L58.4258 5.85059C57.9655 5.66374 57.5531 5.52018 57.1885 5.41992C56.8239 5.3151 56.4525 5.2627 56.0742 5.2627C55.8099 5.2627 55.5843 5.30599 55.3975 5.39258C55.2106 5.47461 55.0693 5.5931 54.9736 5.74805C54.8779 5.89844 54.8301 6.07389 54.8301 6.27441C54.8301 6.51139 54.8984 6.71191 55.0352 6.87598C55.1764 7.03548 55.3861 7.19043 55.6641 7.34082C55.9466 7.49121 56.2975 7.66667 56.7168 7.86719C57.2272 8.10872 57.6624 8.36165 58.0225 8.62598C58.387 8.88574 58.6673 9.19336 58.8633 9.54883C59.0592 9.89974 59.1572 10.3372 59.1572 10.8613Z" fill="#4AB32D"/>
<path d="M64.0244 12.1123C64.2523 12.1123 64.4733 12.0895 64.6875 12.0439C64.9062 11.9984 65.1227 11.9414 65.3369 11.873V13.4248C65.1136 13.5251 64.8356 13.6071 64.5029 13.6709C64.1748 13.7393 63.8148 13.7734 63.4229 13.7734C62.9671 13.7734 62.557 13.7005 62.1924 13.5547C61.8324 13.4043 61.5475 13.1468 61.3379 12.7822C61.1328 12.4131 61.0303 11.9004 61.0303 11.2441V7.55957H60.0322V6.67773L61.1807 5.98047L61.7822 4.36719H63.1152V5.99414H65.2549V7.55957H63.1152V11.2441C63.1152 11.5358 63.1973 11.7546 63.3613 11.9004C63.5299 12.0417 63.751 12.1123 64.0244 12.1123Z" fill="#4AB32D"/>
<path d="M73.9023 5.99414V13.6367H72.3027L72.0225 12.6592H71.9131C71.749 12.9189 71.5439 13.1309 71.2979 13.2949C71.0518 13.459 70.7806 13.5798 70.4844 13.6572C70.1882 13.7347 69.8805 13.7734 69.5615 13.7734C69.0146 13.7734 68.5384 13.6777 68.1328 13.4863C67.7272 13.2904 67.4105 12.9873 67.1826 12.5771C66.9593 12.167 66.8477 11.6338 66.8477 10.9775V5.99414H68.9326V10.458C68.9326 11.0049 69.0306 11.4173 69.2266 11.6953C69.4225 11.9733 69.7347 12.1123 70.1631 12.1123C70.5869 12.1123 70.9196 12.0166 71.1611 11.8252C71.4027 11.6292 71.5713 11.3444 71.667 10.9707C71.7673 10.5924 71.8174 10.1322 71.8174 9.58984V5.99414H73.9023Z" fill="#4AB32D"/>
<path d="M78.5098 13.7734C77.6576 13.7734 76.9626 13.4408 76.4248 12.7754C75.8916 12.1055 75.625 11.1234 75.625 9.8291C75.625 8.52116 75.8962 7.53223 76.4385 6.8623C76.9808 6.18783 77.6895 5.85059 78.5645 5.85059C78.929 5.85059 79.2503 5.90072 79.5283 6.00098C79.8063 6.10124 80.0456 6.23568 80.2461 6.4043C80.4512 6.57292 80.6243 6.76204 80.7656 6.97168H80.834C80.8066 6.82585 80.7725 6.61165 80.7314 6.3291C80.695 6.04199 80.6768 5.74805 80.6768 5.44727V3H82.7686V13.6367H81.1689L80.7656 12.6455H80.6768C80.5446 12.8551 80.3783 13.0465 80.1777 13.2197C79.9818 13.3883 79.7471 13.5228 79.4736 13.623C79.2002 13.7233 78.8789 13.7734 78.5098 13.7734ZM79.2412 12.1123C79.8109 12.1123 80.2119 11.9437 80.4443 11.6064C80.6813 11.2646 80.8066 10.752 80.8203 10.0684V9.84277C80.8203 9.09994 80.7064 8.53255 80.4785 8.14062C80.2507 7.74414 79.8268 7.5459 79.207 7.5459C78.7467 7.5459 78.3867 7.74414 78.127 8.14062C77.8672 8.53711 77.7373 9.10905 77.7373 9.85645C77.7373 10.6038 77.8672 11.1667 78.127 11.5449C78.3913 11.9232 78.7627 12.1123 79.2412 12.1123Z" fill="#4AB32D"/>
<path d="M85.2578 13.6367V3.64258H87.377V11.8867H91.4307V13.6367H85.2578Z" fill="#272F37"/>
<path d="M96.1611 5.85059C96.8675 5.85059 97.4759 5.9873 97.9863 6.26074C98.4967 6.52962 98.891 6.92155 99.1689 7.43652C99.4469 7.9515 99.5859 8.5804 99.5859 9.32324V10.335H94.6572C94.68 10.9229 94.8555 11.3854 95.1836 11.7227C95.5163 12.0553 95.9766 12.2217 96.5645 12.2217C97.0521 12.2217 97.4987 12.1715 97.9043 12.0713C98.3099 11.971 98.7269 11.8206 99.1553 11.6201V13.2334C98.777 13.4202 98.3805 13.557 97.9658 13.6436C97.5557 13.7301 97.0566 13.7734 96.4688 13.7734C95.7031 13.7734 95.0241 13.6322 94.4316 13.3496C93.8438 13.0671 93.3812 12.6364 93.0439 12.0576C92.7113 11.4788 92.5449 10.7497 92.5449 9.87012C92.5449 8.97689 92.6953 8.23405 92.9961 7.6416C93.3014 7.0446 93.7253 6.59798 94.2676 6.30176C94.8099 6.00098 95.4411 5.85059 96.1611 5.85059ZM96.1748 7.33398C95.7692 7.33398 95.432 7.46387 95.1631 7.72363C94.8988 7.9834 94.7461 8.39128 94.7051 8.94727H97.6309C97.6263 8.63737 97.5693 8.36165 97.46 8.12012C97.3551 7.87858 97.1956 7.68717 96.9814 7.5459C96.7718 7.40462 96.5029 7.33398 96.1748 7.33398Z" fill="#272F37"/>
<path d="M104.412 5.83691C105.438 5.83691 106.224 6.06022 106.771 6.50684C107.317 6.95345 107.591 7.63249 107.591 8.54395V13.6367H106.135L105.731 12.5977H105.677C105.458 12.8711 105.235 13.0944 105.007 13.2676C104.779 13.4408 104.517 13.5684 104.221 13.6504C103.924 13.7324 103.564 13.7734 103.141 13.7734C102.689 13.7734 102.284 13.6868 101.924 13.5137C101.568 13.3405 101.288 13.0762 101.083 12.7207C100.878 12.3607 100.775 11.9049 100.775 11.3535C100.775 10.5423 101.06 9.94531 101.63 9.5625C102.2 9.17513 103.054 8.96094 104.193 8.91992L105.52 8.87891V8.54395C105.52 8.1429 105.415 7.84896 105.205 7.66211C104.995 7.47526 104.704 7.38184 104.33 7.38184C103.961 7.38184 103.599 7.43424 103.243 7.53906C102.888 7.64388 102.532 7.77604 102.177 7.93555L101.486 6.52734C101.892 6.31315 102.345 6.14453 102.847 6.02148C103.353 5.89844 103.874 5.83691 104.412 5.83691ZM105.52 10.0957L104.713 10.123C104.038 10.1413 103.569 10.262 103.305 10.4854C103.045 10.7087 102.915 11.0026 102.915 11.3672C102.915 11.6862 103.008 11.9141 103.195 12.0508C103.382 12.1829 103.626 12.249 103.927 12.249C104.373 12.249 104.749 12.1169 105.055 11.8525C105.365 11.5882 105.52 11.2122 105.52 10.7246V10.0957Z" fill="#272F37"/>
<path d="M114.01 5.85059C114.115 5.85059 114.235 5.85742 114.372 5.87109C114.513 5.88021 114.627 5.89388 114.714 5.91211L114.557 7.86719C114.488 7.8444 114.39 7.82845 114.263 7.81934C114.14 7.80566 114.033 7.79883 113.941 7.79883C113.673 7.79883 113.41 7.83301 113.155 7.90137C112.905 7.96973 112.679 8.08138 112.479 8.23633C112.278 8.38672 112.118 8.58724 112 8.83789C111.886 9.08398 111.829 9.38704 111.829 9.74707V13.6367H109.744V5.99414H111.323L111.631 7.2793H111.733C111.884 7.01953 112.071 6.78255 112.294 6.56836C112.522 6.34961 112.779 6.17643 113.066 6.04883C113.358 5.91667 113.673 5.85059 114.01 5.85059Z" fill="#272F37"/>
<path d="M120.442 5.85059C121.258 5.85059 121.914 6.07389 122.411 6.52051C122.908 6.96257 123.156 7.6735 123.156 8.65332V13.6367H121.071V9.17285C121.071 8.62598 120.971 8.21354 120.771 7.93555C120.575 7.65755 120.265 7.51855 119.841 7.51855C119.203 7.51855 118.768 7.73503 118.535 8.16797C118.303 8.60091 118.187 9.22526 118.187 10.041V13.6367H116.102V5.99414H117.694L117.975 6.97168H118.091C118.255 6.70736 118.458 6.49316 118.699 6.3291C118.945 6.16504 119.216 6.04427 119.513 5.9668C119.813 5.88932 120.123 5.85059 120.442 5.85059Z" fill="#272F37"/>
</svg>
