<?xml version="1.0" encoding="UTF-8" standalone="no"?>
<!-- Generator: Adobe Illustrator 16.0.2, SVG Export Plug-In . SVG Version: 6.00 Build 0)  -->

<svg
   version="1.1"
   id="Слой_1"
   x="0px"
   y="0px"
   width="176.854px"
   height="40px"
   viewBox="0 0 176.854 40"
   enable-background="new 0 0 176.854 40"
   xml:space="preserve"
   sodipodi:docname="logo2.svg"
   inkscape:version="1.1.1 (3bf5ae0d25, 2021-09-20)"
   xmlns:inkscape="http://www.inkscape.org/namespaces/inkscape"
   xmlns:sodipodi="http://sodipodi.sourceforge.net/DTD/sodipodi-0.dtd"
   xmlns="http://www.w3.org/2000/svg"
   xmlns:svg="http://www.w3.org/2000/svg"><defs
   id="defs159">
	

			
			
		</defs><sodipodi:namedview
   id="namedview157"
   pagecolor="#ffffff"
   bordercolor="#666666"
   borderopacity="1.0"
   inkscape:pageshadow="2"
   inkscape:pageopacity="0.0"
   inkscape:pagecheckerboard="0"
   showgrid="false"
   inkscape:zoom="9.6520291"
   inkscape:cx="88.427002"
   inkscape:cy="20.047598"
   inkscape:window-width="1920"
   inkscape:window-height="1017"
   inkscape:window-x="-8"
   inkscape:window-y="-8"
   inkscape:window-maximized="1"
   inkscape:current-layer="g111" />
<g
   id="g153">
		<g
   id="g89">
			<g
   id="g87">
				<path
   d="m 8.571,12.569 24.365,-7.646 22.808,7.203 c 0.45,0.108 0.421,0.346 0,0.477 l -23.516,7.431 c -1.259,0.395 -1.964,1.734 -1.57,2.995 0.391,1.259 1.732,1.966 2.994,1.57 l 30.279,-9.435 c 0.99,-0.306 1.667,-1.273 1.683,-2.306 C 65.63,11.823 64.982,10.837 64.003,10.5 L 33.724,0.133 C 33.221,-0.044 32.667,-0.044 32.162,0.128 L 1.616,10.498 c -0.922,0.317 -1.562,1.221 -1.612,2.191 -0.051,0.976 0.491,1.942 1.377,2.359 l 12.162,5.694 v 11.142 c 0,1.134 0.834,2.163 1.557,2.842 0,0 5.643,5.274 17.791,5.274 12.149,0 17.789,-5.274 17.789,-5.274 0.744,-0.763 1.559,-1.725 1.559,-2.842 v -6.866 c 0,-1.32 -1.075,-2.395 -2.393,-2.395 -1.318,0 -2.393,1.073 -2.393,2.395 v 5.805 c 0,0 -4.109,4.195 -14.561,4.195 -10.475,0 -14.563,-4.195 -14.563,-4.195 V 19.216 c 0,-0.927 -0.539,-1.771 -1.375,-2.165 L 8.573,13.067 C 8.164,12.92 8.118,12.71 8.571,12.569 Z"
   id="path85" />
			</g>
		</g>
		<g
   id="g397"><g
     id="g111">
				<g
   id="g109">
					<path
   fill="#e44225"
   d="m 71.767,24.834 1.968,-2.357 c 1.363,1.125 2.79,1.838 4.521,1.838 1.363,0 2.185,-0.54 2.185,-1.471 0,-0.843 -0.52,-1.275 -3.05,-1.924 -3.05,-0.779 -5.018,-1.623 -5.018,-4.672 0,-2.748 2.206,-4.564 5.299,-4.564 2.206,0 4.088,0.692 5.624,1.925 l -1.73,2.509 c -1.341,-0.93 -2.661,-1.492 -3.937,-1.492 -1.277,0 -1.947,0.584 -1.947,1.362 0,0.996 0.648,1.32 3.266,1.99 3.072,0.8 4.802,1.903 4.802,4.586 0,3.007 -2.293,4.693 -5.56,4.693 -2.292,0 -4.607,-0.8 -6.423,-2.423 z"
   id="path91" />
					<path
   fill="#e44225"
   d="m 85.976,23.753 v -5.494 h -1.385 v -2.812 h 1.385 v -2.963 h 3.288 v 2.963 h 2.725 v 2.812 h -2.725 v 4.954 c 0,0.756 0.325,1.124 1.06,1.124 0.604,0 1.146,-0.151 1.622,-0.411 v 2.639 c -0.692,0.411 -1.492,0.671 -2.595,0.671 -2.013,-0.001 -3.375,-0.8 -3.375,-3.483 z"
   id="path93" />
					<path
   fill="#e44225"
   d="m 93.718,22.952 v -7.505 h 3.288 v 6.467 c 0,1.558 0.735,2.357 1.99,2.357 1.254,0 2.055,-0.8 2.055,-2.357 v -6.467 h 3.287 v 11.594 h -3.287 v -1.645 c -0.758,0.973 -1.73,1.86 -3.396,1.86 -2.487,0.001 -3.937,-1.643 -3.937,-4.304 z"
   id="path95" />
					<path
   fill="#e44225"
   d="m 106.154,21.223 c 0,-3.873 2.529,-5.992 5.277,-5.992 1.752,0 2.834,0.8 3.611,1.73 v -5.71 h 3.289 v 15.791 h -3.289 v -1.666 c -0.799,1.082 -1.902,1.882 -3.611,1.882 -2.703,-10e-4 -5.277,-2.121 -5.277,-6.035 z m 8.934,0 c 0,-1.925 -1.277,-3.202 -2.813,-3.202 -1.536,0 -2.834,1.255 -2.834,3.245 0,1.926 1.298,3.201 2.834,3.201 1.536,0 2.813,-1.278 2.813,-3.244 z"
   id="path97" />
					<path
   d="m 121.012,11.899 h 3.33 v 12.112 h 7.549 v 3.029 h -10.879 z"
   id="path99" />
					<path
   d="m 132.495,21.266 c 0,-3.31 2.358,-6.035 5.731,-6.035 3.873,0 5.646,3.006 5.646,6.294 0,0.26 -0.021,0.563 -0.043,0.864 h -8.068 c 0.324,1.494 1.363,2.272 2.834,2.272 1.104,0 1.902,-0.347 2.813,-1.19 l 1.882,1.666 c -1.082,1.341 -2.639,2.163 -4.737,2.163 -3.485,10e-4 -6.058,-2.445 -6.058,-6.034 z m 8.176,-0.931 c -0.194,-1.471 -1.06,-2.465 -2.444,-2.465 -1.362,0 -2.25,0.974 -2.509,2.465 z"
   id="path101" />
					<path
   d="m 144.91,23.666 c 0,-2.53 1.924,-3.699 4.672,-3.699 1.168,0 2.012,0.195 2.834,0.477 v -0.195 c 0,-1.363 -0.844,-2.12 -2.488,-2.12 -1.254,0 -2.141,0.238 -3.201,0.627 l -0.822,-2.509 c 1.276,-0.563 2.531,-0.93 4.5,-0.93 1.795,0 3.092,0.476 3.914,1.298 0.865,0.865 1.254,2.141 1.254,3.699 v 6.726 h -3.178 v -1.254 c -0.801,0.888 -1.904,1.472 -3.505,1.472 -2.186,-10e-4 -3.98,-1.256 -3.98,-3.592 z m 7.547,-0.714 v -0.583 c -0.562,-0.26 -1.297,-0.434 -2.098,-0.434 -1.406,0 -2.271,0.563 -2.271,1.643 0,0.888 0.736,1.406 1.796,1.406 1.536,10e-4 2.573,-0.841 2.573,-2.032 z"
   id="path103" />
					<path
   d="m 157.799,15.447 h 3.288 v 2.336 c 0.671,-1.601 1.751,-2.638 3.698,-2.552 v 3.439 h -0.173 c -2.185,0 -3.525,1.32 -3.525,4.088 v 4.283 h -3.288 z"
   id="path105" />
					<path
   d="m 166.234,15.447 h 3.287 v 1.644 c 0.758,-0.973 1.73,-1.86 3.396,-1.86 2.488,0 3.937,1.644 3.937,4.304 v 7.504 h -3.287 v -6.466 c 0,-1.558 -0.735,-2.358 -1.991,-2.358 -1.254,0 -2.053,0.8 -2.053,2.358 v 6.466 h -3.289 z"
   id="path107" />
				</g>
			</g></g>
	</g>
</svg>
