<svg width="32" height="32" viewBox="0 0 32 32" fill="none" xmlns="http://www.w3.org/2000/svg">
<rect width="32" height="32" rx="8" fill="#4AB32D"/>
<path d="M8 9.6C8 8.71634 8.71634 8 9.6 8H12.8C13.6837 8 14.4 8.71634 14.4 9.6V13.6C14.4 14.4837 13.6837 15.2 12.8 15.2H9.6C8.71634 15.2 8 14.4837 8 13.6V9.6Z" fill="white"/>
<path d="M16 9.6C16 8.71634 16.7163 8 17.6 8H22.4C23.2837 8 24 8.71634 24 9.6V13.6C24 14.4837 23.2837 15.2 22.4 15.2H17.6C16.7163 15.2 16 14.4837 16 13.6V9.6Z" fill="white"/>
<path d="M8 18.4C8 17.5163 8.71634 16.8 9.6 16.8H16C16.8837 16.8 17.6 17.5163 17.6 18.4V22.4C17.6 23.2837 16.8837 24 16 24H9.6C8.71634 24 8 23.2837 8 22.4V18.4Z" fill="white"/>
<path d="M19.2 18.4C19.2 17.5163 19.9163 16.8 20.8 16.8H22.4C23.2837 16.8 24 17.5163 24 18.4V22.4C24 23.2837 23.2837 24 22.4 24H20.8C19.9163 24 19.2 23.2837 19.2 22.4V18.4Z" fill="white"/>
</svg>
