<svg width="1440" height="900" viewBox="0 0 1440 900" fill="none" xmlns="http://www.w3.org/2000/svg">
<g clip-path="url(#clip0_182_2390)">
<g opacity="0.4">
<g filter="url(#filter0_f_182_2390)">
<path d="M606.625 392.651C536.092 526.623 366.597 585.736 228.047 524.684L198.373 511.608C59.8234 450.556 4.68521 292.457 75.2185 158.486C145.752 24.5136 315.247 -34.5996 453.797 26.4526L483.47 39.5283C622.02 100.581 677.158 258.679 606.625 392.651Z" fill="url(#paint0_radial_182_2390)"/>
</g>
<g style="mix-blend-mode:overlay" filter="url(#filter1_f_182_2390)">
<path d="M232.265 1111.63C16.2066 1126.43 -173.263 963.451 -190.928 747.608C-208.592 531.765 -47.7627 344.793 168.295 329.993L238.475 325.186C454.533 310.386 644.002 473.364 661.667 689.207C679.331 905.049 518.502 1092.02 302.444 1106.82L232.265 1111.63Z" fill="url(#paint1_radial_182_2390)"/>
</g>
<g filter="url(#filter2_f_182_2390)">
<path d="M448.021 -136.703C764.157 -289.311 1162.62 -166.51 1338 137.581C1513.39 441.673 1399.28 811.902 1083.15 964.51L1026.8 991.713C710.659 1144.32 312.201 1021.52 136.816 717.429C-38.5696 413.338 75.5319 43.109 391.668 -109.5L448.021 -136.703Z" fill="url(#paint2_radial_182_2390)"/>
</g>
<g style="mix-blend-mode:hue" filter="url(#filter3_f_182_2390)">
<path d="M404.614 950.362C177.268 812.685 119.268 526.515 275.067 311.183C430.867 95.8513 741.468 32.8994 968.814 170.576L996.098 187.099C1223.44 324.776 1281.44 610.946 1125.64 826.278C969.845 1041.61 659.244 1104.56 431.897 966.885L404.614 950.362Z" fill="url(#paint3_radial_182_2390)"/>
</g>
<g style="mix-blend-mode:lighten" filter="url(#filter4_f_182_2390)">
<rect width="1145.46" height="1109.99" rx="554.995" transform="matrix(0.841829 0.539744 -0.608115 0.793849 196.365 -263.244)" fill="url(#paint4_radial_182_2390)"/>
</g>
<g style="mix-blend-mode:lighten" filter="url(#filter5_f_182_2390)">
<rect width="946.701" height="865.41" rx="432.705" transform="matrix(0.999156 -0.0410792 0.0490625 0.998796 11.6406 22.1152)" fill="url(#paint5_radial_182_2390)"/>
</g>
<g style="mix-blend-mode:overlay" filter="url(#filter6_f_182_2390)">
<path d="M865.72 -142.934C1037.94 -221.484 1250.98 -150.419 1341.56 15.7949C1432.13 182.009 1365.94 380.43 1193.72 458.98L1160.84 473.977C988.616 552.528 775.576 481.462 685.001 315.248C594.426 149.034 660.615 -49.3863 832.838 -127.937L865.72 -142.934Z" fill="url(#paint6_radial_182_2390)"/>
</g>
<g style="mix-blend-mode:lighten" filter="url(#filter7_f_182_2390)">
<path d="M933.297 -105.812C1082.84 -27.5185 1131.5 151.964 1041.99 295.073C952.468 438.182 758.67 490.725 609.126 412.431L585.384 400.001C435.839 321.707 387.177 142.225 476.695 -0.883952C566.212 -143.993 760.01 -196.536 909.555 -118.242L933.297 -105.812Z" fill="url(#paint7_radial_182_2390)"/>
</g>
</g>
<g opacity="0.05">
<mask id="mask0_182_2390" style="mask-type:luminance" maskUnits="userSpaceOnUse" x="0" y="0" width="1440" height="900">
<path d="M1440 0H0V900H1440V0Z" fill="white"/>
</mask>
<g mask="url(#mask0_182_2390)">
<path d="M-611.712 -294.84C-750.528 -215.82 -845.184 -82.4399 -855.552 106.38C-859.968 185.76 -836.928 259.2 -795.264 322.92C-686.4 489.6 -496.128 543.6 -355.2 666C-293.184 719.82 -242.112 791.28 -177.024 837C-111.936 882.72 -35.3281 904.5 38.0159 916.38C109.632 927.9 183.36 930.06 255.744 936.9C363.264 947.16 471.936 970.38 577.152 1006.56C656.64 1033.92 747.072 1068.12 809.856 1139.04" stroke="#272F37" stroke-miterlimit="10"/>
<path d="M802.56 1140.84C725.184 1055.52 611.904 1018.08 515.52 988.921C428.352 962.641 338.688 944.641 249.792 934.201C178.176 925.741 104.832 921.421 33.9841 908.461C-36.4799 895.501 -108.864 874.081 -170.688 831.061C-231.744 788.761 -282.432 719.101 -340.224 667.441C-470.4 550.981 -653.376 501.301 -756.48 345.241C-795.648 285.841 -820.032 215.101 -814.272 140.761C-810.24 89.8211 -798.528 41.4011 -781.632 -5.03887C-765.888 -48.2389 -745.728 -90.7189 -724.416 -130.679C-713.088 -152.099 -700.8 -173.519 -687.36 -193.319C-674.112 -212.939 -658.752 -231.659 -643.008 -247.499C-625.728 -264.779 -607.104 -277.919 -586.368 -290.879" stroke="#272F37" stroke-miterlimit="10"/>
<path d="M796.416 1142.46C718.272 1058.04 606.72 1018.8 510.144 988.919C423.36 962.099 333.696 943.739 244.992 931.859C173.952 922.319 101.376 915.479 30.9121 901.079C-35.3279 887.579 -103.104 867.419 -163.584 825.839C-223.68 784.619 -269.376 718.559 -324.48 669.779C-447.744 560.699 -619.392 514.619 -716.736 367.919C-753.408 311.939 -778.56 244.259 -771.84 174.959C-766.848 123.839 -751.104 77.2192 -732.864 30.4192C-715.392 -14.0408 -695.808 -58.3208 -678.528 -103.141C-669.312 -126.721 -660.288 -150.841 -650.496 -174.061C-640.704 -196.921 -628.416 -218.701 -614.976 -236.701C-599.424 -257.761 -582.528 -271.801 -561.024 -286.381" stroke="#272F37" stroke-miterlimit="10"/>
<path d="M799.488 1142.82C720.192 1059.66 610.752 1018.98 513.792 988.74C427.2 961.74 337.728 943.56 249.024 930.42C178.368 919.98 107.136 910.62 36.8642 895.5C-26.1118 882 -92.5438 862.92 -147.456 823.14C-202.56 783.18 -248.256 721.62 -300.096 675C-413.952 572.58 -577.344 530.64 -668.736 394.2C-703.488 342.54 -729.024 278.46 -721.728 213.3C-715.776 161.64 -696.384 115.92 -676.992 69.1198C-657.984 23.5798 -638.4 -23.0402 -626.112 -72.3602C-619.584 -98.2802 -614.016 -125.64 -607.296 -151.02C-600.576 -176.22 -592.32 -200.88 -580.992 -221.76C-567.552 -246.6 -552.192 -261.18 -529.92 -277.74" stroke="#272F37" stroke-miterlimit="10"/>
<path d="M805.824 1142.64C725.376 1060.74 617.856 1019.16 520.512 988.739C434.112 961.739 344.832 943.739 256.32 929.699C186.24 918.539 115.2 907.559 46.0801 890.999C-14.0159 876.419 -73.9199 858.059 -128.256 821.699C-181.632 786.059 -223.104 725.759 -272.832 681.659C-381.888 584.819 -531.072 546.659 -617.856 421.379C-650.688 374.039 -676.224 312.299 -668.352 251.639C-661.632 199.259 -638.208 154.079 -618.048 107.099C-597.696 59.7594 -579.264 9.71945 -571.008 -42.3005C-566.784 -69.6605 -564.864 -100.081 -561.6 -127.981C-558.336 -155.701 -553.728 -182.881 -544.512 -206.281C-533.568 -234.541 -519.552 -249.661 -496.32 -268.561" stroke="#272F37" stroke-miterlimit="10"/>
<path d="M813.312 1142.28C731.712 1061.82 625.92 1019.16 528.192 988.561C441.984 961.561 352.896 943.921 264.384 928.981C194.688 917.101 124.608 904.321 55.872 886.501C4.1169e-05 872.101 -59.328 856.261 -108.48 820.261C-157.632 784.261 -198.528 730.081 -244.8 688.141C-344.256 597.961 -485.76 563.221 -566.4 447.481C-597.12 403.381 -622.272 345.421 -614.208 288.901C-606.528 235.801 -579.456 190.801 -558.528 143.461C-536.832 94.5011 -520.32 42.1211 -515.904 -13.6789C-513.6 -43.1989 -515.904 -75.5989 -515.904 -105.659C-515.904 -135.539 -514.368 -163.079 -508.224 -190.979C-502.08 -219.419 -485.568 -245.339 -463.296 -259.379" stroke="#272F37" stroke-miterlimit="10"/>
<path d="M821.568 1141.74C739.008 1062.72 634.752 1018.98 536.832 988.199C450.816 961.199 361.728 943.919 273.408 928.079C204.288 915.659 134.976 901.079 66.6241 881.999C13.0561 867.059 -40.1279 851.039 -87.9359 818.639C-134.976 786.779 -171.84 733.499 -216.192 694.259C-309.888 610.919 -438.912 578.519 -513.792 471.959C-542.4 431.099 -566.592 376.379 -558.528 324.179C-550.08 270.179 -519.36 224.999 -497.664 177.119C-474.816 126.539 -459.84 71.2788 -459.648 12.4188C-459.456 -19.0812 -465.216 -52.7413 -469.44 -85.3213C-473.28 -115.741 -475.584 -147.061 -471.168 -176.941C-466.752 -208.081 -452.352 -236.161 -429.504 -251.281" stroke="#272F37" stroke-miterlimit="10"/>
<path d="M830.208 1141.02C746.496 1063.44 643.968 1018.8 545.664 987.84C459.648 960.84 370.56 943.92 282.816 927.18C214.272 914.22 145.536 897.66 77.7599 877.5C28.7999 862.92 -23.8081 848.88 -67.0081 816.84C-110.016 784.98 -146.496 736.92 -187.008 700.02C-270.912 623.7 -393.024 592.74 -460.992 494.82C-486.528 457.92 -511.104 405.54 -502.272 357.3C-492.096 301.68 -459.84 257.22 -436.416 208.08C-411.648 155.88 -398.016 95.7596 -403.2 36.1796C-406.08 3.05959 -414.912 -32.2204 -422.592 -66.4204C-429.888 -98.2804 -435.648 -131.22 -433.92 -163.8C-432.192 -196.74 -419.328 -227.52 -395.52 -243.9" stroke="#272F37" stroke-miterlimit="10"/>
<path d="M839.04 1140.3C754.368 1064.16 653.376 1018.44 554.688 987.479C468.864 960.479 379.776 943.919 292.224 926.459C224.064 912.779 156.288 894.599 88.896 873.179C43.2 858.599 -4.60799 844.919 -46.08 815.219C-87.36 785.519 -119.616 740.159 -158.016 705.599C-235.968 635.579 -346.368 605.699 -408 516.059C-431.616 481.859 -454.272 432.719 -445.632 388.619C-434.496 331.739 -398.016 286.559 -374.976 236.519C-349.824 181.979 -337.152 120.418 -346.944 57.4185C-352.32 22.4985 -365.376 -14.2216 -376.128 -49.3216C-386.304 -82.4416 -396.096 -116.462 -396.864 -151.922C-397.824 -190.082 -384.768 -214.922 -361.92 -237.602" stroke="#272F37" stroke-miterlimit="10"/>
<path d="M847.872 1139.58C762.24 1065.06 662.784 1018.08 563.904 987.121C478.272 960.301 388.992 943.921 301.824 925.561C234.24 911.341 166.848 891.541 100.224 868.681C58.1759 854.101 13.2479 841.321 -24.9601 813.061C-63.3601 784.801 -93.1201 742.861 -128.64 710.461C-199.104 646.201 -299.904 617.221 -354.624 535.501C-376.896 502.201 -395.904 458.641 -388.416 417.781C-377.856 360.721 -336.576 313.561 -313.152 262.261C-287.04 205.561 -277.44 143.281 -290.496 76.3208C-297.792 38.8808 -315.456 1.44076 -329.472 -34.0192C-343.296 -69.1192 -357.12 -106.019 -359.808 -141.119C-362.688 -178.739 -353.664 -205.559 -328.512 -232.199" stroke="#272F37" stroke-miterlimit="10"/>
<path d="M856.896 1138.68C770.496 1065.6 672.192 1017.72 573.12 986.58C487.68 959.76 398.4 943.74 311.424 924.66C244.224 909.9 177.216 888.66 111.36 864.18C72.768 849.78 31.104 837.36 -4.032 810.9C-39.36 784.26 -66.624 745.56 -99.456 715.14C-162.24 656.82 -253.44 628.56 -301.44 553.5C-321.408 522 -338.112 482.58 -331.008 444.96C-319.68 385.92 -276.672 339.12 -251.328 285.66C-223.68 227.52 -217.344 158.94 -234.432 93.0601C-244.608 54.0001 -265.344 16.0201 -283.2 -20.1599C-300.288 -54.7199 -318.72 -93.9599 -323.136 -131.04C-327.936 -171.36 -321.024 -198.54 -295.488 -227.34" stroke="#272F37" stroke-miterlimit="10"/>
<path d="M866.112 1137.78C778.752 1066.32 681.792 1017.18 582.528 986.039C497.28 959.219 407.808 943.559 321.216 923.579C254.4 908.279 187.968 885.599 122.88 859.319C86.5921 844.739 49.3441 831.239 17.0881 808.019C-14.7839 785.159 -40.1279 747.359 -69.8879 718.739C-124.992 665.639 -207.168 637.019 -247.872 569.159C-265.344 540.179 -280.32 504.179 -273.024 469.619C-259.968 408.599 -215.232 361.079 -189.12 305.819C-160.704 245.339 -157.056 173.699 -178.176 106.739C-191.04 66.2388 -216 28.0788 -236.736 -8.64122C-256.896 -44.2812 -276.288 -81.3612 -286.08 -122.941C-294.912 -160.021 -287.424 -201.961 -262.08 -224.281" stroke="#272F37" stroke-miterlimit="10"/>
<path d="M875.136 1136.88C787.008 1066.86 691.2 1016.64 591.744 985.5C506.496 958.68 417.216 943.38 330.816 922.68C264.384 906.84 198.336 882.9 134.016 854.82C101.376 840.6 67.3922 828 37.8242 805.5C8.64019 783.18 -14.5918 749.52 -40.8958 722.52C-89.0878 673.02 -159.936 644.58 -194.88 583.74C-210.048 557.46 -222.528 523.8 -215.232 492.66C-200.832 430.02 -153.984 381.24 -127.296 323.82C-98.1118 260.82 -97.1518 185.94 -122.688 118.62C-138.432 77.04 -166.848 38.8799 -190.848 1.79994C-214.272 -34.2001 -236.928 -72.0001 -249.792 -115.2C-260.928 -152.82 -255.552 -197.46 -229.632 -221.58" stroke="#272F37" stroke-miterlimit="10"/>
<path d="M884.352 1135.98C795.456 1067.58 700.8 1016.28 601.344 984.959C516.288 958.319 426.816 943.199 340.8 921.599C274.752 905.039 209.088 880.199 145.536 850.139C116.16 836.279 85.44 823.679 58.752 802.619C32.448 781.739 11.52 750.059 -11.52 725.759C-51.648 683.639 -110.016 651.959 -141.312 596.519C-155.136 572.219 -163.2 539.459 -156.672 513.539C-140.736 449.279 -92.736 398.879 -65.088 339.299C-35.136 274.679 -37.44 194.939 -67.008 128.339C-85.824 85.4987 -117.12 47.6988 -144.96 10.6188C-171.264 -24.6612 -201.216 -65.1613 -213.312 -108.721C-224.064 -147.601 -226.176 -191.341 -196.992 -219.781" stroke="#272F37" stroke-miterlimit="10"/>
<path d="M893.568 1134.9C804.096 1068.12 710.208 1015.56 610.752 984.24C525.888 957.6 436.416 942.66 350.592 920.52C284.928 903.42 219.456 877.68 156.672 845.28C130.56 831.78 101.76 819.36 79.4881 799.38C57.2161 779.4 37.8241 751.68 17.4721 728.28C-15.7439 690.48 -68.352 655.38 -88.32 607.5C-97.728 585.18 -105.6 557.28 -98.4959 532.08C-79.6799 464.94 -31.4879 414.18 -3.64794 351.9C26.6881 284.22 21.1201 201.96 -12.0959 135.36C-33.9839 91.7998 -68.5439 54.3598 -99.4559 17.2798C-128.832 -18.0002 -162.624 -58.5002 -177.216 -103.68C-189.888 -142.92 -194.496 -189 -164.736 -219.24" stroke="#272F37" stroke-miterlimit="10"/>
<path d="M902.784 1133.82C812.544 1068.48 719.616 1014.84 620.16 983.519C535.296 956.879 445.824 942.299 360.384 919.259C294.912 901.619 229.632 875.519 168 840.419C144.96 827.279 120.576 814.499 100.224 795.779C80.0639 777.419 63.744 752.219 46.656 730.259C19.968 696.059 -18.8161 660.239 -35.3281 616.499C-42.6241 597.239 -45.8881 567.539 -40.1281 548.279C-19.0081 479.519 29.9519 426.599 57.9839 361.798C88.704 291.058 80.2559 206.818 42.4319 140.038C17.4719 95.7585 -20.9281 59.2185 -54.5281 22.3185C-86.7841 -13.1415 -121.536 -52.2016 -141.504 -99.7216C-157.056 -136.622 -163.2 -192.962 -133.056 -219.602" stroke="#272F37" stroke-miterlimit="10"/>
<path d="M912 1132.56C821.184 1068.84 729.024 1013.94 629.568 982.8C544.896 956.16 455.424 941.94 369.984 918.18C304.704 900 239.232 874.44 178.944 835.56C158.976 822.6 137.088 809.82 120.384 792.18C103.872 774.54 89.088 753.3 75.264 732.06C53.568 698.94 27.072 665.28 17.088 624.24C12.288 604.26 12.096 581.22 18.048 562.86C40.704 493.2 90.624 437.22 118.848 369.54C149.76 295.74 137.856 209.34 96.192 142.74C68.352 97.9203 26.496 62.2803 -9.98397 25.9203C-45.312 -9.17968 -83.328 -47.8797 -106.176 -96.6597C-123.456 -133.56 -132.48 -192.42 -101.76 -220.68" stroke="#272F37" stroke-miterlimit="10"/>
<path d="M921.408 1131.48C830.016 1069.38 738.624 1013.22 639.168 982.08C554.688 955.44 465.216 941.399 379.968 917.099C315.072 898.559 249.216 872.459 190.272 830.699C173.568 818.819 155.52 804.599 141.12 788.399C127.104 772.919 114.24 752.76 104.448 733.32C87.936 700.92 72.384 668.519 70.08 630.359C68.928 611.819 70.848 592.019 76.8 575.459C102.336 504.539 151.872 445.5 180.096 374.94C211.008 297.9 195.456 209.52 150.144 143.46C119.232 98.4595 74.688 63.7195 34.752 28.2595C-4.224 -6.30047 -44.352 -44.4605 -70.656 -94.5005C-90.048 -131.58 -101.76 -192.42 -70.272 -222.48" stroke="#272F37" stroke-miterlimit="10"/>
<path d="M930.624 1130.22C838.656 1069.74 748.416 1013.22 648.576 981.18C503.808 934.74 326.016 934.38 201.408 825.48C136.128 768.42 97.728 676.26 135.168 585.72C164.928 513.18 213.312 451.26 240.576 377.64C270.336 297.18 253.056 208.08 202.944 141.84C168.96 96.8403 120.768 63.3603 78.336 28.8003C36.672 -5.21969 -9.60001 -43.1997 -36.096 -93.4197C-55.296 -129.96 -73.536 -191.7 -39.936 -225.18" stroke="#272F37" stroke-miterlimit="10"/>
<path d="M955.968 1125.18C867.456 1062 779.136 1007.28 681.024 976.499C571.2 941.939 456 930.059 346.944 888.119C308.928 873.539 268.8 854.099 236.16 826.199C170.688 769.859 130.944 680.759 163.008 587.339C163.968 584.639 164.928 581.579 165.888 578.879C192.768 509.579 236.928 447.479 260.16 376.019C262.656 368.099 264.768 359.459 266.496 351.179C282.816 274.859 258.432 197.639 214.08 141.479C179.328 97.5594 131.328 65.1594 88.8961 31.3194C67.0081 13.6794 44.7361 -4.6806 24.9601 -24.6606C5.95208 -43.9206 -12.0959 -65.1606 -25.5359 -88.9206C-44.9279 -123.481 -63.5519 -186.121 -30.5279 -220.141" stroke="#272F37" stroke-miterlimit="10"/>
<path d="M981.12 1119.78C896.256 1053.54 809.472 1000.98 713.28 971.28C604.224 937.62 489.6 927 381.312 886.32C343.488 872.1 303.552 853.38 270.912 826.02C205.248 771.12 162.816 682.92 191.04 588.42C191.808 585.54 192.768 582.66 193.728 579.96C217.728 509.94 259.776 446.22 280.32 374.22C282.624 366.3 284.16 357.66 285.696 349.2C298.944 271.98 271.104 196.02 225.792 141.12C190.464 98.2798 142.272 66.9598 99.84 33.8398C77.76 16.7398 55.488 -1.2602 35.712 -20.8802C16.704 -39.7802 -1.34395 -60.8402 -14.976 -84.2402C-34.56 -118.26 -53.568 -180.36 -21.312 -214.74" stroke="#272F37" stroke-miterlimit="10"/>
<path d="M1006.27 1114.2C925.44 1044.72 839.616 994.14 745.536 965.7C637.44 932.94 523.776 924.66 415.68 884.34C377.856 870.3 338.304 852.3 305.664 825.66C239.808 772.02 194.496 685.08 219.264 589.32C220.032 586.44 220.608 583.56 221.568 580.68C242.88 509.94 282.624 444.96 300.288 372.24C302.208 364.32 303.552 355.5 304.512 347.04C314.688 269.1 283.392 194.04 237.312 140.76C201.216 99.1802 153.216 68.7602 110.592 36.3602C88.5121 19.6202 66.2401 1.98016 46.4641 -17.2798C27.4561 -35.8198 9.40813 -56.5198 -4.22387 -79.7398C-23.9999 -113.4 -43.3919 -174.78 -11.7119 -209.34" stroke="#272F37" stroke-miterlimit="10"/>
<path d="M1031.42 1108.26C955.008 1035.18 869.568 986.761 777.792 959.581C670.272 927.721 557.568 920.52 449.856 881.64C412.224 867.96 372.864 850.501 340.224 824.581C274.56 772.201 226.176 686.701 247.104 589.681C247.68 586.801 248.256 583.74 249.024 581.04C267.456 509.58 305.28 443.161 319.872 370.261C321.408 362.161 322.368 353.341 323.136 344.881C330.048 266.221 295.68 192.421 248.448 140.581C211.776 100.261 163.776 70.7405 121.152 39.0605C99.0719 22.6805 76.7999 5.40055 57.0239 -13.4995C38.0159 -31.6795 19.9679 -52.0194 6.14387 -75.0594C-13.6321 -108.359 -33.6001 -169.199 -2.49613 -203.939" stroke="#272F37" stroke-miterlimit="10"/>
<path d="M1056.58 1101.96C985.152 1025.28 899.328 978.839 809.856 952.739C703.296 921.599 589.632 916.739 484.032 878.039C446.208 864.179 407.808 847.079 374.784 822.599C309.504 773.999 257.856 687.239 275.136 589.499C275.712 586.619 276.096 583.559 276.672 580.859C292.416 508.859 327.936 441.179 339.648 367.739C340.992 359.639 341.568 350.819 341.952 342.359C345.792 263.159 308.16 190.619 259.968 140.219C222.72 100.979 174.912 72.539 132.096 41.579C110.016 25.739 87.744 8.81897 67.968 -9.72103C48.96 -27.541 30.912 -47.701 17.088 -70.381C-2.88001 -103.321 -23.232 -163.441 7.10402 -198.541" stroke="#272F37" stroke-miterlimit="10"/>
<path d="M1081.54 1095.3C1015.49 1015.02 928.704 970.381 841.536 945.361C735.552 914.941 622.848 911.341 517.632 873.901C480 860.401 441.792 843.841 408.768 819.901C343.104 772.381 289.152 687.061 302.592 588.601C302.976 585.721 303.36 582.661 303.936 579.781C316.992 507.421 350.208 438.301 359.04 364.681C360 356.581 360.192 347.581 360.384 339.121C361.152 259.381 320.256 188.281 271.296 139.141C233.28 101.161 185.664 73.801 142.848 43.381C120.768 27.721 98.496 11.341 78.72 -6.83904C59.712 -24.479 41.664 -44.099 27.84 -66.599C7.68 -99.179 -13.056 -158.579 16.704 -194.039" stroke="#272F37" stroke-miterlimit="10"/>
<path d="M1106.5 1088.28C1046.4 1004.22 957.888 961.2 873.216 937.44C768 907.92 656.064 905.4 551.424 869.22C514.176 856.26 475.968 840.6 442.944 816.84C376.512 768.96 320.64 686.52 330.24 587.52C330.432 584.64 330.816 581.58 331.2 578.7C341.568 505.98 372.48 435.42 378.624 361.62C379.392 353.52 379.2 344.52 378.816 336.06C376.32 255.96 332.928 186.3 282.432 138.42C243.648 101.7 196.416 75.24 153.408 45.54C131.328 30.42 109.056 14.4 89.2801 -3.60002C70.2721 -20.88 52.2241 -40.32 38.2081 -62.46C18.0481 -94.68 -3.26391 -153.36 25.9201 -189" stroke="#272F37" stroke-miterlimit="10"/>
<path d="M1131.46 1081.08C1077.7 993.419 987.072 951.659 904.896 929.159C800.448 900.359 689.088 898.919 585.024 863.999C547.968 851.579 510.144 836.279 476.928 813.059C410.112 766.259 351.936 685.439 357.888 586.079C358.08 583.199 358.272 580.139 358.464 577.259C366.144 504.179 394.752 432.539 398.016 358.559C398.4 350.279 397.824 341.459 397.248 332.819C391.488 252.539 345.216 184.139 293.76 137.699C254.592 102.239 207.168 76.6791 164.16 47.879C142.08 33.119 119.808 17.4591 100.032 -0.180947C81.024 -17.1009 64.32 -36.0009 48.96 -58.1409C26.88 -90.1809 8.25601 -149.581 35.52 -183.961" stroke="#272F37" stroke-miterlimit="10"/>
<path d="M1156.22 1073.34C1109.18 982.259 1015.68 941.579 936.384 919.979C832.512 891.899 722.112 891.719 618.432 857.879C581.568 845.819 543.936 831.059 510.72 808.379C443.52 762.659 383.232 683.279 385.344 583.739C385.344 580.859 385.344 577.619 385.536 574.739C390.528 501.479 416.832 428.579 417.408 354.599C417.408 346.319 416.64 337.499 415.68 328.859C406.848 248.399 357.696 181.619 305.088 136.259C265.344 102.059 218.112 77.3991 174.912 49.3191C152.832 34.9191 130.56 19.6191 110.784 2.51905C91.7759 -14.0409 75.0719 -32.7609 59.7119 -54.5409C37.6319 -86.0409 18.4319 -144.901 45.1199 -179.461" stroke="#272F37" stroke-miterlimit="10"/>
<path d="M1180.8 1065.42C1140.86 971.098 1044.29 930.958 967.488 910.438C864.384 882.898 754.56 883.798 651.456 851.218C614.784 839.518 577.344 825.118 544.128 803.158C476.544 758.338 413.952 680.758 412.416 581.218C412.416 578.338 412.224 575.098 412.416 572.218C414.72 498.778 438.72 424.618 436.416 350.818C436.224 342.538 435.072 333.718 433.728 325.078C421.824 244.618 369.984 179.458 316.224 135.358C275.904 102.418 228.864 78.8384 185.472 51.2984C163.392 37.2584 141.12 22.4984 121.344 5.57842C102.336 -10.6216 85.632 -28.9816 70.272 -50.5816C48 -81.7216 28.6079 -139.862 54.5279 -174.602" stroke="#272F37" stroke-miterlimit="10"/>
<path d="M1204.8 1057.5C1171.97 960.299 1072.32 920.159 998.016 900.719C895.488 873.899 785.856 874.619 683.904 844.199C647.616 833.399 610.176 818.819 576.96 797.579C508.992 753.839 444.288 677.699 439.104 578.339C438.912 575.279 438.72 572.219 438.72 569.339C438.336 495.899 460.032 420.479 455.04 346.859C454.464 338.579 452.928 329.759 451.392 321.119C436.224 240.659 381.504 175.859 326.976 134.279C286.464 103.319 239.232 79.7387 195.84 53.0987C173.952 39.5987 151.488 25.0187 131.712 8.45875C112.704 -7.38125 95.9999 -25.5613 80.6399 -46.9813C58.3679 -77.7613 38.4 -135.181 63.744 -170.281" stroke="#272F37" stroke-miterlimit="10"/>
<path d="M1228.42 1049.22C1203.07 949.32 1100.16 909 1027.97 890.28C926.208 864 817.152 865.8 715.776 836.46C679.68 826.02 642.432 811.98 609.216 791.1C540.672 748.26 474.048 673.919 465.216 574.739C465.024 571.679 464.64 568.619 464.448 565.739C461.376 492.299 480.768 415.799 473.28 342.359C472.512 334.079 470.592 325.259 468.672 316.619C450.432 236.339 393.216 173.159 337.344 132.659C296.448 102.959 249.216 80.2794 205.824 54.3594C183.936 41.2194 161.472 26.9994 141.696 10.7994C123.456 -4.14062 105.216 -22.3206 90.6241 -43.7406C68.7361 -75.4206 47.8081 -130.861 72.7681 -166.141" stroke="#272F37" stroke-miterlimit="10"/>
<path d="M1251.65 1040.94C1233.6 938.699 1128 897.659 1057.54 879.659C956.352 853.919 847.872 856.799 747.264 828.359C711.36 818.279 674.304 804.419 641.088 784.259C571.968 742.319 503.424 669.599 491.136 570.959C490.752 567.899 490.368 564.839 490.176 561.959C484.608 488.519 501.696 411.119 491.328 337.859C490.176 329.579 488.064 320.759 485.76 312.299C464.448 232.379 404.736 170.819 347.712 131.399C306.432 102.959 259.2 80.9994 215.808 55.9794C193.92 43.3794 171.648 29.3393 151.872 13.4993C133.632 -1.08065 115.392 -19.0806 100.8 -40.1406C78.9121 -71.4606 57.6001 -126.181 81.7921 -161.641" stroke="#272F37" stroke-miterlimit="10"/>
<path d="M1274.5 1032.48C1263.74 928.08 1155.65 886.14 1086.53 868.68C986.112 843.48 878.976 848.34 778.176 819.72C742.272 809.64 705.6 796.5 672.576 776.88C603.072 735.84 532.608 664.92 516.672 566.64C516.096 563.58 515.712 560.52 515.328 557.64C507.264 484.38 521.856 405.9 508.992 333C507.456 324.72 505.152 315.9 502.464 307.44C478.272 227.88 416.064 167.94 357.888 129.78C316.224 102.42 268.992 81.54 225.6 57.24C203.712 45 181.44 31.5 161.664 15.84C143.424 1.44001 125.184 -16.2 110.592 -36.9C88.7039 -67.68 66.816 -121.86 90.624 -157.5" stroke="#272F37" stroke-miterlimit="10"/>
<path d="M1296.96 1023.66C1293.31 917.281 1183.49 874.081 1115.33 857.161C1015.49 832.321 909.12 838.081 808.896 810.541C773.184 800.641 736.896 788.041 703.68 768.961C633.6 728.821 561.216 659.701 542.016 562.141C541.44 559.261 540.672 556.021 540.288 553.141C529.728 480.061 541.824 400.681 526.464 328.141C524.736 319.861 522.048 311.221 518.976 302.761C491.52 224.821 428.736 164.701 367.68 128.341C324.672 102.601 278.4 82.2606 235.008 58.6806C213.12 46.8006 190.848 33.6606 171.072 18.3606C152.832 4.32061 133.632 -12.9594 120 -33.6594C97.728 -67.4994 77.184 -112.139 99.072 -153.359" stroke="#272F37" stroke-miterlimit="10"/>
<path d="M1319.23 1014.84C1322.5 906.659 1211.52 861.839 1143.55 845.279C1044.29 820.979 938.496 827.639 838.848 800.999C803.328 791.459 767.232 779.219 734.016 760.679C663.168 721.259 589.248 654.119 566.592 557.279C565.824 554.399 565.056 551.159 564.672 548.279C551.616 475.379 561.216 395.099 543.36 323.099C541.248 314.819 538.176 306.179 534.912 297.719C504.576 220.139 439.488 161.819 377.088 126.719C333.696 102.239 287.424 82.7993 244.032 59.9393C222.144 48.4193 200.064 35.6393 180.288 20.6993C162.24 7.01927 142.848 -10.0807 129.216 -30.4207C106.752 -63.9007 86.016 -108.001 107.136 -149.221" stroke="#272F37" stroke-miterlimit="10"/>
<path d="M1341.12 1005.66C1350.91 895.859 1239.74 849.419 1171.58 832.859C1072.9 808.919 967.872 816.479 868.608 790.739C833.28 781.559 797.376 769.499 764.16 751.679C692.736 713.159 616.896 647.819 590.976 551.879C590.208 548.999 589.248 545.939 588.672 542.879C573.12 470.339 580.416 389.159 559.872 317.699C557.568 309.419 554.112 300.779 550.656 292.499C516.672 213.839 449.664 160.199 386.496 124.919C343.872 101.159 296.64 82.9792 253.248 60.8392C231.552 49.6792 209.28 37.2592 189.504 22.4992C171.456 8.9992 152.256 -7.56078 138.432 -27.9008C115.968 -60.8408 94.848 -104.401 115.392 -145.801" stroke="#272F37" stroke-miterlimit="10"/>
<path d="M1363.01 996.48C1379.14 885.24 1268.16 836.82 1199.42 820.26C1101.31 796.68 996.672 805.141 898.368 780.121C787.968 752.041 648.576 677.88 612.864 537.12C592.32 456.48 600.192 363.42 566.592 287.1C532.992 210.6 460.416 157.14 396.096 123.12C331.968 89.2805 257.856 67.6805 198.912 24.6605C158.4 -5.03952 91.2001 -77.2195 123.84 -142.02" stroke="#272F37" stroke-miterlimit="10"/>
<path d="M1368.38 994.321C1387.58 903.601 1304.64 849.601 1246.85 827.641C1234.56 822.961 1220.93 819.361 1206.91 816.121C1120.32 796.501 1031.62 797.041 945.216 781.201C932.544 778.861 919.872 776.161 907.968 772.921C811.008 746.461 701.952 689.221 650.304 574.921C643.2 559.081 637.248 542.701 633.792 526.681C620.16 462.961 623.808 392.221 610.368 328.321C606.72 311.041 600.384 293.041 592.512 275.941C581.568 252.181 566.592 231.661 550.848 212.941C514.368 169.381 466.368 138.061 419.52 114.661C367.872 88.9209 311.04 70.561 259.008 43.921C245.952 37.261 232.896 29.3409 220.608 20.8809C198.144 5.40092 177.216 -15.2991 160.512 -38.6991C139.968 -67.6791 127.296 -111.239 143.808 -144.539" stroke="#272F37" stroke-miterlimit="10"/>
<path d="M1373.76 992.339C1396.42 901.259 1312.13 845.82 1254.14 823.68C1241.86 819 1228.22 815.22 1214.21 811.98C1128.19 792 1040.06 791.639 954.24 774.539C941.76 772.019 929.28 769.14 917.568 765.72C822.72 737.999 715.968 679.139 669.12 564.299C662.592 548.459 657.408 531.9 654.528 515.88C643.008 451.62 648.192 380.879 635.52 316.799C632.064 299.339 625.92 281.339 618.048 264.239C607.296 240.299 592.128 219.779 576.384 201.419C539.52 158.039 490.368 128.159 442.944 106.019C390.72 81.7195 333.888 64.6195 281.28 39.2395C268.032 32.7595 254.976 25.3794 242.496 17.2794C219.648 2.33944 198.336 -17.8206 181.248 -41.0406C160.128 -69.8406 147.264 -113.581 163.968 -147.061" stroke="#272F37" stroke-miterlimit="10"/>
<path d="M1379.33 990.18C1405.25 898.92 1319.81 842.04 1261.82 819.72C1249.54 815.04 1235.71 811.26 1221.7 807.84C1136.26 787.68 1049.09 787.14 963.456 767.7C951.168 764.82 938.88 761.94 927.36 758.34C834.624 729.179 730.176 668.52 687.936 553.32C681.984 537.3 677.376 520.739 675.072 504.539C665.664 439.559 672.384 369.18 660.288 304.56C657.024 287.1 650.88 268.92 643.2 251.82C632.448 227.88 617.28 207.36 601.344 189C564.48 146.52 513.984 116.64 465.984 96.4795C412.608 73.9795 356.16 57.7796 303.168 33.8396C289.728 27.7196 276.48 20.5195 264 12.7795C240.768 -1.62047 219.072 -21.4205 201.6 -44.2805C179.904 -72.7205 166.848 -116.82 183.744 -150.48" stroke="#272F37" stroke-miterlimit="10"/>
<path d="M1384.9 988.2C1414.27 896.58 1327.68 838.44 1269.5 815.76C1257.22 810.9 1243.39 807.12 1229.38 803.7C1144.32 783.18 1057.73 781.74 972.672 761.04C960.576 757.98 948.48 754.92 937.152 751.14C846.144 720.72 744.384 658.08 706.56 542.34C701.376 526.32 697.344 509.58 695.424 493.38C688.128 427.86 696.384 357.3 685.056 292.32C681.984 274.86 676.032 256.5 668.352 239.22C657.6 215.1 642.24 194.58 626.304 176.4C589.056 134.28 537.408 105.84 488.832 86.7599C435.072 65.5199 378.432 50.9399 325.056 28.0799C311.616 22.3199 298.176 15.48 285.504 7.91996C262.08 -5.94004 238.08 -24.6601 221.952 -47.8801C201.408 -77.4001 184.704 -116.82 203.328 -154.08" stroke="#272F37" stroke-miterlimit="10"/>
<path d="M1390.27 986.041C1422.91 894.421 1335.36 834.661 1276.8 811.801C1264.51 806.941 1250.69 803.161 1236.67 799.741C1152.19 778.861 1065.98 776.521 981.504 754.381C969.6 751.141 957.696 747.901 946.368 743.941C857.088 712.081 757.824 647.281 724.608 531.181C720 514.981 716.544 498.061 715.392 481.861C710.016 415.621 719.808 345.241 709.248 279.541C706.368 261.901 700.416 243.541 692.928 226.261C682.368 201.961 666.816 181.621 650.688 163.621C612.864 121.681 560.448 94.6806 511.296 76.8606C457.152 57.0606 400.32 43.7406 346.56 22.3206C333.12 16.9206 319.488 10.2606 306.624 3.06062C282.816 -10.2594 258.432 -28.4394 242.112 -51.4794C221.184 -80.6394 204.096 -120.419 222.912 -157.859" stroke="#272F37" stroke-miterlimit="10"/>
<path d="M1395.84 984.06C1431.74 892.26 1343.42 831.06 1284.48 807.84C1272 802.98 1258.18 798.84 1244.35 795.6C1160.83 775.26 1074.05 770.04 990.72 747.54C979.008 744.3 967.104 740.7 956.16 736.56C868.416 703.08 771.84 636.3 743.04 519.66C739.008 503.28 736.32 486.36 735.552 469.98C732.288 403.02 743.616 332.64 733.44 266.22C730.752 248.58 724.8 229.86 717.312 212.58C706.752 188.1 691.2 167.76 674.88 149.94C636.672 108.36 583.104 82.8003 533.76 66.2403C479.232 47.8803 422.208 35.8203 368.256 15.6603C354.624 10.6203 340.992 4.32031 327.936 -2.51969C303.936 -15.2997 279.168 -32.7597 262.272 -55.6197C240.96 -84.4197 223.296 -124.38 242.496 -162.18" stroke="#272F37" stroke-miterlimit="10"/>
<path d="M1401.22 981.9C1427.9 884.52 1361.28 831.06 1291.78 803.7C1279.3 798.84 1265.47 794.7 1251.65 791.28C1168.7 770.58 1082.11 764.46 999.552 740.52C988.032 737.1 976.32 733.32 965.568 729C878.976 693.9 785.28 624.78 761.088 507.96C757.632 491.4 755.52 474.3 755.136 457.74C753.984 390.06 766.464 319.68 757.056 252.54C754.56 234.72 748.8 216 741.312 198.54C730.752 174.06 715.2 153.54 698.688 135.9C660.096 94.6803 605.568 70.5603 555.648 55.2603C500.736 38.3403 443.52 27.7203 389.184 8.82034C375.552 4.14034 361.728 -1.79968 348.48 -8.45968C324.288 -20.6997 298.944 -37.6197 281.856 -60.1197C260.16 -88.7397 242.112 -128.88 261.312 -166.68" stroke="#272F37" stroke-miterlimit="10"/>
<path d="M1406.59 979.741C1435.97 882.001 1369.34 827.461 1299.07 799.561C1286.59 794.701 1272.77 790.561 1258.94 786.961C1176.38 765.901 1090.37 758.881 1008.38 733.501C996.864 729.901 985.536 725.941 974.976 721.441C889.536 684.721 798.912 612.901 778.944 495.901C776.064 479.161 774.528 462.061 774.72 445.321C775.68 376.921 789.504 306.541 780.48 238.321C778.176 220.321 772.416 201.421 764.928 184.141C754.56 159.481 738.624 139.141 721.92 121.681C682.944 80.8206 627.456 58.3206 577.152 44.1006C522.048 28.6206 464.64 19.2606 409.92 1.80061C396.096 -2.51939 382.272 -8.27938 369.024 -14.3994C344.448 -26.0994 318.72 -42.4794 301.44 -64.6194C279.36 -92.8794 260.928 -133.199 280.32 -171.359" stroke="#272F37" stroke-miterlimit="10"/>
<path d="M1411.97 977.58C1444.03 879.48 1377.6 823.86 1306.56 795.42C1294.08 790.38 1280.26 786.24 1266.43 782.64C1184.26 761.22 1098.62 753.3 1017.41 726.48C1006.08 722.7 994.752 718.56 984.384 713.7C899.904 675.18 812.352 600.84 796.608 483.66C794.304 466.74 793.344 449.46 794.112 432.54C796.992 363.42 812.16 292.86 803.712 223.74C801.408 205.74 795.84 186.66 788.544 169.2C778.176 144.36 762.24 124.02 745.344 106.74C705.984 66.2402 649.536 45.1802 598.848 32.4002C543.36 18.3602 485.952 10.4402 431.04 -5.75977C417.216 -9.89977 403.2 -15.1198 389.76 -21.0598C364.992 -32.0398 338.88 -47.8798 321.216 -70.0198C298.752 -97.9198 279.744 -138.6 299.328 -176.76" stroke="#272F37" stroke-miterlimit="10"/>
<path d="M1417.34 975.421C1462.08 881.461 1378.37 817.021 1313.86 791.101C1301.38 786.061 1287.55 781.921 1273.73 778.141C1191.94 756.361 1106.69 747.541 1026.05 719.281C1014.91 715.321 1003.78 710.821 993.6 705.961C909.888 665.461 825.6 588.421 813.888 471.061C812.16 453.961 811.776 436.321 812.928 419.401C817.728 349.381 834.24 278.641 826.176 208.621C824.064 190.441 818.496 171.181 811.2 153.541C800.832 128.521 784.704 108.181 767.808 91.0805C727.872 50.9405 670.656 31.5005 619.776 19.8005C564.096 7.20049 506.496 0.720511 451.392 -14.0395C437.568 -17.8195 423.36 -22.6795 409.92 -28.2595C384.96 -38.6995 358.464 -53.9995 340.416 -75.5995C317.568 -103.14 298.176 -144 317.952 -182.52" stroke="#272F37" stroke-miterlimit="10"/>
<path d="M1422.72 973.259C1460.93 874.619 1394.11 816.479 1321.15 786.959C1308.67 781.919 1294.85 777.599 1281.02 773.819C1200 751.859 1114.94 743.219 1034.69 712.259C1023.74 707.939 1012.8 703.439 1002.82 698.399C921.216 656.459 838.08 574.739 831.168 458.639C830.208 441.539 830.208 423.539 831.936 406.259C838.656 335.699 856.704 264.599 848.832 193.319C846.912 174.959 841.344 155.519 834.048 137.879C823.68 112.679 807.552 92.339 790.272 75.419C749.952 35.6391 691.968 17.639 640.704 7.55903C584.832 -3.60097 527.232 -8.64097 471.744 -22.141C457.728 -25.561 443.52 -30.061 430.08 -35.461C404.928 -45.361 378.048 -59.941 359.616 -81.3609C336.384 -108.541 316.608 -149.581 336.384 -188.461" stroke="#272F37" stroke-miterlimit="10"/>
<path d="M1428.1 971.1C1468.8 872.1 1402.56 812.88 1328.45 782.82C1315.97 777.78 1302.14 773.46 1288.13 769.5C1207.49 747.18 1122.62 737.64 1043.14 705.06C1032.19 700.56 1021.44 695.88 1011.65 690.66C930.432 646.56 851.136 561.96 847.872 445.86C847.488 428.58 848.064 410.4 850.176 392.94C858.816 321.66 878.016 250.02 870.528 177.84C868.608 159.3 863.232 139.68 855.936 122.04C845.568 96.8396 829.248 76.4996 811.968 59.5796C771.264 20.1596 712.32 3.7796 660.864 -5.0404C604.8 -14.7604 547.2 -18.5404 491.52 -30.6004C477.504 -33.6604 463.104 -37.8004 449.472 -42.8404C423.936 -52.2004 396.864 -66.0604 378.048 -87.3004C354.432 -114.12 334.08 -155.34 354.048 -194.4" stroke="#272F37" stroke-miterlimit="10"/>
<path d="M1433.47 968.939C1476.67 869.759 1411.01 809.279 1335.74 778.499C1323.07 773.459 1309.25 768.959 1295.42 765.179C1215.17 742.499 1130.69 732.059 1051.97 698.039C1041.22 693.359 1030.66 688.499 1021.06 682.919C940.224 636.659 864.768 548.999 865.152 432.899C865.152 415.259 866.496 396.899 868.992 379.259C879.36 307.259 899.712 235.079 892.8 161.639C891.072 142.919 885.504 123.299 878.4 105.479C868.032 80.0988 851.52 59.7588 834.048 43.1988C792.96 4.31881 733.248 -10.4412 681.6 -18.0012C625.344 -26.2812 567.744 -28.6212 511.872 -39.2412C497.856 -41.9412 483.456 -45.9012 469.632 -50.5812C443.904 -59.2212 416.448 -72.7212 397.44 -93.4212C373.44 -119.881 352.704 -161.281 372.864 -200.701" stroke="#272F37" stroke-miterlimit="10"/>
<path d="M1438.85 966.599C1484.35 867.059 1419.46 805.499 1343.04 774.179C1330.37 768.959 1316.54 764.639 1302.72 760.679C1222.85 737.639 1138.56 726.479 1060.42 690.659C1049.86 685.799 1039.3 680.759 1029.89 674.999C949.248 626.219 877.824 535.679 881.472 419.759C882.048 401.939 883.776 383.399 886.848 365.399C898.944 292.679 920.448 219.959 913.92 145.259C912.192 126.359 906.816 106.559 899.52 88.5593C889.152 62.9993 872.64 42.6593 854.784 26.2793C813.312 -12.2407 752.832 -25.3807 700.992 -31.6807C644.736 -38.5207 586.944 -39.4207 530.88 -48.7807C516.864 -51.1207 502.272 -54.7207 488.448 -59.0407C462.528 -67.1407 436.8 -79.9207 415.488 -100.441C390.528 -124.381 368.64 -173.881 390.144 -207.721" stroke="#272F37" stroke-miterlimit="10"/>
<path d="M1444.03 964.621C1491.84 864.901 1427.9 802.081 1350.14 770.041C1337.47 764.821 1323.65 760.321 1309.82 756.361C1230.34 732.961 1146.05 720.901 1068.86 683.641C1058.5 678.601 1048.13 673.201 1038.72 667.441C958.272 616.141 890.88 522.541 897.792 406.801C898.944 388.621 901.056 369.901 904.512 351.541C918.336 278.101 940.992 204.661 934.848 128.881C933.312 109.801 928.512 88.7408 920.64 71.8208C908.736 45.5408 895.488 27.5408 875.712 9.5408C833.856 -28.6192 772.608 -39.9592 720.576 -44.9992C664.128 -50.3992 606.528 -49.8592 550.272 -57.7792C536.064 -59.7592 521.664 -62.9992 507.648 -66.9592C481.728 -74.5192 455.616 -86.7592 433.92 -106.739C408.576 -130.139 386.304 -179.999 407.808 -214.199" stroke="#272F37" stroke-miterlimit="10"/>
<path d="M1449.41 962.278C1499.52 862.198 1436.54 798.298 1357.44 765.538C1344.77 760.318 1330.94 755.818 1317.12 751.678C1238.02 727.918 1153.92 714.958 1077.5 676.078C1067.14 670.858 1056.96 665.278 1047.94 659.158C967.68 605.338 904.512 508.678 914.496 392.758C916.032 374.398 918.912 355.318 922.752 336.778C938.304 262.438 962.112 188.458 956.16 111.238C954.624 91.9783 949.824 70.7383 942.144 53.6383C930.048 27.1783 916.8 9.17828 896.832 -8.64172C854.592 -46.2617 792.576 -56.1617 740.352 -59.5817C683.904 -63.3617 626.304 -61.5617 569.856 -68.0417C555.648 -69.6617 541.056 -72.5417 527.04 -76.1417C500.928 -82.9817 474.432 -94.6817 452.544 -114.302C426.816 -137.342 404.16 -187.382 425.664 -221.762" stroke="#272F37" stroke-miterlimit="10"/>
<path d="M1454.78 959.941C1507.58 860.581 1444.61 794.161 1364.74 761.041C1352.06 755.821 1338.24 751.141 1324.42 747.001C1245.7 723.061 1161.6 709.021 1085.95 668.521C1075.78 663.121 1065.79 657.361 1056.77 651.061C972.096 591.481 920.832 495.361 930.432 379.081C931.968 360.541 935.808 341.101 940.032 322.201C957.12 247.141 982.08 172.261 976.512 93.7806C975.168 74.3406 970.368 52.9206 962.496 35.6406C950.4 9.00063 937.152 -8.81936 916.8 -26.6394C874.176 -63.8994 811.584 -71.9994 759.168 -74.1594C702.528 -76.4994 645.12 -73.2594 588.672 -78.4794C574.464 -79.7394 559.872 -82.2594 545.664 -85.6794C519.36 -91.9794 492.672 -102.959 470.4 -122.219C444.288 -144.899 421.056 -195.299 442.944 -229.859" stroke="#272F37" stroke-miterlimit="10"/>
<path d="M1460.16 957.78C1515.07 858.24 1453.25 790.38 1372.03 756.72C1282.56 719.64 1180.42 711.54 1094.4 661.32C998.976 605.52 927.744 495.36 946.368 365.22C960 271.08 1005.7 176.76 996.672 75.9601C992.448 29.1601 970.752 -19.0799 936.576 -44.8199C889.92 -79.9199 830.4 -88.0199 777.984 -88.7399C721.344 -89.6399 664.128 -85.1399 607.488 -88.7399C568.128 -91.2599 522.24 -100.62 488.448 -129.78C462.144 -152.46 438.336 -202.68 460.224 -237.42" stroke="#272F37" stroke-miterlimit="10"/>
<path d="M1476.1 960.3C1531.2 859.14 1476.48 786.24 1391.62 748.62C1371.26 739.62 1349.38 732.96 1328.26 726.66C1270.46 709.38 1210.18 696.78 1153.54 671.4C1137.98 664.38 1122.62 656.64 1109.57 647.82C1068.67 620.28 1028.93 581.58 1008 529.38C982.848 466.38 979.776 404.1 987.648 337.14C998.4 245.34 1043.52 152.28 1030.46 58.8596C1023.74 11.1596 1005.12 -26.1004 971.712 -55.6204C927.936 -94.5004 862.656 -102.24 809.664 -103.14C755.712 -104.04 700.608 -98.6404 646.464 -101.34C608.64 -103.14 564.864 -111.42 531.456 -138.06C506.112 -158.22 480.384 -204.3 498.24 -239.4" stroke="#272F37" stroke-miterlimit="10"/>
<path d="M1488 965.159C1543.49 862.559 1495.87 784.259 1407.55 742.499C1387.01 732.779 1364.54 725.759 1343.23 719.099C1284.29 701.279 1221.7 689.399 1164.29 661.499C1148.74 653.939 1133.76 645.479 1121.28 635.939C1082.3 605.879 1046.78 563.399 1031.62 509.219C1012.99 442.439 1015.49 376.019 1024.9 309.239C1036.99 224.818 1071.74 131.578 1060.99 42.4785C1055.62 -1.98154 1032.77 -40.1415 1004.16 -66.0615C959.424 -106.382 892.8 -116.282 838.656 -117.362C787.008 -118.442 734.4 -112.502 682.56 -114.482C646.08 -115.922 604.224 -124.202 571.776 -147.242C545.664 -165.782 523.392 -206.282 533.952 -242.102" stroke="#272F37" stroke-miterlimit="10"/>
<path d="M1487.42 976.68C1542.34 876.78 1505.09 785.16 1411.97 742.5C1390.46 732.78 1368.58 724.32 1346.69 717.48C1286.21 698.4 1221.7 685.98 1163.71 656.28C1148.35 648.36 1133.57 638.64 1121.86 628.2C1084.61 594.9 1053.7 548.46 1044.48 492.3C1032.96 422.1 1041.41 352.8 1052.16 284.22C1065.22 200.34 1092.29 116.82 1083.26 29.3401C1079.04 -10.9799 1056.58 -49.4999 1028.74 -73.6199C980.736 -115.56 915.264 -128.16 859.584 -129.6C810.432 -130.86 759.168 -124.56 710.4 -127.08C674.496 -128.88 637.632 -135.36 603.84 -156.96C578.112 -173.34 555.456 -210.24 562.176 -245.34" stroke="#272F37" stroke-miterlimit="10"/>
<path d="M1486.85 988.2C1542.53 887.58 1512.19 789.3 1416.38 742.5C1394.69 731.88 1372.61 723.241 1349.95 715.681C1288.32 695.161 1221.89 684.9 1162.94 651.06C1147.39 642.24 1132.99 631.8 1122.05 620.64C1083.84 581.58 1063.49 534.06 1056.77 475.56C1048.51 404.28 1066.75 328.681 1078.27 258.841C1091.14 181.621 1120.32 93.7805 1104.96 16.0205C1096.9 -24.8395 1080.58 -54.7195 1053.12 -81.5395C1007.62 -125.999 937.344 -140.039 880.32 -142.019C833.28 -143.639 785.28 -138.779 737.856 -140.039C703.488 -140.939 667.392 -148.319 635.712 -167.219C611.136 -181.979 587.52 -214.919 590.4 -248.939" stroke="#272F37" stroke-miterlimit="10"/>
<path d="M1486.66 999.539C1545.22 894.239 1515.84 794.519 1421.18 742.319C1399.87 730.619 1376.64 721.439 1353.79 713.699C1291.39 692.819 1222.08 682.199 1162.75 645.479C1147.39 635.939 1133.18 624.779 1122.82 612.539C1086.14 569.519 1069.82 516.959 1069.25 458.279C1068.67 383.939 1091.14 307.439 1104.38 232.379C1117.82 155.699 1139.9 74.8792 1126.85 1.7992C1120.13 -35.2808 1103.23 -64.6208 1077.7 -90.5408C1030.85 -137.881 959.424 -152.101 900.864 -155.341C856.512 -157.861 810.24 -153.001 765.12 -154.261C732.288 -155.161 697.92 -161.821 667.2 -178.921C643.392 -192.061 619.584 -221.221 618.432 -253.801" stroke="#272F37" stroke-miterlimit="10"/>
<path d="M1486.66 1010.52C1546.18 904.141 1522.94 798.121 1426.18 741.781C1404.67 729.181 1381.06 719.641 1357.82 711.541C1294.46 689.761 1222.46 679.681 1162.75 639.901C1147.39 629.641 1133.57 617.581 1123.97 604.621C1088.83 557.641 1078.46 502.381 1082.11 441.001C1086.72 362.161 1115.9 283.861 1130.3 205.561C1143.55 133.561 1160.06 60.4811 1148.93 -12.7789C1143.55 -48.2389 1124.74 -76.6789 1102.46 -99.8989C1055.42 -148.859 982.08 -165.059 921.6 -169.019C878.592 -171.719 835.2 -167.039 792.384 -169.019C761.088 -170.459 725.952 -174.959 698.688 -191.519C676.416 -205.019 652.224 -225.539 646.848 -259.379" stroke="#272F37" stroke-miterlimit="10"/>
<path d="M1487.42 1021.32C1545.79 918 1535.62 800.82 1431.94 741.06C1409.47 728.1 1386.24 717.48 1362.62 709.2C1298.3 686.52 1223.62 676.8 1163.52 634.14C1148.16 623.34 1134.72 610.2 1125.7 596.52C1091.33 544.86 1086.34 485.1 1095.17 423.36C1106.88 341.64 1140.1 260.82 1155.84 178.02C1168.32 112.68 1183.87 41.2203 1170.82 -28.0797C1164.86 -60.1197 1148.35 -88.9197 1127.23 -110.16C1076.74 -160.74 1003.58 -179.46 942.144 -183.24C901.632 -185.76 859.2 -182.16 819.072 -184.68C788.544 -186.48 758.4 -191.88 729.6 -205.02C707.328 -215.1 683.712 -236.88 674.88 -265.68" stroke="#272F37" stroke-miterlimit="10"/>
<path d="M1488.19 1032.12C1547.33 927.899 1543.49 804.239 1437.7 740.339C1414.85 726.479 1391.62 715.86 1367.23 706.68C1300.99 682.02 1224.96 674.1 1164.1 628.38C1148.74 616.86 1135.68 602.82 1127.23 588.42C1094.59 532.26 1094.98 468.9 1108.03 405.72C1125.5 320.4 1163.9 237.24 1180.99 150.12C1193.47 86.5796 1206.53 17.0995 1192.9 -43.3805C1185.79 -74.7005 1173.12 -96.4805 1152.38 -120.42C1105.34 -174.6 1025.66 -192.78 962.88 -197.28C924.48 -199.98 884.16 -197.64 846.144 -200.16C817.728 -202.14 788.544 -206.28 760.704 -218.7C738.24 -228.78 715.968 -246.42 703.296 -271.98" stroke="#272F37" stroke-miterlimit="10"/>
<path d="M1488.96 1042.92C1549.06 937.618 1552.13 811.438 1443.46 739.618C1420.8 724.678 1396.42 712.798 1372.03 704.338C1304.06 680.758 1225.54 671.038 1164.86 622.618C1149.7 610.378 1136.64 595.438 1128.96 580.138C1097.86 519.478 1104 452.338 1120.7 387.718C1143.74 299.158 1186.75 213.118 1205.38 121.318C1216.9 64.4383 1229.18 -3.06171 1214.59 -59.7617C1206.91 -89.4617 1195.97 -109.442 1177.15 -132.122C1129.34 -189.902 1047.17 -206.642 983.04 -212.582C946.752 -216.002 908.928 -214.922 872.256 -217.442C845.184 -219.242 817.344 -223.742 791.04 -234.362C768.96 -243.182 746.88 -258.302 731.328 -280.262" stroke="#272F37" stroke-miterlimit="10"/>
<path d="M1489.54 1053.72C1550.98 947.159 1559.42 815.039 1449.02 738.719C1426.18 722.879 1401.41 710.639 1376.64 701.819C1307.71 677.519 1226.11 668.159 1165.44 616.859C1150.27 604.079 1138.75 588.419 1130.5 572.039C1098.43 507.779 1114.37 430.559 1133.18 369.719C1161.79 277.559 1209.22 188.639 1229.18 92.1593C1240.51 37.2593 1246.66 -18.9007 1236.1 -76.3207C1231.1 -102.781 1216.9 -125.281 1201.92 -144.001C1154.5 -203.401 1069.63 -221.221 1003.01 -227.881C968.064 -231.481 932.928 -231.661 897.984 -234.901C872.064 -237.241 844.992 -240.841 820.8 -250.381C799.488 -258.841 777.408 -269.821 758.976 -288.721" stroke="#272F37" stroke-miterlimit="10"/>
<path d="M1490.11 1064.52C1552.32 956.88 1567.1 818.82 1454.59 738C1431.55 721.44 1406.59 708.84 1381.06 699.48C1311.55 673.92 1226.11 666.54 1165.82 611.1C1150.66 597.24 1139.33 581.22 1131.84 563.94C1101.31 495 1123.2 414 1145.09 351.72C1178.5 256.86 1231.1 165.06 1252.03 62.6396C1262.21 12.9596 1268.54 -41.0404 1256.83 -93.2404C1252.03 -115.02 1239.55 -140.22 1226.11 -156.42C1174.46 -218.16 1089.98 -236.34 1022.21 -243.72C989.184 -247.32 955.584 -249.12 922.944 -253.08C898.368 -255.96 873.216 -260.1 849.984 -267.3C828.672 -273.96 806.592 -283.5 786.432 -297.9" stroke="#272F37" stroke-miterlimit="10"/>
<path d="M1510.27 1065.06C1548.48 998.639 1580.93 914.939 1553.28 829.799C1527.94 751.859 1463.04 710.639 1402.75 687.419C1333.63 660.959 1238.98 656.459 1182.91 597.959C1113.22 525.419 1138.56 412.739 1171.58 325.979C1209.41 226.619 1264.13 129.599 1286.78 23.7589C1300.61 -40.3211 1305.02 -121.141 1261.44 -178.021C1210.37 -244.621 1120.7 -257.941 1051.97 -266.221C974.976 -275.401 898.368 -281.161 823.872 -312.121" stroke="#272F37" stroke-miterlimit="10"/>
<path d="M820.8 -321.48C896.256 -289.26 974.208 -284.04 1051.58 -275.4C1122.82 -267.48 1209.6 -255.78 1267.78 -195.12C1319.62 -141.12 1324.61 -52.2004 1311.36 16.7396C1291.2 121.5 1237.44 218.52 1200.38 316.98C1174.66 385.2 1145.86 478.62 1183.68 552.96C1189.82 564.84 1198.08 576.54 1208.26 586.26C1266.24 642.42 1352.06 650.88 1419.07 676.26C1456.32 690.3 1496.83 710.1 1526.78 741.96C1560 777.42 1580.16 816.3 1584.77 867.06C1590.53 929.88 1563.07 990.72 1534.46 1042.56" stroke="#272F37" stroke-miterlimit="10"/>
<path d="M823.488 -333.359C899.904 -300.239 978.432 -295.379 1057.15 -288.179C1130.69 -281.519 1220.16 -273.599 1280.06 -217.259C1338.24 -162.359 1356.1 -79.3793 1343.04 3.96069C1326.53 108.901 1273.15 205.921 1237.44 302.941C1212.48 370.801 1183.68 462.781 1219.39 536.761C1225.15 548.641 1233.02 559.981 1242.62 569.701C1297.54 625.321 1380.1 635.221 1444.8 659.341C1481.86 673.201 1521.6 691.741 1552.7 721.261C1587.26 754.021 1610.3 790.201 1615.87 840.061C1622.78 901.081 1596.1 962.281 1568.83 1013.94" stroke="#272F37" stroke-miterlimit="10"/>
<path d="M827.712 -345.779C904.896 -311.939 984.192 -306.899 1064.06 -302.219C1139.52 -297.719 1225.73 -289.619 1293.5 -241.019C1363.01 -191.339 1387.78 -96.8393 1376.26 -11.3393C1362.24 92.7008 1310.78 190.081 1276.22 286.381C1252.03 353.881 1223.62 444.601 1257.22 518.401C1262.59 530.101 1269.89 541.441 1279.1 550.981C1330.75 606.061 1410.24 617.401 1472.64 640.261C1509.5 653.761 1548.67 671.401 1580.74 698.221C1616.45 728.101 1642.37 761.581 1649.28 810.361C1657.54 869.401 1631.23 931.321 1605.7 982.621" stroke="#272F37" stroke-miterlimit="10"/>
<path d="M831.36 -358.201C907.2 -320.041 991.488 -318.961 1070.4 -315.901C1147.97 -312.841 1233.98 -308.701 1306.18 -264.601C1384.51 -216.721 1419.65 -122.761 1408.9 -27.1811C1397.18 76.1389 1347.65 173.519 1314.24 269.099C1290.82 336.419 1262.59 425.699 1294.08 499.499C1299.07 511.199 1305.98 522.179 1314.43 531.899C1363.01 586.619 1439.23 599.399 1499.52 621.359C1536.19 634.679 1574.78 651.059 1607.81 675.359C1644.48 702.359 1673.47 732.959 1681.34 780.839C1690.75 837.899 1665.22 900.359 1641.02 951.299" stroke="#272F37" stroke-miterlimit="10"/>
<path d="M834.624 -370.439C911.232 -331.199 996.672 -330.839 1076.35 -329.399C1155.84 -327.959 1242.24 -326.699 1318.27 -287.999C1404.48 -244.079 1450.94 -147.779 1441.15 -43.5595C1431.55 58.8605 1384.13 156.421 1351.87 251.101C1329.02 318.241 1300.99 406.081 1330.37 479.881C1334.98 491.401 1341.5 502.561 1349.38 512.101C1394.88 566.64 1467.84 581.041 1526.21 601.921C1562.69 615.061 1600.7 630.361 1634.5 651.961C1672.13 676.081 1703.81 703.44 1712.83 750.6C1723.39 805.68 1698.43 868.681 1675.78 919.081" stroke="#272F37" stroke-miterlimit="10"/>
<path d="M837.696 -382.5C914.88 -342.54 1001.47 -342.9 1082.11 -342.9C1163.71 -342.9 1250.3 -345.06 1329.79 -311.4C1423.68 -271.8 1482.82 -171.9 1473.02 -60.66C1464.19 39.96 1420.42 137.16 1388.74 232.38C1366.46 299.52 1338.62 385.92 1365.7 459.9C1369.92 471.42 1375.87 482.4 1383.36 492.12C1425.6 547.02 1495.68 562.86 1551.74 583.02C1588.03 595.98 1625.47 610.2 1660.03 629.28C1698.24 650.34 1732.99 674.64 1743.17 720.72C1754.69 773.82 1730.5 837.36 1709.18 887.22" stroke="#272F37" stroke-miterlimit="10"/>
<path d="M840.384 -394.561C918.336 -353.521 1006.08 -354.601 1087.3 -356.221C1170.62 -357.841 1258.18 -363.241 1340.74 -334.801C1441.92 -299.881 1512.77 -199.261 1504.32 -78.6606C1497.41 21.0594 1455.74 117.899 1425.02 212.399C1403.14 279.719 1375.68 364.679 1400.45 438.659C1404.29 450.179 1409.86 461.159 1416.77 470.879C1455.94 525.959 1522.56 543.599 1576.9 563.039C1613.18 575.999 1650.05 588.959 1684.99 605.339C1716.48 620.099 1765.44 641.699 1772.54 689.579C1781.18 748.079 1761.41 804.059 1741.63 854.099" stroke="#272F37" stroke-miterlimit="10"/>
<path d="M842.88 -406.621C921.6 -364.681 1010.5 -366.301 1092.29 -369.541C1177.34 -372.961 1265.86 -381.781 1351.1 -358.201C1459.58 -328.141 1540.61 -229.501 1535.42 -97.3811C1531.58 2.15887 1490.3 99.3588 1460.93 191.699C1439.62 259.019 1412.16 342.719 1434.82 417.059C1438.27 428.579 1443.46 439.559 1449.79 449.279C1485.7 504.359 1549.63 524.519 1601.86 543.059C1637.76 555.839 1674.43 567.899 1709.76 581.579C1740.86 593.639 1793.66 611.099 1801.54 658.439C1811.14 715.319 1791.94 771.479 1773.5 820.799" stroke="#272F37" stroke-miterlimit="10"/>
<path d="M845.184 -418.5C927.744 -379.26 1012.22 -377.64 1097.09 -382.68C1183.68 -387.9 1275.07 -401.58 1361.09 -381.42C1473.98 -354.96 1569.22 -261 1566.14 -116.64C1564.03 -18 1524.67 78.66 1496.26 170.28C1475.33 237.96 1448.26 320.22 1468.42 394.92C1471.49 406.44 1476.29 417.42 1482.05 427.32C1514.88 482.94 1575.74 505.08 1626.05 523.08C1661.38 535.68 1698.05 546.48 1733.76 557.82C1764.67 567.54 1820.74 580.5 1829.76 627.3C1840.32 682.56 1821.7 738.72 1804.61 787.5" stroke="#272F37" stroke-miterlimit="10"/>
<path d="M847.296 -430.379C930.624 -390.239 1015.87 -389.159 1101.7 -395.819C1190.21 -402.839 1282.18 -420.479 1370.5 -404.819C1489.73 -383.939 1597.06 -289.979 1596.48 -136.979C1596.1 -39.4189 1558.85 57.061 1531.2 147.601C1510.46 215.641 1483.78 296.641 1501.63 371.521C1504.32 383.041 1508.54 394.201 1513.92 404.101C1543.68 460.261 1601.09 484.381 1649.86 502.381C1684.8 515.161 1721.28 524.341 1757.38 533.161C1787.9 540.721 1847.42 549.001 1857.41 594.901C1868.93 648.181 1850.69 704.521 1834.94 752.761" stroke="#272F37" stroke-miterlimit="10"/>
<path d="M849.408 -442.439C930.432 -397.619 1022.4 -401.039 1106.11 -409.139C1196.35 -417.959 1289.09 -439.559 1379.71 -428.579C1505.28 -413.279 1624.51 -320.939 1626.82 -158.399C1628.16 -62.0995 1592.64 34.0205 1565.95 123.841C1545.6 192.241 1518.91 271.981 1534.66 347.401C1537.15 359.101 1540.8 370.081 1545.6 380.341C1572.29 437.221 1626.24 463.501 1673.66 481.321C1708.22 494.281 1744.7 501.841 1780.8 508.321C1810.75 513.721 1873.73 517.141 1884.48 562.321C1896.96 613.801 1879.3 670.32 1864.7 717.84" stroke="#272F37" stroke-miterlimit="10"/>
<path d="M851.328 -454.32C1024.51 -359.82 1213.25 -460.8 1388.54 -452.16C1515.84 -445.86 1655.04 -353.16 1656.77 -180.36C1657.73 -89.1003 1630.08 -2.3403 1605.7 80.9997C1584.38 153.54 1553.09 243.18 1567.1 322.92C1588.03 443.34 1723.2 473.94 1803.84 483.48C1834.94 487.08 1898.88 485.82 1911.17 529.56C1924.8 577.98 1907.14 635.76 1893.89 682.74" stroke="#272F37" stroke-miterlimit="10"/>
</g>
</g>
</g>
<defs>
<filter id="filter0_f_182_2390" x="-1154.98" y="-1197.12" width="2991.81" height="2945.37" filterUnits="userSpaceOnUse" color-interpolation-filters="sRGB">
<feFlood flood-opacity="0" result="BackgroundImageFix"/>
<feBlend mode="normal" in="SourceGraphic" in2="BackgroundImageFix" result="shape"/>
<feGaussianBlur stdDeviation="599.751" result="effect1_foregroundBlur_182_2390"/>
</filter>
<filter id="filter1_f_182_2390" x="-752.369" y="-235.863" width="1975.48" height="1908.54" filterUnits="userSpaceOnUse" color-interpolation-filters="sRGB">
<feFlood flood-opacity="0" result="BackgroundImageFix"/>
<feBlend mode="normal" in="SourceGraphic" in2="BackgroundImageFix" result="shape"/>
<feGaussianBlur stdDeviation="280.057" result="effect1_foregroundBlur_182_2390"/>
</filter>
<filter id="filter2_f_182_2390" x="-125.492" y="-382.283" width="1725.8" height="1619.58" filterUnits="userSpaceOnUse" color-interpolation-filters="sRGB">
<feFlood flood-opacity="0" result="BackgroundImageFix"/>
<feBlend mode="normal" in="SourceGraphic" in2="BackgroundImageFix" result="shape"/>
<feGaussianBlur stdDeviation="90" result="effect1_foregroundBlur_182_2390"/>
</filter>
<filter id="filter3_f_182_2390" x="-67.0757" y="-157.073" width="1534.86" height="1451.61" filterUnits="userSpaceOnUse" color-interpolation-filters="sRGB">
<feFlood flood-opacity="0" result="BackgroundImageFix"/>
<feBlend mode="normal" in="SourceGraphic" in2="BackgroundImageFix" result="shape"/>
<feGaussianBlur stdDeviation="127.355" result="effect1_foregroundBlur_182_2390"/>
</filter>
<filter id="filter4_f_182_2390" x="-542.238" y="-347.842" width="1766.49" height="1668.61" filterUnits="userSpaceOnUse" color-interpolation-filters="sRGB">
<feFlood flood-opacity="0" result="BackgroundImageFix"/>
<feBlend mode="normal" in="SourceGraphic" in2="BackgroundImageFix" result="shape"/>
<feGaussianBlur stdDeviation="145.955" result="effect1_foregroundBlur_182_2390"/>
</filter>
<filter id="filter5_f_182_2390" x="-309.57" y="-341.281" width="1630.78" height="1552.27" filterUnits="userSpaceOnUse" color-interpolation-filters="sRGB">
<feFlood flood-opacity="0" result="BackgroundImageFix"/>
<feBlend mode="normal" in="SourceGraphic" in2="BackgroundImageFix" result="shape"/>
<feGaussianBlur stdDeviation="170.955" result="effect1_foregroundBlur_182_2390"/>
</filter>
<filter id="filter6_f_182_2390" x="351.904" y="-467.458" width="1322.75" height="1265.96" filterUnits="userSpaceOnUse" color-interpolation-filters="sRGB">
<feFlood flood-opacity="0" result="BackgroundImageFix"/>
<feBlend mode="normal" in="SourceGraphic" in2="BackgroundImageFix" result="shape"/>
<feGaussianBlur stdDeviation="146.265" result="effect1_foregroundBlur_182_2390"/>
</filter>
<filter id="filter7_f_182_2390" x="104.822" y="-481.561" width="1309.04" height="1257.31" filterUnits="userSpaceOnUse" color-interpolation-filters="sRGB">
<feFlood flood-opacity="0" result="BackgroundImageFix"/>
<feBlend mode="normal" in="SourceGraphic" in2="BackgroundImageFix" result="shape"/>
<feGaussianBlur stdDeviation="163.51" result="effect1_foregroundBlur_182_2390"/>
</filter>
<radialGradient id="paint0_radial_182_2390" cx="0" cy="0" r="1" gradientUnits="userSpaceOnUse" gradientTransform="translate(455.552 331.753) rotate(-62.8666) scale(1192.64 1262.05)">
<stop stop-color="#5AE9FD"/>
<stop offset="1" stop-color="#5AE9FD" stop-opacity="0"/>
</radialGradient>
<radialGradient id="paint1_radial_182_2390" cx="0" cy="0" r="1" gradientUnits="userSpaceOnUse" gradientTransform="translate(307.816 869.207) rotate(-26.962) scale(397.002 378.533)">
<stop stop-color="#1B07FF"/>
<stop offset="1" stop-color="#FF9898"/>
</radialGradient>
<radialGradient id="paint2_radial_182_2390" cx="0" cy="0" r="1" gradientUnits="userSpaceOnUse" gradientTransform="translate(869.764 239.684) rotate(146.903) scale(874.903 848.669)">
<stop stop-color="#4BD4FF"/>
<stop offset="1" stop-color="#D04BFF" stop-opacity="0"/>
</radialGradient>
<radialGradient id="paint3_radial_182_2390" cx="0" cy="0" r="1" gradientUnits="userSpaceOnUse" gradientTransform="translate(648.179 759.368) rotate(7.97723) scale(482.131 443.662)">
<stop stop-color="#C7BEFF"/>
<stop offset="1" stop-color="#9BFFAB"/>
</radialGradient>
<radialGradient id="paint4_radial_182_2390" cx="0" cy="0" r="1" gradientUnits="userSpaceOnUse" gradientTransform="translate(801.55 306.282) rotate(82.9682) scale(521.905 630.194)">
<stop offset="0.447917" stop-color="#FF4D4D"/>
<stop offset="1" stop-color="#FF0000" stop-opacity="0"/>
</radialGradient>
<radialGradient id="paint5_radial_182_2390" cx="0" cy="0" r="1" gradientUnits="userSpaceOnUse" gradientTransform="translate(662.466 238.795) rotate(74.082) scale(325.934 290.276)">
<stop stop-color="#64FFFF"/>
<stop offset="0.572917" stop-color="#00FFC2" stop-opacity="0.58"/>
<stop offset="1" stop-color="#00FFC2" stop-opacity="0"/>
</radialGradient>
<radialGradient id="paint6_radial_182_2390" cx="0" cy="0" r="1" gradientUnits="userSpaceOnUse" gradientTransform="translate(902.254 67.2353) rotate(131.218) scale(329.711 335.582)">
<stop offset="0.197917" stop-color="#FFD337"/>
<stop offset="1" stop-color="#FFFAE1" stop-opacity="0.42"/>
</radialGradient>
<radialGradient id="paint7_radial_182_2390" cx="0" cy="0" r="1" gradientUnits="userSpaceOnUse" gradientTransform="translate(759.34 147.094) rotate(-152.366) scale(319.039 304.742)">
<stop stop-color="#7E5EFF"/>
<stop offset="1" stop-color="#CD03FF" stop-opacity="0.6"/>
</radialGradient>
<clipPath id="clip0_182_2390">
<rect width="1440" height="900" fill="white"/>
</clipPath>
</defs>
</svg>
