<svg width="24" height="24" viewBox="0 0 24 24" fill="none" xmlns="http://www.w3.org/2000/svg">
<path d="M20.3571 4C15.0708 4.02459 12.6429 5.36834 12 8V20C13.2275 18.4088 15.2143 17.3333 20.3571 17.3333C20.5276 17.3333 20.6911 17.2631 20.8117 17.1381C20.9323 17.013 21 16.8435 21 16.6667V4.66667C21.0003 4.57903 20.9839 4.49219 20.9517 4.41116C20.9195 4.33013 20.8722 4.2565 20.8124 4.19453C20.7527 4.13256 20.6817 4.08346 20.6035 4.05008C20.5254 4.01669 20.4416 3.99967 20.3571 4Z" fill="#4AB32D"/>
<path d="M3.64286 17.3333C8.78572 17.3333 10.7798 18.4167 12 20V8C11.3571 5.36834 8.92915 4.02459 3.64286 4C3.55835 3.99967 3.47461 4.01669 3.39647 4.05008C3.31834 4.08346 3.24734 4.13256 3.18758 4.19453C3.12782 4.2565 3.08048 4.33013 3.04829 4.41116C3.0161 4.49219 2.99969 4.57903 3 4.66667V16.5863C3 16.9979 3.2459 17.3333 3.64286 17.3333Z" fill="#4AB32D"/>
</svg>
