<svg width="24" height="24" viewBox="0 0 24 24" fill="none" xmlns="http://www.w3.org/2000/svg">
<path fill-rule="evenodd" clip-rule="evenodd" d="M5 5C3.89543 5 3 5.89543 3 7V17C3 18.1046 3.89543 19 5 19H19C20.1046 19 21 18.1046 21 17V7C21 5.89543 20.1046 5 19 5H5ZM6.19572 12L8.56526 10.237C8.66041 10.1663 8.7202 10.0647 8.73146 9.95461C8.74273 9.84453 8.70456 9.73496 8.62535 9.65001C8.54614 9.56506 8.43237 9.51168 8.30908 9.50162C8.18579 9.49156 8.06307 9.52564 7.96792 9.59636L5.16786 11.6797C5.11532 11.7188 5.07305 11.7677 5.04404 11.823C5.01504 11.8784 5 11.9387 5 11.9997C5 12.0608 5.01504 12.1211 5.04404 12.1764C5.07305 12.2318 5.11532 12.2807 5.16786 12.3198L7.96792 14.4031C8.01481 14.4394 8.06933 14.467 8.1283 14.4843C8.18727 14.5015 8.2495 14.5081 8.31135 14.5036C8.3732 14.4991 8.43343 14.4837 8.48851 14.4582C8.5436 14.4327 8.59243 14.3976 8.63215 14.355C8.67187 14.3125 8.70169 14.2632 8.71985 14.2103C8.73802 14.1573 8.74417 14.1016 8.73794 14.0465C8.73171 13.9914 8.71323 13.9379 8.68358 13.8892C8.65393 13.8406 8.61371 13.7977 8.56526 13.763L6.19572 12ZM16.0321 9.59636L18.8321 11.6797C18.8847 11.7188 18.9269 11.7677 18.956 11.823C18.985 11.8784 19 11.9387 19 11.9997C19 12.0608 18.985 12.1211 18.956 12.1764C18.9269 12.2318 18.8847 12.2807 18.8321 12.3198L16.0321 14.4031C15.9852 14.4394 15.9307 14.467 15.8717 14.4843C15.8127 14.5015 15.7505 14.5081 15.6887 14.5036C15.6268 14.4991 15.5666 14.4837 15.5115 14.4582C15.4564 14.4327 15.4076 14.3976 15.3678 14.355C15.3281 14.3125 15.2983 14.2632 15.2801 14.2103C15.262 14.1573 15.2558 14.1016 15.2621 14.0465C15.2683 13.9914 15.2868 13.9379 15.3164 13.8892C15.3461 13.8406 15.3863 13.7977 15.4347 13.763L17.8043 12L15.4347 10.237C15.3396 10.1663 15.2798 10.0647 15.2685 9.95461C15.2573 9.84453 15.2954 9.73496 15.3747 9.65001C15.4139 9.60795 15.462 9.57319 15.5163 9.54773C15.5705 9.52227 15.6299 9.5066 15.6909 9.50162C15.752 9.49664 15.8135 9.50244 15.8721 9.5187C15.9306 9.53495 15.985 9.56135 16.0321 9.59636ZM13.846 7.00041C13.9072 6.99798 13.9683 7.00634 14.026 7.02501C14.0836 7.04368 14.1365 7.0723 14.1817 7.10924C14.2269 7.14617 14.2636 7.1907 14.2895 7.24027C14.3155 7.28984 14.3302 7.34349 14.3329 7.39816C14.3357 7.45282 14.3263 7.50743 14.3054 7.55887L10.572 16.7255C10.5393 16.806 10.4796 16.8754 10.4011 16.9246C10.3226 16.9737 10.2291 17 10.1333 17C10.079 17 10.0252 16.9917 9.97404 16.9755C9.91637 16.9569 9.86338 16.9282 9.81811 16.8912C9.77284 16.8543 9.73618 16.8097 9.71023 16.7601C9.68428 16.7104 9.66954 16.6567 9.66686 16.602C9.66418 16.5473 9.67362 16.4926 9.69462 16.4411L13.428 7.27449C13.4489 7.22306 13.481 7.1758 13.5224 7.13543C13.5637 7.09505 13.6136 7.06235 13.6691 7.03918C13.7246 7.01602 13.7847 7.00284 13.846 7.00041Z" fill="#4AB32D"/>
</svg>
