<svg width="32" height="32" viewBox="0 0 32 32" fill="none" xmlns="http://www.w3.org/2000/svg">
<path d="M5.33325 15.9987C5.33325 13.1697 6.45706 10.4566 8.45745 8.45623C10.4578 6.45584 13.1709 5.33203 15.9999 5.33203C18.8289 5.33203 21.542 6.45584 23.5424 8.45623C25.5428 10.4566 26.6666 13.1697 26.6666 15.9987V22.7854C26.6666 23.916 26.6666 24.4787 26.4986 24.9307C26.365 25.2889 26.156 25.6141 25.8857 25.8844C25.6154 26.1547 25.2901 26.3638 24.9319 26.4974C24.4799 26.6654 23.9159 26.6654 22.7866 26.6654H15.9999C13.1709 26.6654 10.4578 25.5416 8.45745 23.5412C6.45706 21.5408 5.33325 18.8277 5.33325 15.9987Z" stroke="white" stroke-width="2"/>
<path d="M12 14.6641H20M16 19.9974H20" stroke="white" stroke-width="2" stroke-linecap="round" stroke-linejoin="round"/>
</svg>
