<svg width="24" height="24" viewBox="0 0 24 24" fill="none" xmlns="http://www.w3.org/2000/svg">
<path fill-rule="evenodd" clip-rule="evenodd" d="M5 9.2093C5 7.29728 5.7375 5.46356 7.05025 4.11156C8.36301 2.75955 10.1435 2 12 2C13.8565 2 15.637 2.75955 16.9497 4.11156C18.2625 5.46356 19 7.29728 19 9.2093V14.7907C19 16.7027 18.2625 18.5364 16.9497 19.8884C15.637 21.2405 13.8565 22 12 22C10.1435 22 8.36301 21.2405 7.05025 19.8884C5.7375 18.5364 5 16.7027 5 14.7907V9.2093ZM11.3226 3.43721C9.95273 3.60794 8.691 4.2894 7.77573 5.35287C6.86045 6.41635 6.355 7.7882 6.35484 9.2093V14.7907C6.35484 16.3327 6.9496 17.8115 8.00827 18.9018C9.06694 19.9921 10.5028 20.6047 12 20.6047C13.4972 20.6047 14.9331 19.9921 15.9917 18.9018C17.0504 17.8115 17.6452 16.3327 17.6452 14.7907V9.2093C17.645 7.7882 17.1395 6.41635 16.2243 5.35287C15.309 4.2894 14.0473 3.60794 12.6774 3.43721V6.77023C13.0737 6.91454 13.4169 7.18188 13.6595 7.5354C13.9022 7.88893 14.0324 8.31125 14.0323 8.74419V10.6047C14.0323 11.1598 13.8181 11.6921 13.437 12.0846C13.0559 12.4772 12.539 12.6977 12 12.6977C11.461 12.6977 10.9441 12.4772 10.563 12.0846C10.1819 11.6921 9.96774 11.1598 9.96774 10.6047V8.74419C9.96774 7.83256 10.5332 7.05767 11.3226 6.77023V3.43721ZM12 8.04651C11.8203 8.04651 11.648 8.12002 11.521 8.25086C11.394 8.3817 11.3226 8.55915 11.3226 8.74419V10.6047C11.3226 10.7897 11.394 10.9671 11.521 11.098C11.648 11.2288 11.8203 11.3023 12 11.3023C12.1797 11.3023 12.352 11.2288 12.479 11.098C12.606 10.9671 12.6774 10.7897 12.6774 10.6047V8.74419C12.6774 8.55915 12.606 8.3817 12.479 8.25086C12.352 8.12002 12.1797 8.04651 12 8.04651Z" fill="#969FA8"/>
</svg>
