<svg width="24" height="24" viewBox="0 0 24 24" fill="none" xmlns="http://www.w3.org/2000/svg">
<path d="M16.972 16.2213L19.0507 18.2989C19.1476 18.3993 19.2012 18.5337 19.2 18.6732C19.1988 18.8128 19.1428 18.9462 19.0442 19.0449C18.9455 19.1436 18.812 19.1995 18.6725 19.2008C18.533 19.202 18.3985 19.1483 18.2982 19.0514L16.2195 16.9727C14.8611 18.1365 13.1048 18.729 11.3191 18.6258C9.5333 18.5225 7.85693 17.7317 6.64172 16.4191C5.4265 15.1065 4.76691 13.3743 4.80133 11.5859C4.83576 9.79748 5.56153 8.09192 6.82636 6.82709C8.09119 5.56226 9.79675 4.83649 11.5852 4.80206C13.3736 4.76764 15.1058 5.42724 16.4184 6.64245C17.7309 7.85767 18.5218 9.53403 18.625 11.3198C18.7282 13.1055 18.1358 14.8619 16.972 16.2202V16.2213ZM11.7184 17.573C13.2709 17.573 14.7599 16.9563 15.8577 15.8585C16.9555 14.7606 17.5723 13.2717 17.5723 11.7191C17.5723 10.1666 16.9555 8.6776 15.8577 7.57978C14.7599 6.48196 13.2709 5.86521 11.7184 5.86521C10.1658 5.86521 8.67687 6.48196 7.57905 7.57978C6.48123 8.6776 5.86448 10.1666 5.86448 11.7191C5.86448 13.2717 6.48123 14.7606 7.57905 15.8585C8.67687 16.9563 10.1658 17.573 11.7184 17.573Z" fill="#4AB32D"/>
</svg>
