<svg width="20" height="20" viewBox="0 0 20 20" fill="none" xmlns="http://www.w3.org/2000/svg">
<path d="M11.2396 16.063L11.2398 16.0631C12.7716 16.7932 14.2848 17.1667 15.7749 17.1667C16.1485 17.1667 16.4861 17.0371 16.756 16.776C17.0301 16.5107 17.1666 16.1706 17.1666 15.7917V13.7625C17.1666 13.4241 17.0563 13.1143 16.8422 12.8521L16.8417 12.8515C16.6287 12.5916 16.3494 12.4213 16.0234 12.3411L16.0138 12.3388L16.0042 12.3368L14.2509 11.9785L14.2345 11.9751L14.2179 11.9729C13.9582 11.9377 13.7023 11.9469 13.4578 12.0134L13.4563 12.0138C13.1882 12.0877 12.9594 12.2373 12.7703 12.4393L11.2618 13.9746C10.7405 13.6709 10.2572 13.3527 9.81165 13.0203C9.27325 12.6181 8.77134 12.1842 8.30566 11.7187C7.85055 11.2565 7.42221 10.7669 7.02061 10.25L7.02045 10.2498C6.69905 9.83648 6.39943 9.39429 6.12175 8.92285L7.65331 7.49525C7.8581 7.31956 7.99893 7.09561 8.07629 6.83802L7.59743 6.69421L8.07587 6.83942C8.1567 6.5731 8.15931 6.28837 8.11145 6.00117L8.10981 5.99134L8.10778 5.98157L7.69444 3.99407L7.69161 3.98043L7.68802 3.96697C7.60342 3.64995 7.43558 3.37736 7.18522 3.1657C6.92365 2.94457 6.61072 2.83337 6.26908 2.83337H4.20825C3.82935 2.83337 3.48927 2.96983 3.22395 3.244C2.96281 3.51384 2.83325 3.85148 2.83325 4.22504C2.83325 5.71526 3.2068 7.2259 3.93722 8.75251C4.66698 10.2777 5.68327 11.6938 6.97989 13.0013L6.98137 13.0028C8.28869 14.3101 9.70792 15.3323 11.2396 16.063Z" stroke="#4AB22D"/>
</svg>
