<svg width="180" height="40" viewBox="0 0 180 40" fill="none" xmlns="http://www.w3.org/2000/svg">
<path d="M33.75 23.1487L61.875 13.3528L33.75 2.85718L5.625 13.3528L17.6786 19.6502V32.2449C19.2411 33.8776 24.6429 37.1429 33.75 37.1429C42.8571 37.1429 48.2589 33.8776 49.8214 32.2449V25.9476" stroke="#4AB32D" stroke-width="2" stroke-linecap="round"/>
<path d="M74.2236 35.7143V27.5558H80.2057V35.7143H79.2828V28.3928H75.1575V35.7143H74.2236Z" fill="#272F37"/>
<path d="M87.2481 32.6451C87.2481 33.1473 87.1841 33.5956 87.0559 33.9899C86.9277 34.3843 86.7428 34.7172 86.5011 34.9888C86.2594 35.2604 85.9664 35.4687 85.6222 35.6138C85.2816 35.7552 84.8952 35.8259 84.4631 35.8259C84.0603 35.8259 83.6904 35.7552 83.3535 35.6138C83.0202 35.4687 82.7309 35.2604 82.4856 34.9888C82.2439 34.7172 82.0553 34.3843 81.9198 33.9899C81.7879 33.5956 81.722 33.1473 81.722 32.6451C81.722 31.9754 81.8337 31.4062 82.0571 30.9375C82.2805 30.465 82.5991 30.106 83.0129 29.8605C83.4304 29.6112 83.9266 29.4866 84.5016 29.4866C85.0509 29.4866 85.5306 29.6112 85.9408 29.8605C86.3546 30.1097 86.675 30.4706 86.9021 30.9431C87.1328 31.4118 87.2481 31.9791 87.2481 32.6451ZM82.6668 32.6451C82.6668 33.1361 82.7309 33.5621 82.8591 33.923C82.9873 34.2838 83.185 34.5629 83.4524 34.76C83.7197 34.9572 84.0639 35.0558 84.4851 35.0558C84.9026 35.0558 85.245 34.9572 85.5123 34.76C85.7833 34.5629 85.9829 34.2838 86.1111 33.923C86.2392 33.5621 86.3033 33.1361 86.3033 32.6451C86.3033 32.1577 86.2392 31.7373 86.1111 31.3839C85.9829 31.0268 85.7851 30.7515 85.5178 30.558C85.2505 30.3646 84.9044 30.2678 84.4796 30.2678C83.8534 30.2678 83.3938 30.478 83.1008 30.8984C82.8115 31.3188 82.6668 31.901 82.6668 32.6451Z" fill="#272F37"/>
<path d="M94.9553 29.5982V35.7143H94.1313V31.7299C94.1313 31.5662 94.135 31.4007 94.1423 31.2332C94.1533 31.0621 94.1661 30.891 94.1807 30.7198H94.1478L92.1483 35.7143H91.3737L89.4237 30.7198H89.3907C89.4017 30.891 89.409 31.0621 89.4127 31.2332C89.42 31.4007 89.4237 31.5774 89.4237 31.7634V35.7143H88.5942V29.5982H89.8192L91.7637 34.5982L93.7358 29.5982H94.9553Z" fill="#272F37"/>
<path d="M101.816 32.6451C101.816 33.1473 101.752 33.5956 101.624 33.9899C101.496 34.3843 101.311 34.7172 101.069 34.9888C100.828 35.2604 100.535 35.4687 100.19 35.6138C99.8499 35.7552 99.4635 35.8259 99.0314 35.8259C98.6286 35.8259 98.2587 35.7552 97.9218 35.6138C97.5885 35.4687 97.2992 35.2604 97.0539 34.9888C96.8122 34.7172 96.6236 34.3843 96.4881 33.9899C96.3562 33.5956 96.2903 33.1473 96.2903 32.6451C96.2903 31.9754 96.402 31.4062 96.6254 30.9375C96.8488 30.465 97.1674 30.106 97.5812 29.8605C97.9987 29.6112 98.4949 29.4866 99.0699 29.4866C99.6192 29.4866 100.099 29.6112 100.509 29.8605C100.923 30.1097 101.243 30.4706 101.47 30.9431C101.701 31.4118 101.816 31.9791 101.816 32.6451ZM97.2352 32.6451C97.2352 33.1361 97.2992 33.5621 97.4274 33.923C97.5556 34.2838 97.7533 34.5629 98.0207 34.76C98.288 34.9572 98.6322 35.0558 99.0534 35.0558C99.4709 35.0558 99.8133 34.9572 100.081 34.76C100.352 34.5629 100.551 34.2838 100.679 33.923C100.808 33.5621 100.872 33.1361 100.872 32.6451C100.872 32.1577 100.808 31.7373 100.679 31.3839C100.551 31.0268 100.353 30.7515 100.086 30.558C99.8188 30.3646 99.4727 30.2678 99.0479 30.2678C98.4217 30.2678 97.9621 30.478 97.6691 30.8984C97.3798 31.3188 97.2352 31.901 97.2352 32.6451Z" fill="#272F37"/>
<path d="M111.237 29.5982V34.9386H112.1V37.8181H111.183V35.7143H103.168V29.5982H104.08V34.9274H106.744V29.5982H107.661V34.9274H110.331V29.5982H111.237Z" fill="#272F37"/>
<path d="M113.957 32.1205H115.802C116.315 32.1205 116.742 32.1856 117.082 32.3158C117.423 32.446 117.677 32.6395 117.846 32.8962C118.018 33.1529 118.104 33.471 118.104 33.8504C118.104 34.2299 118.02 34.5591 117.851 34.8382C117.687 35.1172 117.43 35.3329 117.082 35.4855C116.738 35.638 116.293 35.7143 115.748 35.7143H113.039V29.5982H113.957V32.1205ZM117.187 33.8951C117.187 33.5193 117.055 33.2589 116.791 33.1138C116.531 32.965 116.167 32.8906 115.698 32.8906H113.957V34.9609H115.704C116.143 34.9609 116.5 34.8791 116.775 34.7154C117.049 34.548 117.187 34.2745 117.187 33.8951Z" fill="#272F37"/>
<path d="M124.559 35.8259C124.017 35.8259 123.539 35.7124 123.125 35.4855C122.711 35.2585 122.389 34.9126 122.159 34.4475C121.928 33.9825 121.812 33.3966 121.812 32.6897C121.812 31.9494 121.933 31.3448 122.175 30.8761C122.42 30.4036 122.757 30.0539 123.186 29.827C123.614 29.6001 124.101 29.4866 124.647 29.4866C124.947 29.4866 125.237 29.5182 125.515 29.5815C125.797 29.641 126.028 29.7172 126.207 29.8103L125.932 30.5859C125.749 30.5115 125.537 30.4446 125.295 30.385C125.057 30.3255 124.834 30.2957 124.625 30.2957C124.207 30.2957 123.86 30.3869 123.581 30.5692C123.307 30.7515 123.1 31.0193 122.961 31.3728C122.825 31.7262 122.757 32.1614 122.757 32.6786C122.757 33.1733 122.823 33.5956 122.955 33.9453C123.091 34.295 123.29 34.5629 123.554 34.7489C123.821 34.9312 124.154 35.0223 124.554 35.0223C124.872 35.0223 125.16 34.9888 125.416 34.9219C125.672 34.8512 125.905 34.7693 126.114 34.6763V35.5022C125.912 35.6064 125.687 35.6864 125.438 35.7422C125.193 35.798 124.9 35.8259 124.559 35.8259Z" fill="#272F37"/>
<path d="M131.42 30.385H129.437V35.7143H128.536V30.385H126.581V29.5982H131.42V30.385Z" fill="#272F37"/>
<path d="M131.437 29.5982H132.415L133.744 33.1473C133.821 33.3556 133.892 33.5565 133.958 33.75C134.024 33.9397 134.083 34.122 134.134 34.2969C134.185 34.4717 134.226 34.641 134.255 34.8047H134.293C134.345 34.6187 134.418 34.375 134.513 34.0736C134.608 33.7686 134.711 33.4579 134.821 33.1417L136.079 29.5982H137.062L134.442 36.6127C134.303 36.9885 134.14 37.3158 133.953 37.5948C133.77 37.8739 133.546 38.0878 133.283 38.2366C133.019 38.3891 132.7 38.4654 132.327 38.4654C132.155 38.4654 132.003 38.4542 131.871 38.4319C131.739 38.4133 131.626 38.391 131.53 38.3649V37.6228C131.611 37.6414 131.708 37.6581 131.821 37.673C131.939 37.6879 132.059 37.6953 132.184 37.6953C132.411 37.6953 132.607 37.6507 132.772 37.5614C132.94 37.4758 133.085 37.3493 133.206 37.1819C133.327 37.0145 133.431 36.8155 133.519 36.5848L133.848 35.7254L131.437 29.5982Z" fill="#272F37"/>
<path d="M142.209 29.5982V34.9274H143.072V37.8292H142.187V35.7143H137.925V37.8292H137.051V34.9274H137.524C137.868 34.4438 138.153 33.9137 138.38 33.337C138.608 32.7604 138.78 32.1559 138.897 31.5234C139.014 30.8873 139.076 30.2455 139.084 29.5982H142.209ZM141.325 30.3348H139.897C139.864 30.878 139.785 31.4304 139.66 31.9922C139.54 32.5539 139.378 33.0896 139.177 33.5993C138.976 34.1053 138.741 34.548 138.474 34.9274H141.325V30.3348Z" fill="#272F37"/>
<path d="M146.362 29.4866C146.875 29.4866 147.314 29.6019 147.681 29.8326C148.047 30.0632 148.327 30.3869 148.521 30.8036C148.715 31.2165 148.812 31.7001 148.812 32.2544V32.8292H144.654C144.665 33.5472 144.841 34.0941 145.181 34.4698C145.522 34.8456 146.002 35.0335 146.62 35.0335C147.001 35.0335 147.338 34.9981 147.631 34.9274C147.924 34.8568 148.228 34.7526 148.543 34.6149V35.4297C148.239 35.5673 147.937 35.6678 147.637 35.731C147.34 35.7943 146.988 35.8259 146.582 35.8259C146.003 35.8259 145.498 35.7068 145.066 35.4687C144.637 35.2269 144.304 34.8735 144.066 34.4085C143.828 33.9434 143.709 33.3742 143.709 32.7009C143.709 32.0424 143.817 31.4732 144.033 30.9933C144.253 30.5097 144.561 30.1376 144.956 29.8772C145.355 29.6168 145.824 29.4866 146.362 29.4866ZM146.351 30.2455C145.864 30.2455 145.476 30.4073 145.187 30.731C144.897 31.0547 144.725 31.5067 144.67 32.087H147.856C147.853 31.7225 147.796 31.4025 147.686 31.1272C147.58 30.8482 147.417 30.6324 147.197 30.4799C146.978 30.3236 146.696 30.2455 146.351 30.2455Z" fill="#272F37"/>
<path d="M151.054 29.5982V32.1652H154.41V29.5982H155.322V35.7143H154.41V32.952H151.054V35.7143H150.136V29.5982H151.054Z" fill="#272F37"/>
<path d="M161.134 30.385H159.151V35.7143H158.25V30.385H156.294V29.5982H161.134V30.385Z" fill="#272F37"/>
<path d="M164.353 29.4978C165.071 29.4978 165.604 29.6614 165.952 29.9888C166.299 30.3162 166.473 30.8389 166.473 31.5569V35.7143H165.809L165.633 34.8103H165.589C165.421 35.0335 165.245 35.2213 165.062 35.3739C164.879 35.5227 164.666 35.6361 164.424 35.7143C164.186 35.7887 163.893 35.8259 163.546 35.8259C163.179 35.8259 162.853 35.7608 162.568 35.6306C162.286 35.5004 162.062 35.3032 161.898 35.039C161.736 34.7749 161.656 34.4401 161.656 34.0346C161.656 33.4245 161.894 32.9557 162.37 32.6283C162.846 32.301 163.571 32.1224 164.545 32.0926L165.584 32.048V31.6741C165.584 31.1458 165.472 30.7757 165.248 30.5636C165.025 30.3515 164.71 30.2455 164.304 30.2455C163.989 30.2455 163.688 30.292 163.403 30.385C163.117 30.478 162.846 30.5878 162.59 30.7143L162.31 30.0111C162.581 29.8698 162.892 29.7489 163.243 29.6484C163.595 29.548 163.965 29.4978 164.353 29.4978ZM165.573 32.7009L164.655 32.7399C163.904 32.7697 163.375 32.8943 163.068 33.1138C162.76 33.3333 162.606 33.644 162.606 34.0457C162.606 34.3954 162.711 34.654 162.919 34.8214C163.128 34.9888 163.405 35.0725 163.749 35.0725C164.283 35.0725 164.721 34.9219 165.062 34.6205C165.402 34.3192 165.573 33.8672 165.573 33.2645V32.7009Z" fill="#272F37"/>
<path d="M174.483 29.5982V35.7143H173.659V31.7299C173.659 31.5662 173.662 31.4007 173.67 31.2332C173.681 31.0621 173.693 30.891 173.708 30.7198H173.675L171.676 35.7143H170.901L168.951 30.7198H168.918C168.929 30.891 168.936 31.0621 168.94 31.2332C168.947 31.4007 168.951 31.5774 168.951 31.7634V35.7143H168.122V29.5982H169.347L171.291 34.5982L173.263 29.5982H174.483Z" fill="#272F37"/>
<path d="M83.1898 17.4637C83.1898 18.3101 82.9879 19.0458 82.5842 19.6708C82.1804 20.2958 81.5908 20.7775 80.8154 21.1161C80.0463 21.4546 79.1107 21.6239 78.0084 21.6239C77.5213 21.6239 77.0439 21.5913 76.576 21.5262C76.1146 21.4611 75.6692 21.3667 75.2398 21.243C74.8168 21.1128 74.4131 20.9533 74.0286 20.7645V17.952C74.6951 18.2515 75.3872 18.5217 76.105 18.7626C76.8228 19.0035 77.5341 19.1239 78.2391 19.1239C78.7261 19.1239 79.1171 19.0588 79.4119 18.9286C79.7131 18.7984 79.931 18.6193 80.0656 18.3915C80.2001 18.1636 80.2674 17.9032 80.2674 17.6102C80.2674 17.2522 80.1489 16.9462 79.9117 16.6923C79.6746 16.4384 79.3478 16.2007 78.9312 15.9794C78.5211 15.758 78.0564 15.5204 77.5373 15.2665C77.2105 15.1102 76.8548 14.9214 76.4703 14.7001C76.0858 14.4722 75.7205 14.1955 75.3744 13.87C75.0283 13.5445 74.7431 13.1506 74.5188 12.6884C74.3009 12.2196 74.192 11.6597 74.192 11.0087C74.192 10.1558 74.3842 9.42664 74.7688 8.82117C75.1533 8.2157 75.7012 7.75346 76.4126 7.43445C77.1304 7.10893 77.9763 6.94617 78.9504 6.94617C79.681 6.94617 80.3764 7.03406 81.0365 7.20984C81.703 7.37911 82.3983 7.62651 83.1225 7.95203L82.1612 10.3055C81.5139 10.0386 80.9339 9.83354 80.4212 9.69031C79.9085 9.54057 79.3862 9.4657 78.8543 9.4657C78.4826 9.4657 78.1654 9.52755 77.9026 9.65125C77.6399 9.76843 77.4412 9.9377 77.3066 10.1591C77.172 10.3739 77.1047 10.6246 77.1047 10.911C77.1047 11.2496 77.2009 11.536 77.3931 11.7704C77.5918 11.9983 77.8866 12.2196 78.2775 12.4344C78.6749 12.6493 79.1683 12.8999 79.7579 13.1864C80.4757 13.5315 81.0877 13.8928 81.594 14.2704C82.1067 14.6415 82.5009 15.0809 82.7764 15.5887C83.052 16.09 83.1898 16.715 83.1898 17.4637Z" fill="#4AB32D"/>
<path d="M90.0343 19.2509C90.3547 19.2509 90.6655 19.2183 90.9667 19.1532C91.2744 19.0881 91.5788 19.0067 91.88 18.9091V21.1259C91.5659 21.2691 91.175 21.3863 90.7072 21.4774C90.2458 21.5751 89.7395 21.6239 89.1883 21.6239C88.5475 21.6239 87.9707 21.5197 87.458 21.3114C86.9517 21.0966 86.5511 20.7287 86.2563 20.2079C85.968 19.6805 85.8238 18.9481 85.8238 18.0106V12.7469H84.4203V11.4872L86.0352 10.4911L86.8812 8.1864H88.7557V10.5106H91.7646V12.7469H88.7557V18.0106C88.7557 18.4273 88.8711 18.7398 89.1018 18.9481C89.3389 19.1499 89.6497 19.2509 90.0343 19.2509Z" fill="#4AB32D"/>
<path d="M103.925 10.5106V21.4286H101.676L101.282 20.0321H101.128C100.897 20.4032 100.609 20.7059 100.263 20.9403C99.9165 21.1747 99.5352 21.3472 99.1186 21.4579C98.702 21.5686 98.2694 21.6239 97.8208 21.6239C97.0518 21.6239 96.3821 21.4872 95.8117 21.2137C95.2413 20.9338 94.7959 20.5009 94.4755 19.9149C94.1615 19.329 94.0045 18.5673 94.0045 17.6298V10.5106H96.9364V16.8876C96.9364 17.6688 97.0742 18.258 97.3498 18.6552C97.6254 19.0523 98.0644 19.2509 98.6668 19.2509C99.2628 19.2509 99.7306 19.1141 100.07 18.8407C100.41 18.5608 100.647 18.1538 100.782 17.62C100.923 17.0796 100.993 16.4221 100.993 15.6473V10.5106H103.925Z" fill="#4AB32D"/>
<path d="M110.404 21.6239C109.206 21.6239 108.229 21.1486 107.472 20.1981C106.723 19.2411 106.348 17.8381 106.348 15.9891C106.348 14.1206 106.729 12.7079 107.492 11.7509C108.254 10.7873 109.251 10.3055 110.481 10.3055C110.994 10.3055 111.446 10.3772 111.837 10.5204C112.228 10.6636 112.564 10.8557 112.846 11.0966C113.134 11.3374 113.378 11.6076 113.577 11.9071H113.673C113.634 11.6988 113.586 11.3928 113.529 10.9891C113.477 10.579 113.452 10.1591 113.452 9.72937V6.23328H116.393V21.4286H114.144L113.577 20.0126H113.452C113.266 20.3121 113.032 20.5855 112.75 20.8329C112.474 21.0738 112.144 21.2658 111.76 21.4091C111.375 21.5523 110.923 21.6239 110.404 21.6239ZM111.433 19.2509C112.234 19.2509 112.798 19.01 113.125 18.5282C113.458 18.0399 113.634 17.3075 113.654 16.3309V16.0087C113.654 14.9475 113.493 14.1369 113.173 13.577C112.852 13.0106 112.256 12.7274 111.385 12.7274C110.738 12.7274 110.231 13.0106 109.866 13.577C109.501 14.1434 109.318 14.9605 109.318 16.0282C109.318 17.0959 109.501 17.8999 109.866 18.4403C110.238 18.9807 110.76 19.2509 111.433 19.2509Z" fill="#4AB32D"/>
<path d="M119.894 21.4286V7.15125H122.874V18.9286H128.574V21.4286H119.894Z" fill="#272F37"/>
<path d="M135.227 10.3055C136.22 10.3055 137.076 10.5009 137.793 10.8915C138.511 11.2756 139.065 11.8355 139.456 12.5712C139.847 13.3068 140.043 14.2053 140.043 15.2665V16.7118H133.112C133.144 17.5516 133.391 18.2124 133.852 18.6942C134.32 19.1695 134.967 19.4071 135.794 19.4071C136.479 19.4071 137.108 19.3355 137.678 19.1923C138.248 19.049 138.835 18.8342 139.437 18.5477V20.8524C138.905 21.1193 138.348 21.3147 137.764 21.4384C137.188 21.5621 136.486 21.6239 135.659 21.6239C134.583 21.6239 133.628 21.4221 132.794 21.0184C131.968 20.6148 131.317 19.9996 130.843 19.1727C130.375 18.3459 130.141 17.3042 130.141 16.0477C130.141 14.7717 130.353 13.7105 130.776 12.8641C131.205 12.0113 131.801 11.3733 132.564 10.9501C133.326 10.5204 134.214 10.3055 135.227 10.3055ZM135.246 12.4247C134.675 12.4247 134.201 12.6102 133.823 12.9813C133.451 13.3524 133.237 13.9351 133.179 14.7294H137.293C137.287 14.2867 137.207 13.8928 137.053 13.5477C136.906 13.2027 136.681 12.9292 136.38 12.7274C136.085 12.5256 135.707 12.4247 135.246 12.4247Z" fill="#272F37"/>
<path d="M146.83 10.286C148.271 10.286 149.377 10.605 150.146 11.243C150.915 11.8811 151.3 12.8511 151.3 14.1532V21.4286H149.252L148.685 19.9442H148.608C148.3 20.3348 147.986 20.6538 147.666 20.9012C147.345 21.1486 146.977 21.3309 146.56 21.4481C146.144 21.5653 145.638 21.6239 145.042 21.6239C144.407 21.6239 143.837 21.5002 143.33 21.2528C142.831 21.0054 142.436 20.6278 142.148 20.12C141.86 19.6057 141.715 18.9546 141.715 18.1669C141.715 17.008 142.116 16.1552 142.917 15.6083C143.718 15.0549 144.92 14.7489 146.522 14.6903L148.387 14.6317V14.1532C148.387 13.5803 148.239 13.1604 147.945 12.8934C147.65 12.6265 147.24 12.493 146.714 12.493C146.195 12.493 145.686 12.5679 145.186 12.7177C144.686 12.8674 144.186 13.0562 143.686 13.2841L142.715 11.2723C143.286 10.9663 143.923 10.7255 144.628 10.5497C145.34 10.3739 146.073 10.286 146.83 10.286ZM148.387 16.37L147.253 16.4091C146.304 16.4351 145.644 16.6076 145.272 16.9266C144.907 17.2456 144.724 17.6656 144.724 18.1864C144.724 18.6421 144.856 18.9677 145.118 19.163C145.381 19.3518 145.724 19.4462 146.147 19.4462C146.775 19.4462 147.304 19.2574 147.733 18.8798C148.169 18.5022 148.387 17.965 148.387 17.2684V16.37Z" fill="#272F37"/>
<path d="M160.326 10.3055C160.474 10.3055 160.643 10.3153 160.836 10.3348C161.034 10.3479 161.195 10.3674 161.316 10.3934L161.095 13.1864C160.999 13.1538 160.861 13.1311 160.682 13.118C160.509 13.0985 160.358 13.0887 160.23 13.0887C159.852 13.0887 159.483 13.1376 159.125 13.2352C158.772 13.3329 158.455 13.4924 158.173 13.7137C157.891 13.9286 157.667 14.215 157.5 14.5731C157.34 14.9247 157.26 15.3576 157.26 15.8719V21.4286H154.328V10.5106H156.548L156.981 12.3466H157.125C157.337 11.9755 157.599 11.6369 157.913 11.3309C158.234 11.0184 158.596 10.771 159 10.5887C159.41 10.3999 159.852 10.3055 160.326 10.3055Z" fill="#272F37"/>
<path d="M169.372 10.3055C170.519 10.3055 171.442 10.6246 172.141 11.2626C172.839 11.8941 173.188 12.9097 173.188 14.3094V21.4286H170.257V15.0516C170.257 14.2704 170.116 13.6812 169.834 13.2841C169.558 12.8869 169.122 12.6884 168.526 12.6884C167.629 12.6884 167.017 12.9976 166.69 13.6161C166.363 14.2346 166.2 15.1265 166.2 16.2919V21.4286H163.268V10.5106H165.508L165.902 11.9071H166.065C166.296 11.5295 166.581 11.2235 166.921 10.9891C167.267 10.7548 167.648 10.5822 168.065 10.4716C168.488 10.3609 168.923 10.3055 169.372 10.3055Z" fill="#272F37"/>
</svg>
